<svg width="420" height="230" viewBox="0 0 420 230" fill="none" xmlns="http://www.w3.org/2000/svg">
<rect x="2" y="2" width="416" height="226" rx="18" fill="#215270"/>
<rect x="2" y="2" width="416" height="226" rx="18" stroke="#F1F9FF" stroke-width="4"/>
<g clip-path="url(#clip0_2685_475)">
<path d="M158.438 101.344C158.26 100.842 158.052 100.355 157.854 99.9045C157.55 99.2113 157.231 98.5168 156.922 97.8453L156.898 97.7921C154.147 91.795 151.195 85.7156 148.123 79.7235L147.992 79.4689C147.679 78.8571 147.355 78.2244 147.022 77.6027C146.628 76.8159 146.15 76.0746 145.596 75.3921C144.972 74.6429 144.192 74.0405 143.312 73.6273C142.431 73.214 141.471 72.9999 140.499 73C139.527 73.0001 138.567 73.2145 137.687 73.628C136.806 74.0415 136.027 74.6441 135.403 75.3934C134.85 76.076 134.372 76.8171 133.977 77.6036C133.642 78.2309 133.315 78.8695 132.999 79.4871L132.878 79.7235C129.805 85.7162 126.853 91.7953 124.102 97.792L124.062 97.8792C123.759 98.5396 123.446 99.2226 123.146 99.9042C122.948 100.355 122.741 100.841 122.563 101.345C122.053 102.717 121.89 104.196 122.09 105.648C122.302 107.116 122.891 108.502 123.8 109.669C124.709 110.838 125.905 111.747 127.271 112.306C128.303 112.727 129.406 112.941 130.519 112.939C130.869 112.939 131.218 112.918 131.565 112.878C132.973 112.697 134.331 112.236 135.56 111.521C137.171 110.61 138.762 109.274 140.5 107.366C142.238 109.274 143.829 110.61 145.441 111.521C146.669 112.236 148.027 112.697 149.435 112.878C149.782 112.918 150.132 112.939 150.481 112.939C151.594 112.941 152.697 112.727 153.729 112.306C155.095 111.747 156.291 110.838 157.201 109.669C158.109 108.502 158.699 107.116 158.911 105.648C159.11 104.196 158.947 102.717 158.438 101.344ZM140.5 103.425C138.348 100.679 136.968 98.1288 136.483 95.9911C136.285 95.1901 136.238 94.3586 136.345 93.5402C136.429 92.94 136.648 92.367 136.985 91.8645C137.4 91.3235 137.932 90.8855 138.542 90.5842C139.151 90.2829 139.821 90.1263 140.5 90.1263C141.18 90.1264 141.85 90.2831 142.459 90.5845C143.068 90.8859 143.601 91.3239 144.015 91.865C144.352 92.3677 144.571 92.9407 144.656 93.5409C144.763 94.3597 144.716 95.1915 144.517 95.9927C144.032 98.1301 142.651 100.679 140.5 103.425ZM156.397 105.287C156.249 106.313 155.837 107.282 155.202 108.098C154.566 108.915 153.729 109.551 152.775 109.942C151.809 110.332 150.761 110.47 149.728 110.344C148.654 110.204 147.62 109.849 146.686 109.298C145.252 108.486 143.8 107.241 142.167 105.415C144.767 102.186 146.391 99.2106 146.992 96.5603C147.263 95.4458 147.321 94.2899 147.165 93.1536C147.023 92.1744 146.662 91.2406 146.109 90.4225C145.461 89.5392 144.616 88.8215 143.642 88.3272C142.668 87.8326 141.592 87.5749 140.5 87.5748C139.409 87.5748 138.333 87.8324 137.358 88.3269C136.384 88.8211 135.539 89.5387 134.891 90.4219C134.338 91.2398 133.977 92.1734 133.835 93.1523C133.679 94.2881 133.737 95.4436 134.007 96.5576C134.608 99.2091 136.232 102.185 138.834 105.415C137.2 107.241 135.748 108.486 134.314 109.298C133.381 109.849 132.346 110.204 131.272 110.344C130.239 110.47 129.191 110.332 128.225 109.942C127.271 109.551 126.434 108.915 125.798 108.098C125.163 107.282 124.751 106.313 124.603 105.287C124.461 104.244 124.582 103.182 124.955 102.199C125.097 101.797 125.263 101.403 125.469 100.935C125.76 100.272 126.069 99.5986 126.368 98.9476L126.408 98.86C129.143 92.897 132.079 86.8516 135.135 80.8916L135.256 80.6544C135.567 80.0467 135.889 79.4184 136.214 78.8115C136.524 78.1857 136.9 77.595 137.335 77.0493C137.72 76.5806 138.203 76.2034 138.75 75.9447C139.575 75.5543 140.506 75.451 141.395 75.6508C142.285 75.8506 143.083 76.3423 143.665 77.0487C144.1 77.594 144.476 78.1846 144.786 78.8103C145.108 79.4119 145.426 80.0344 145.735 80.6365L145.865 80.8919C148.921 86.8512 151.857 92.8964 154.593 98.8606L154.617 98.9143C154.921 99.5764 155.235 100.261 155.531 100.935C155.737 101.404 155.904 101.798 156.045 102.198C156.418 103.182 156.539 104.244 156.397 105.287Z" fill="#F1F9FF"/>
</g>
<path d="M86.08 154.4C84.2667 154.4 82.6267 153.933 81.16 153C79.6933 152.04 78.5333 150.747 77.68 149.12C76.8267 147.467 76.4 145.6 76.4 143.52C76.4 141.413 76.84 139.547 77.72 137.92C78.6 136.293 79.7733 135.013 81.24 134.08C82.7333 133.147 84.4 132.68 86.24 132.68C87.3333 132.68 88.3467 132.84 89.28 133.16C90.2133 133.48 91.04 133.933 91.76 134.52C92.5067 135.08 93.12 135.747 93.6 136.52C94.1067 137.267 94.4533 138.08 94.64 138.96L93.76 138.52L93.88 133.12H96.88V154H93.84V148.88L94.64 148.36C94.4533 149.16 94.0933 149.933 93.56 150.68C93.0267 151.4 92.3733 152.04 91.6 152.6C90.8533 153.16 90 153.6 89.04 153.92C88.1067 154.24 87.12 154.4 86.08 154.4ZM86.76 151.52C88.1467 151.52 89.3867 151.187 90.48 150.52C91.5733 149.827 92.4267 148.88 93.04 147.68C93.68 146.453 94 145.067 94 143.52C94 141.973 93.68 140.6 93.04 139.4C92.4267 138.2 91.5733 137.253 90.48 136.56C89.3867 135.867 88.1467 135.52 86.76 135.52C85.3467 135.52 84.0933 135.867 83 136.56C81.9333 137.253 81.08 138.2 80.44 139.4C79.8267 140.6 79.52 141.973 79.52 143.52C79.52 145.04 79.8267 146.413 80.44 147.64C81.0533 148.84 81.9067 149.787 83 150.48C84.0933 151.173 85.3467 151.52 86.76 151.52ZM105.125 154V133.12H108.125V154H105.125ZM106.605 128.6C105.858 128.6 105.285 128.413 104.885 128.04C104.511 127.64 104.325 127.107 104.325 126.44C104.325 125.773 104.525 125.24 104.925 124.84C105.325 124.44 105.885 124.24 106.605 124.24C107.325 124.24 107.885 124.44 108.285 124.84C108.685 125.213 108.885 125.747 108.885 126.44C108.885 127.08 108.685 127.6 108.285 128C107.885 128.4 107.325 128.6 106.605 128.6ZM116.276 154V133.12H119.276L119.356 138.68L119.036 137.92C119.33 136.987 119.796 136.12 120.436 135.32C121.103 134.52 121.89 133.88 122.796 133.4C123.703 132.92 124.703 132.68 125.796 132.68C126.25 132.68 126.676 132.72 127.076 132.8C127.476 132.853 127.81 132.933 128.076 133.04L127.236 136.4C126.89 136.24 126.53 136.133 126.156 136.08C125.81 136 125.476 135.96 125.156 135.96C124.25 135.96 123.436 136.12 122.716 136.44C121.996 136.76 121.383 137.213 120.876 137.8C120.37 138.36 119.983 139.013 119.716 139.76C119.45 140.507 119.316 141.307 119.316 142.16V154H116.276ZM143.398 154.4C142.411 154.4 141.451 154.253 140.518 153.96C139.585 153.64 138.731 153.213 137.958 152.68C137.211 152.147 136.571 151.533 136.038 150.84C135.531 150.147 135.185 149.427 134.998 148.68L135.878 148.72L135.758 153.96H132.798V124.4H135.798V138.12L135.198 138.28C135.385 137.533 135.718 136.827 136.198 136.16C136.705 135.467 137.331 134.867 138.078 134.36C138.825 133.827 139.638 133.413 140.518 133.12C141.425 132.827 142.358 132.68 143.318 132.68C145.185 132.68 146.851 133.147 148.318 134.08C149.811 135.013 150.998 136.293 151.878 137.92C152.758 139.547 153.198 141.413 153.198 143.52C153.198 145.627 152.771 147.507 151.918 149.16C151.065 150.787 149.891 152.067 148.398 153C146.931 153.933 145.265 154.4 143.398 154.4ZM142.918 151.56C144.331 151.56 145.585 151.213 146.678 150.52C147.771 149.8 148.625 148.84 149.238 147.64C149.878 146.413 150.198 145.04 150.198 143.52C150.198 141.973 149.878 140.6 149.238 139.4C148.625 138.2 147.771 137.253 146.678 136.56C145.585 135.867 144.331 135.52 142.918 135.52C141.505 135.52 140.251 135.867 139.158 136.56C138.065 137.253 137.198 138.2 136.558 139.4C135.945 140.6 135.638 141.973 135.638 143.52C135.638 145.067 135.945 146.453 136.558 147.68C137.198 148.88 138.065 149.827 139.158 150.52C140.251 151.213 141.505 151.56 142.918 151.56ZM159.164 154V133.12H162.124L162.244 137.48L161.764 137.68C162.03 136.773 162.55 135.947 163.324 135.2C164.097 134.453 165.017 133.853 166.084 133.4C167.177 132.92 168.297 132.68 169.444 132.68C170.99 132.68 172.284 132.987 173.324 133.6C174.364 134.213 175.15 135.16 175.684 136.44C176.217 137.72 176.484 139.347 176.484 141.32V154H173.444V141.48C173.444 140.093 173.257 138.96 172.884 138.08C172.537 137.173 171.99 136.507 171.244 136.08C170.497 135.653 169.577 135.453 168.484 135.48C167.577 135.48 166.737 135.64 165.964 135.96C165.19 136.253 164.524 136.667 163.964 137.2C163.404 137.733 162.964 138.347 162.644 139.04C162.324 139.733 162.164 140.48 162.164 141.28V154H160.684C160.497 154 160.284 154 160.044 154C159.804 154 159.51 154 159.164 154ZM194.411 154.4C193.424 154.4 192.464 154.253 191.531 153.96C190.597 153.64 189.744 153.213 188.971 152.68C188.224 152.147 187.584 151.533 187.051 150.84C186.544 150.147 186.197 149.427 186.011 148.68L186.891 148.72L186.771 153.96H183.811V124.4H186.811V138.12L186.211 138.28C186.397 137.533 186.731 136.827 187.211 136.16C187.717 135.467 188.344 134.867 189.091 134.36C189.837 133.827 190.651 133.413 191.531 133.12C192.437 132.827 193.371 132.68 194.331 132.68C196.197 132.68 197.864 133.147 199.331 134.08C200.824 135.013 202.011 136.293 202.891 137.92C203.771 139.547 204.211 141.413 204.211 143.52C204.211 145.627 203.784 147.507 202.931 149.16C202.077 150.787 200.904 152.067 199.411 153C197.944 153.933 196.277 154.4 194.411 154.4ZM193.931 151.56C195.344 151.56 196.597 151.213 197.691 150.52C198.784 149.8 199.637 148.84 200.251 147.64C200.891 146.413 201.211 145.04 201.211 143.52C201.211 141.973 200.891 140.6 200.251 139.4C199.637 138.2 198.784 137.253 197.691 136.56C196.597 135.867 195.344 135.52 193.931 135.52C192.517 135.52 191.264 135.867 190.171 136.56C189.077 137.253 188.211 138.2 187.571 139.4C186.957 140.6 186.651 141.973 186.651 143.52C186.651 145.067 186.957 146.453 187.571 147.68C188.211 148.88 189.077 149.827 190.171 150.52C191.264 151.213 192.517 151.56 193.931 151.56Z" fill="#F1F9FF"/>
<path d="M236.096 88L236 87.76L240.896 77.584L241.064 78.736C240.744 79.296 240.4 79.792 240.032 80.224C239.664 80.64 239.264 80.992 238.832 81.28C238.416 81.568 237.976 81.792 237.512 81.952C237.048 82.096 236.568 82.168 236.072 82.168C235.112 82.168 234.232 81.92 233.432 81.424C232.648 80.928 232.016 80.272 231.536 79.456C231.072 78.64 230.84 77.736 230.84 76.744C230.84 75.64 231.096 74.648 231.608 73.768C232.12 72.888 232.816 72.2 233.696 71.704C234.576 71.192 235.552 70.936 236.624 70.936C237.424 70.936 238.16 71.08 238.832 71.368C239.52 71.656 240.12 72.056 240.632 72.568C241.16 73.08 241.568 73.68 241.856 74.368C242.144 75.04 242.288 75.768 242.288 76.552C242.288 77.016 242.224 77.528 242.096 78.088C241.984 78.632 241.816 79.216 241.592 79.84C241.368 80.448 241.112 81.088 240.824 81.76C240.536 82.432 240.224 83.12 239.888 83.824L237.896 88H236.096ZM236.48 80.392C237.2 80.392 237.848 80.224 238.424 79.888C239 79.536 239.456 79.072 239.792 78.496C240.128 77.92 240.296 77.28 240.296 76.576C240.296 75.856 240.128 75.2 239.792 74.608C239.472 74.016 239.024 73.552 238.448 73.216C237.872 72.88 237.224 72.712 236.504 72.712C235.8 72.712 235.168 72.88 234.608 73.216C234.048 73.552 233.6 74.008 233.264 74.584C232.944 75.16 232.784 75.816 232.784 76.552C232.784 77.256 232.944 77.896 233.264 78.472C233.6 79.048 234.048 79.512 234.608 79.864C235.168 80.216 235.792 80.392 236.48 80.392ZM255.034 88V73.528C255.034 72.904 255.17 72.352 255.442 71.872C255.714 71.392 256.098 71.016 256.594 70.744C257.106 70.456 257.698 70.312 258.37 70.312C258.882 70.312 259.338 70.408 259.738 70.6C260.154 70.776 260.498 71.024 260.77 71.344L260.146 72.76C259.89 72.488 259.61 72.296 259.306 72.184C259.018 72.056 258.738 71.992 258.466 71.992C258.114 71.992 257.818 72.056 257.578 72.184C257.338 72.296 257.154 72.472 257.026 72.712C256.914 72.936 256.858 73.208 256.858 73.528V88H256.018C255.842 88 255.674 88 255.514 88C255.354 88 255.194 88 255.034 88ZM252.802 77.248V75.568H260.05V77.248H252.802ZM268.699 88.24C267.451 88.24 266.339 87.96 265.363 87.4C264.403 86.84 263.643 86.064 263.083 85.072C262.539 84.08 262.267 82.952 262.267 81.688C262.267 80.44 262.539 79.328 263.083 78.352C263.643 77.376 264.403 76.608 265.363 76.048C266.339 75.488 267.451 75.208 268.699 75.208C269.931 75.208 271.027 75.488 271.987 76.048C272.963 76.608 273.723 77.376 274.267 78.352C274.827 79.328 275.107 80.44 275.107 81.688C275.107 82.952 274.827 84.08 274.267 85.072C273.723 86.064 272.963 86.84 271.987 87.4C271.027 87.96 269.931 88.24 268.699 88.24ZM268.699 86.536C269.579 86.536 270.363 86.328 271.051 85.912C271.739 85.48 272.275 84.904 272.659 84.184C273.043 83.448 273.235 82.616 273.235 81.688C273.235 80.76 273.043 79.936 272.659 79.216C272.275 78.496 271.739 77.936 271.051 77.536C270.363 77.12 269.579 76.912 268.699 76.912C267.819 76.912 267.027 77.12 266.323 77.536C265.635 77.936 265.091 78.504 264.691 79.24C264.307 79.96 264.123 80.776 264.139 81.688C264.123 82.616 264.307 83.448 264.691 84.184C265.091 84.904 265.635 85.48 266.323 85.912C267.027 86.328 267.819 86.536 268.699 86.536ZM278.694 88V75.472H280.47L280.542 78.088L280.254 78.208C280.414 77.664 280.726 77.168 281.19 76.72C281.654 76.272 282.206 75.912 282.846 75.64C283.502 75.352 284.174 75.208 284.862 75.208C285.79 75.208 286.566 75.392 287.19 75.76C287.814 76.128 288.286 76.696 288.606 77.464C288.926 78.232 289.086 79.208 289.086 80.392V88H287.262V80.488C287.262 79.656 287.15 78.976 286.926 78.448C286.718 77.904 286.39 77.504 285.942 77.248C285.494 76.992 284.942 76.872 284.286 76.888C283.742 76.888 283.238 76.984 282.774 77.176C282.31 77.352 281.91 77.6 281.574 77.92C281.238 78.24 280.974 78.608 280.782 79.024C280.59 79.44 280.494 79.888 280.494 80.368V88H279.606C279.494 88 279.366 88 279.222 88C279.078 88 278.902 88 278.694 88ZM295.21 88V72.184H297.01V88H295.21ZM292.378 77.2V75.472H300.178V77.2H292.378ZM307.921 88.24C306.849 88.24 305.889 88.04 305.041 87.64C304.193 87.24 303.521 86.712 303.025 86.056L304.297 84.952C304.761 85.512 305.305 85.936 305.929 86.224C306.569 86.512 307.281 86.656 308.065 86.656C308.465 86.656 308.825 86.616 309.145 86.536C309.465 86.44 309.745 86.304 309.985 86.128C310.225 85.952 310.409 85.744 310.537 85.504C310.665 85.264 310.729 85 310.729 84.712C310.729 84.184 310.497 83.744 310.033 83.392C309.825 83.248 309.529 83.104 309.145 82.96C308.761 82.8 308.297 82.648 307.753 82.504C306.857 82.248 306.113 81.992 305.521 81.736C304.929 81.464 304.465 81.152 304.129 80.8C303.889 80.512 303.705 80.2 303.577 79.864C303.465 79.528 303.409 79.16 303.409 78.76C303.409 78.248 303.513 77.776 303.721 77.344C303.945 76.912 304.249 76.536 304.633 76.216C305.033 75.88 305.497 75.632 306.025 75.472C306.569 75.296 307.153 75.208 307.777 75.208C308.369 75.208 308.953 75.288 309.529 75.448C310.105 75.608 310.641 75.84 311.137 76.144C311.633 76.448 312.057 76.808 312.409 77.224L311.305 78.424C311.001 78.104 310.665 77.816 310.297 77.56C309.929 77.304 309.537 77.104 309.121 76.96C308.721 76.816 308.305 76.744 307.873 76.744C307.489 76.744 307.129 76.792 306.793 76.888C306.473 76.984 306.193 77.12 305.953 77.296C305.729 77.456 305.553 77.656 305.425 77.896C305.313 78.136 305.257 78.4 305.257 78.688C305.257 78.928 305.305 79.144 305.401 79.336C305.497 79.528 305.633 79.696 305.809 79.84C306.033 80.016 306.345 80.184 306.745 80.344C307.161 80.488 307.673 80.64 308.281 80.8C308.985 80.992 309.577 81.192 310.057 81.4C310.553 81.592 310.961 81.824 311.281 82.096C311.713 82.416 312.017 82.784 312.193 83.2C312.385 83.616 312.481 84.088 312.481 84.616C312.481 85.32 312.281 85.944 311.881 86.488C311.497 87.032 310.961 87.464 310.273 87.784C309.585 88.088 308.801 88.24 307.921 88.24ZM316.501 91.96L315.829 91.096C316.341 90.792 316.741 90.464 317.029 90.112C317.317 89.76 317.461 89.424 317.461 89.104C317.461 88.928 317.429 88.76 317.365 88.6C317.301 88.44 317.141 88.24 316.885 88C316.661 87.792 316.493 87.592 316.381 87.4C316.285 87.208 316.237 87.008 316.237 86.8C316.237 86.48 316.349 86.224 316.573 86.032C316.797 85.824 317.093 85.72 317.461 85.72C317.829 85.72 318.149 85.816 318.421 86.008C318.693 86.2 318.901 86.472 319.045 86.824C319.205 87.16 319.285 87.56 319.285 88.024C319.285 88.456 319.221 88.856 319.093 89.224C318.965 89.608 318.781 89.968 318.541 90.304C318.301 90.64 318.013 90.944 317.677 91.216C317.341 91.488 316.949 91.736 316.501 91.96ZM237.296 124.24C236.048 124.24 234.936 123.96 233.96 123.4C233 122.84 232.24 122.064 231.68 121.072C231.136 120.08 230.864 118.952 230.864 117.688C230.864 116.44 231.136 115.328 231.68 114.352C232.24 113.376 233 112.608 233.96 112.048C234.936 111.488 236.048 111.208 237.296 111.208C238.528 111.208 239.624 111.488 240.584 112.048C241.56 112.608 242.32 113.376 242.864 114.352C243.424 115.328 243.704 116.44 243.704 117.688C243.704 118.952 243.424 120.08 242.864 121.072C242.32 122.064 241.56 122.84 240.584 123.4C239.624 123.96 238.528 124.24 237.296 124.24ZM237.296 122.536C238.176 122.536 238.96 122.328 239.648 121.912C240.336 121.48 240.872 120.904 241.256 120.184C241.64 119.448 241.832 118.616 241.832 117.688C241.832 116.76 241.64 115.936 241.256 115.216C240.872 114.496 240.336 113.936 239.648 113.536C238.96 113.12 238.176 112.912 237.296 112.912C236.416 112.912 235.624 113.12 234.92 113.536C234.232 113.936 233.688 114.504 233.288 115.24C232.904 115.96 232.72 116.776 232.736 117.688C232.72 118.616 232.904 119.448 233.288 120.184C233.688 120.904 234.232 121.48 234.92 121.912C235.624 122.328 236.416 122.536 237.296 122.536ZM247.29 124V111.472H249.066L249.138 114.088L248.85 114.208C249.01 113.664 249.322 113.168 249.786 112.72C250.25 112.272 250.802 111.912 251.442 111.64C252.098 111.352 252.77 111.208 253.458 111.208C254.386 111.208 255.162 111.392 255.786 111.76C256.41 112.128 256.882 112.696 257.202 113.464C257.522 114.232 257.682 115.208 257.682 116.392V124H255.858V116.488C255.858 115.656 255.746 114.976 255.522 114.448C255.314 113.904 254.986 113.504 254.538 113.248C254.09 112.992 253.538 112.872 252.882 112.888C252.338 112.888 251.834 112.984 251.37 113.176C250.906 113.352 250.506 113.6 250.17 113.92C249.834 114.24 249.57 114.608 249.378 115.024C249.186 115.44 249.09 115.888 249.09 116.368V124H248.202C248.09 124 247.962 124 247.818 124C247.674 124 247.498 124 247.29 124ZM267.598 124.24C266.35 124.24 265.238 123.968 264.262 123.424C263.302 122.88 262.55 122.12 262.006 121.144C261.462 120.168 261.19 119.048 261.19 117.784C261.19 116.808 261.342 115.928 261.646 115.144C261.95 114.344 262.374 113.648 262.918 113.056C263.478 112.464 264.142 112.008 264.91 111.688C265.678 111.352 266.51 111.184 267.406 111.184C268.254 111.184 269.022 111.336 269.71 111.64C270.414 111.944 271.014 112.368 271.51 112.912C272.022 113.44 272.406 114.072 272.662 114.808C272.918 115.544 273.03 116.352 272.998 117.232L272.974 118.072H262.534L262.27 116.56H271.606L271.174 116.968V116.392C271.142 115.816 270.974 115.264 270.67 114.736C270.366 114.192 269.934 113.752 269.374 113.416C268.83 113.08 268.174 112.912 267.406 112.912C266.51 112.912 265.734 113.096 265.078 113.464C264.422 113.816 263.918 114.344 263.566 115.048C263.214 115.752 263.038 116.624 263.038 117.664C263.038 118.656 263.23 119.52 263.614 120.256C263.998 120.976 264.542 121.536 265.246 121.936C265.966 122.336 266.83 122.536 267.838 122.536C268.43 122.536 269.014 122.44 269.59 122.248C270.182 122.04 270.83 121.64 271.534 121.048L272.47 122.344C272.102 122.712 271.662 123.04 271.15 123.328C270.638 123.6 270.078 123.824 269.47 124C268.862 124.16 268.238 124.24 267.598 124.24ZM285.641 124V109.528C285.641 108.904 285.777 108.352 286.049 107.872C286.321 107.392 286.705 107.016 287.201 106.744C287.713 106.456 288.305 106.312 288.977 106.312C289.489 106.312 289.945 106.408 290.345 106.6C290.761 106.776 291.105 107.024 291.377 107.344L290.753 108.76C290.497 108.488 290.217 108.296 289.913 108.184C289.625 108.056 289.345 107.992 289.073 107.992C288.721 107.992 288.425 108.056 288.185 108.184C287.945 108.296 287.761 108.472 287.633 108.712C287.521 108.936 287.465 109.208 287.465 109.528V124H286.625C286.449 124 286.281 124 286.121 124C285.961 124 285.801 124 285.641 124ZM283.409 113.248V111.568H290.657V113.248H283.409ZM293.321 124V106.24H295.121V124H293.321ZM304.932 124.24C303.684 124.24 302.572 123.96 301.596 123.4C300.636 122.84 299.876 122.064 299.316 121.072C298.772 120.08 298.5 118.952 298.5 117.688C298.5 116.44 298.772 115.328 299.316 114.352C299.876 113.376 300.636 112.608 301.596 112.048C302.572 111.488 303.684 111.208 304.932 111.208C306.164 111.208 307.26 111.488 308.22 112.048C309.196 112.608 309.956 113.376 310.5 114.352C311.06 115.328 311.34 116.44 311.34 117.688C311.34 118.952 311.06 120.08 310.5 121.072C309.956 122.064 309.196 122.84 308.22 123.4C307.26 123.96 306.164 124.24 304.932 124.24ZM304.932 122.536C305.812 122.536 306.596 122.328 307.284 121.912C307.972 121.48 308.508 120.904 308.892 120.184C309.276 119.448 309.468 118.616 309.468 117.688C309.468 116.76 309.276 115.936 308.892 115.216C308.508 114.496 307.972 113.936 307.284 113.536C306.596 113.12 305.812 112.912 304.932 112.912C304.052 112.912 303.26 113.12 302.556 113.536C301.868 113.936 301.324 114.504 300.924 115.24C300.54 115.96 300.356 116.776 300.372 117.688C300.356 118.616 300.54 119.448 300.924 120.184C301.324 120.904 301.868 121.48 302.556 121.912C303.26 122.328 304.052 122.536 304.932 122.536ZM317.409 124L313.065 111.472L314.985 111.448L318.369 121.648L317.769 121.6L321.441 113.392H322.521L326.217 121.6L325.497 121.648L328.953 111.472H330.849L326.505 124H325.449L321.561 115.072L322.281 115.12L318.513 124H317.409ZM333.956 124.24C333.524 124.24 333.188 124.112 332.948 123.856C332.724 123.6 332.612 123.232 332.612 122.752C332.612 122.32 332.732 121.968 332.972 121.696C333.228 121.408 333.556 121.264 333.956 121.264C334.388 121.264 334.716 121.4 334.94 121.672C335.18 121.928 335.3 122.288 335.3 122.752C335.3 123.2 335.172 123.56 334.916 123.832C334.676 124.104 334.356 124.24 333.956 124.24ZM235.664 160L230.6 143.2H232.616L235.856 154.288C235.984 154.672 236.088 155.04 236.168 155.392C236.264 155.728 236.344 156.056 236.408 156.376C236.472 156.68 236.536 156.992 236.6 157.312C236.664 157.616 236.728 157.936 236.792 158.272L236.384 158.248C236.592 157.512 236.76 156.928 236.888 156.496C237.032 156.064 237.168 155.68 237.296 155.344C237.424 155.008 237.568 154.624 237.728 154.192L240.56 147.064H242.312L245.168 154.264C245.36 154.712 245.528 155.136 245.672 155.536C245.816 155.936 245.952 156.344 246.08 156.76C246.224 157.176 246.36 157.64 246.488 158.152L246.104 158.224C246.184 157.824 246.248 157.496 246.296 157.24C246.344 156.984 246.392 156.76 246.44 156.568C246.488 156.36 246.536 156.16 246.584 155.968C246.632 155.76 246.696 155.52 246.776 155.248C246.856 154.96 246.96 154.6 247.088 154.168L250.328 143.2H252.344L247.232 160H245.672L241.136 149.2L241.568 149.272L237.2 160H235.664ZM255.634 160V142.24H257.434V150.208L257.074 150.568C257.25 149.912 257.578 149.336 258.058 148.84C258.538 148.328 259.098 147.928 259.738 147.64C260.394 147.352 261.058 147.208 261.73 147.208C262.69 147.208 263.49 147.392 264.13 147.76C264.77 148.128 265.242 148.696 265.546 149.464C265.866 150.232 266.026 151.208 266.026 152.392V160H264.202V152.488C264.202 151.656 264.09 150.976 263.866 150.448C263.658 149.904 263.33 149.504 262.882 149.248C262.434 148.992 261.874 148.872 261.202 148.888C260.674 148.888 260.178 148.984 259.714 149.176C259.25 149.352 258.85 149.6 258.514 149.92C258.178 150.24 257.914 150.608 257.722 151.024C257.53 151.44 257.434 151.888 257.434 152.368V160H256.546C256.434 160 256.306 160 256.162 160C256.018 160 255.842 160 255.634 160ZM272.417 165.52L274.841 159.616L275.009 161.32L268.721 147.472H270.761L275.057 157.072C275.185 157.328 275.313 157.632 275.441 157.984C275.569 158.32 275.689 158.656 275.801 158.992L275.129 158.92C275.241 158.648 275.345 158.368 275.441 158.08C275.553 157.792 275.657 157.512 275.753 157.24L279.521 147.472H281.585L276.521 160L274.361 165.52H272.417ZM287.533 155.056L287.125 151.864C287.765 151.704 288.333 151.52 288.829 151.312C289.325 151.104 289.749 150.872 290.101 150.616C290.469 150.36 290.773 150.088 291.013 149.8C291.253 149.496 291.429 149.176 291.541 148.84C291.669 148.488 291.733 148.12 291.733 147.736C291.733 147.176 291.597 146.672 291.325 146.224C291.053 145.776 290.669 145.432 290.173 145.192C289.677 144.936 289.125 144.808 288.517 144.808C287.797 144.808 287.101 145.024 286.429 145.456C285.773 145.888 285.197 146.536 284.701 147.4L283.381 146.272C284.053 145.264 284.845 144.48 285.757 143.92C286.685 143.344 287.645 143.056 288.637 143.056C289.597 143.056 290.453 143.264 291.205 143.68C291.973 144.096 292.581 144.656 293.029 145.36C293.477 146.064 293.701 146.856 293.701 147.736C293.701 148.296 293.589 148.84 293.365 149.368C293.157 149.88 292.853 150.368 292.453 150.832C292.053 151.28 291.581 151.68 291.037 152.032C290.493 152.368 289.901 152.64 289.261 152.848L288.925 155.056H287.533ZM286.885 158.752C286.885 158.32 287.005 157.968 287.245 157.696C287.485 157.408 287.813 157.264 288.229 157.264C288.645 157.264 288.973 157.4 289.213 157.672C289.453 157.928 289.573 158.288 289.573 158.752C289.573 159.2 289.445 159.56 289.189 159.832C288.949 160.104 288.629 160.24 288.229 160.24C287.797 160.24 287.461 160.112 287.221 159.856C286.997 159.6 286.885 159.232 286.885 158.752Z" fill="white"/>
<defs>
<clipPath id="clip0_2685_475">
<rect width="37" height="40" fill="white" transform="translate(122 73)"/>
</clipPath>
</defs>
</svg>
