<svg width="420" height="230" viewBox="0 0 420 230" fill="none" xmlns="http://www.w3.org/2000/svg">
<rect x="2" y="2" width="416" height="226" rx="18" fill="#F9FAFB"/>
<rect x="2" y="2" width="416" height="226" rx="18" stroke="#FF9F45" stroke-width="4"/>
<path d="M37.12 58C36.8267 58 36.5867 57.9067 36.4 57.72C36.2133 57.5333 36.12 57.2933 36.12 57V35.56H28.84C28.5733 35.56 28.3467 35.4667 28.16 35.28C27.9733 35.0933 27.88 34.8667 27.88 34.6V31C27.88 30.7067 27.9733 30.4667 28.16 30.28C28.3467 30.0933 28.5733 30 28.84 30H49.8C50.0933 30 50.3333 30.0933 50.52 30.28C50.7067 30.4667 50.8 30.7067 50.8 31V34.6C50.8 34.8667 50.7067 35.0933 50.52 35.28C50.3333 35.4667 50.0933 35.56 49.8 35.56H42.56V57C42.56 57.2933 42.4667 57.5333 42.28 57.72C42.0933 57.9067 41.8533 58 41.56 58H37.12ZM60.1338 58.4C57.9204 58.4 56.0671 58.04 54.5738 57.32C53.0804 56.5733 51.9338 55.52 51.1338 54.16C50.3604 52.8 49.9338 51.2133 49.8538 49.4C49.8271 48.8667 49.8138 48.2667 49.8138 47.6C49.8138 46.9067 49.8271 46.3067 49.8538 45.8C49.9338 43.96 50.3871 42.3733 51.2138 41.04C52.0404 39.68 53.2004 38.64 54.6938 37.92C56.1871 37.1733 58.0004 36.8 60.1338 36.8C62.2404 36.8 64.0404 37.1733 65.5338 37.92C67.0271 38.64 68.1871 39.68 69.0138 41.04C69.8404 42.3733 70.2938 43.96 70.3738 45.8C70.4271 46.3067 70.4538 46.9067 70.4538 47.6C70.4538 48.2667 70.4271 48.8667 70.3738 49.4C70.2938 51.2133 69.8538 52.8 69.0538 54.16C68.2804 55.52 67.1471 56.5733 65.6538 57.32C64.1604 58.04 62.3204 58.4 60.1338 58.4ZM60.1338 54C61.4404 54 62.4271 53.6 63.0938 52.8C63.7604 51.9733 64.1204 50.7733 64.1738 49.2C64.2004 48.8 64.2138 48.2667 64.2138 47.6C64.2138 46.9333 64.2004 46.4 64.1738 46C64.1204 44.4533 63.7604 43.2667 63.0938 42.44C62.4271 41.6133 61.4404 41.2 60.1338 41.2C58.8271 41.2 57.8271 41.6133 57.1338 42.44C56.4671 43.2667 56.1071 44.4533 56.0538 46C56.0271 46.4 56.0138 46.9333 56.0138 47.6C56.0138 48.2667 56.0271 48.8 56.0538 49.2C56.1071 50.7733 56.4671 51.9733 57.1338 52.8C57.8271 53.6 58.8271 54 60.1338 54ZM84.1572 58.4C81.9439 58.4 80.0905 58.04 78.5972 57.32C77.1039 56.5733 75.9572 55.52 75.1572 54.16C74.3839 52.8 73.9572 51.2133 73.8772 49.4C73.8505 48.8667 73.8372 48.2667 73.8372 47.6C73.8372 46.9067 73.8505 46.3067 73.8772 45.8C73.9572 43.96 74.4105 42.3733 75.2372 41.04C76.0639 39.68 77.2239 38.64 78.7172 37.92C80.2105 37.1733 82.0239 36.8 84.1572 36.8C86.2639 36.8 88.0639 37.1733 89.5572 37.92C91.0505 38.64 92.2105 39.68 93.0372 41.04C93.8639 42.3733 94.3172 43.96 94.3972 45.8C94.4505 46.3067 94.4772 46.9067 94.4772 47.6C94.4772 48.2667 94.4505 48.8667 94.3972 49.4C94.3172 51.2133 93.8772 52.8 93.0772 54.16C92.3039 55.52 91.1705 56.5733 89.6772 57.32C88.1839 58.04 86.3439 58.4 84.1572 58.4ZM84.1572 54C85.4639 54 86.4505 53.6 87.1172 52.8C87.7839 51.9733 88.1439 50.7733 88.1972 49.2C88.2239 48.8 88.2372 48.2667 88.2372 47.6C88.2372 46.9333 88.2239 46.4 88.1972 46C88.1439 44.4533 87.7839 43.2667 87.1172 42.44C86.4505 41.6133 85.4639 41.2 84.1572 41.2C82.8505 41.2 81.8505 41.6133 81.1572 42.44C80.4905 43.2667 80.1305 44.4533 80.0772 46C80.0505 46.4 80.0372 46.9333 80.0372 47.6C80.0372 48.2667 80.0505 48.8 80.0772 49.2C80.1305 50.7733 80.4905 51.9733 81.1572 52.8C81.8505 53.6 82.8505 54 84.1572 54ZM108.449 58C108.182 58 107.955 57.9067 107.769 57.72C107.582 57.5333 107.489 57.2933 107.489 57V38.2C107.489 37.9067 107.582 37.6667 107.769 37.48C107.955 37.2933 108.182 37.2 108.449 37.2H112.169C112.435 37.2 112.662 37.2933 112.849 37.48C113.062 37.6667 113.169 37.9067 113.169 38.2V39.56C113.702 38.8133 114.435 38.1733 115.369 37.64C116.329 37.1067 117.462 36.8267 118.769 36.8C121.862 36.7467 123.982 37.92 125.129 40.32C125.742 39.28 126.622 38.44 127.769 37.8C128.942 37.1333 130.222 36.8 131.609 36.8C132.995 36.8 134.249 37.12 135.369 37.76C136.489 38.3733 137.369 39.3333 138.009 40.64C138.675 41.92 139.009 43.5733 139.009 45.6V57C139.009 57.2933 138.915 57.5333 138.729 57.72C138.542 57.9067 138.315 58 138.049 58H134.089C133.822 58 133.595 57.9067 133.409 57.72C133.222 57.5333 133.129 57.2933 133.129 57V45.92C133.129 44.8267 132.969 43.9733 132.649 43.36C132.329 42.72 131.902 42.2667 131.369 42C130.862 41.7333 130.289 41.6 129.649 41.6C129.089 41.6 128.542 41.7333 128.009 42C127.502 42.2667 127.075 42.72 126.729 43.36C126.409 43.9733 126.249 44.8267 126.249 45.92V57C126.249 57.2933 126.155 57.5333 125.969 57.72C125.782 57.9067 125.542 58 125.249 58H121.329C121.035 58 120.795 57.9067 120.609 57.72C120.422 57.5333 120.329 57.2933 120.329 57V45.92C120.329 44.8267 120.169 43.9733 119.849 43.36C119.529 42.72 119.102 42.2667 118.569 42C118.062 41.7333 117.502 41.6 116.889 41.6C116.329 41.6 115.782 41.7467 115.249 42.04C114.715 42.3067 114.275 42.7467 113.929 43.36C113.609 43.9733 113.449 44.8133 113.449 45.88V57C113.449 57.2933 113.355 57.5333 113.169 57.72C112.982 57.9067 112.755 58 112.489 58H108.449ZM149.976 58.4C148.563 58.4 147.296 58.1333 146.176 57.6C145.056 57.04 144.163 56.2933 143.496 55.36C142.829 54.4267 142.496 53.3867 142.496 52.24C142.496 50.3467 143.256 48.8533 144.776 47.76C146.323 46.6667 148.349 45.92 150.856 45.52L156.096 44.76V44.04C156.096 43 155.856 42.2 155.376 41.64C154.896 41.08 154.056 40.8 152.856 40.8C151.976 40.8 151.269 40.9733 150.736 41.32C150.203 41.6667 149.789 42.12 149.496 42.68C149.283 43.0267 148.976 43.2 148.576 43.2H144.776C144.483 43.2 144.256 43.12 144.096 42.96C143.936 42.7733 143.869 42.56 143.896 42.32C143.896 41.8667 144.069 41.3333 144.416 40.72C144.763 40.1067 145.296 39.5067 146.016 38.92C146.736 38.3067 147.656 37.8 148.776 37.4C149.896 37 151.269 36.8 152.896 36.8C154.576 36.8 156.016 37 157.216 37.4C158.416 37.8 159.376 38.36 160.096 39.08C160.816 39.8 161.349 40.64 161.696 41.6C162.043 42.5333 162.216 43.5467 162.216 44.64V57C162.216 57.2933 162.123 57.5333 161.936 57.72C161.749 57.9067 161.509 58 161.216 58H157.296C157.029 58 156.803 57.9067 156.616 57.72C156.429 57.5333 156.336 57.2933 156.336 57V55.52C155.989 56.0267 155.523 56.5067 154.936 56.96C154.349 57.3867 153.643 57.7333 152.816 58C152.016 58.2667 151.069 58.4 149.976 58.4ZM151.576 54.24C152.456 54.24 153.243 54.0533 153.936 53.68C154.629 53.3067 155.176 52.7333 155.576 51.96C155.976 51.1867 156.176 50.2133 156.176 49.04V48.36L152.456 48.96C151.016 49.2 149.963 49.56 149.296 50.04C148.629 50.52 148.296 51.1067 148.296 51.8C148.296 52.3067 148.443 52.7467 148.736 53.12C149.056 53.4933 149.469 53.7733 149.976 53.96C150.483 54.1467 151.016 54.24 151.576 54.24ZM168.019 58C167.752 58 167.526 57.9067 167.339 57.72C167.152 57.5333 167.059 57.2933 167.059 57V38.2C167.059 37.9067 167.152 37.6667 167.339 37.48C167.526 37.2933 167.752 37.2 168.019 37.2H171.939C172.232 37.2 172.472 37.2933 172.659 37.48C172.846 37.6667 172.939 37.9067 172.939 38.2V39.76C173.632 38.9067 174.526 38.2 175.619 37.64C176.712 37.08 178.046 36.8 179.619 36.8C181.192 36.8 182.566 37.16 183.739 37.88C184.939 38.5733 185.872 39.6 186.539 40.96C187.232 42.2933 187.579 43.92 187.579 45.84V57C187.579 57.2933 187.472 57.5333 187.259 57.72C187.072 57.9067 186.846 58 186.579 58H182.339C182.046 58 181.806 57.9067 181.619 57.72C181.432 57.5333 181.339 57.2933 181.339 57V46.08C181.339 44.6667 180.992 43.5733 180.299 42.8C179.632 42 178.646 41.6 177.339 41.6C176.086 41.6 175.086 42 174.339 42.8C173.592 43.5733 173.219 44.6667 173.219 46.08V57C173.219 57.2933 173.126 57.5333 172.939 57.72C172.752 57.9067 172.526 58 172.259 58H168.019ZM195.468 65.6C195.255 65.6 195.055 65.52 194.868 65.36C194.708 65.2 194.628 65 194.628 64.76C194.628 64.7067 194.642 64.6267 194.668 64.52C194.695 64.44 194.735 64.3333 194.788 64.2L197.908 56.72L190.228 38.6C190.148 38.3867 190.108 38.2133 190.108 38.08C190.135 37.84 190.228 37.64 190.388 37.48C190.548 37.2933 190.748 37.2 190.988 37.2H194.868C195.215 37.2 195.468 37.2933 195.628 37.48C195.788 37.64 195.908 37.8133 195.988 38L200.948 50.4L206.028 38C206.135 37.7867 206.268 37.6 206.428 37.44C206.588 37.28 206.842 37.2 207.188 37.2H210.988C211.228 37.2 211.428 37.2933 211.588 37.48C211.775 37.64 211.868 37.8267 211.868 38.04C211.868 38.1733 211.815 38.36 211.708 38.6L200.388 64.8C200.308 65.0133 200.175 65.2 199.988 65.36C199.828 65.52 199.575 65.6 199.228 65.6H195.468ZM35.24 105C34.8667 105 34.5733 104.907 34.36 104.72C34.1733 104.533 34.0267 104.293 33.92 104L28.2 85.48C28.1467 85.3467 28.12 85.2133 28.12 85.08C28.12 84.84 28.2 84.64 28.36 84.48C28.5467 84.2933 28.76 84.2 29 84.2H32.52C32.8667 84.2 33.1333 84.2933 33.32 84.48C33.5067 84.6667 33.6267 84.84 33.68 85L37.32 97.36L41.2 85.08C41.2533 84.8933 41.3733 84.7067 41.56 84.52C41.7733 84.3067 42.0667 84.2 42.44 84.2H44.72C45.0933 84.2 45.3733 84.3067 45.56 84.52C45.7733 84.7067 45.9067 84.8933 45.96 85.08L49.84 97.36L53.48 85C53.5067 84.84 53.6133 84.6667 53.8 84.48C54.0133 84.2933 54.28 84.2 54.6 84.2H58.12C58.36 84.2 58.56 84.2933 58.72 84.48C58.9067 84.64 59 84.84 59 85.08C59 85.2133 58.9867 85.3467 58.96 85.48L53.2 104C53.12 104.293 52.9733 104.533 52.76 104.72C52.5733 104.907 52.2933 105 51.92 105H48.84C48.4667 105 48.1733 104.907 47.96 104.72C47.7467 104.533 47.5867 104.293 47.48 104L43.6 92.16L39.64 104C39.56 104.293 39.4133 104.533 39.2 104.72C38.9867 104.907 38.6933 105 38.32 105H35.24ZM71.6181 105.4C69.4048 105.4 67.5515 105.04 66.0581 104.32C64.5648 103.573 63.4181 102.52 62.6181 101.16C61.8448 99.8 61.4181 98.2133 61.3381 96.4C61.3115 95.8667 61.2981 95.2667 61.2981 94.6C61.2981 93.9067 61.3115 93.3067 61.3381 92.8C61.4181 90.96 61.8715 89.3733 62.6981 88.04C63.5248 86.68 64.6848 85.64 66.1781 84.92C67.6715 84.1733 69.4848 83.8 71.6181 83.8C73.7248 83.8 75.5248 84.1733 77.0181 84.92C78.5115 85.64 79.6715 86.68 80.4981 88.04C81.3248 89.3733 81.7781 90.96 81.8581 92.8C81.9115 93.3067 81.9381 93.9067 81.9381 94.6C81.9381 95.2667 81.9115 95.8667 81.8581 96.4C81.7781 98.2133 81.3381 99.8 80.5381 101.16C79.7648 102.52 78.6315 103.573 77.1381 104.32C75.6448 105.04 73.8048 105.4 71.6181 105.4ZM71.6181 101C72.9248 101 73.9115 100.6 74.5781 99.8C75.2448 98.9733 75.6048 97.7733 75.6581 96.2C75.6848 95.8 75.6981 95.2667 75.6981 94.6C75.6981 93.9333 75.6848 93.4 75.6581 93C75.6048 91.4533 75.2448 90.2667 74.5781 89.44C73.9115 88.6133 72.9248 88.2 71.6181 88.2C70.3115 88.2 69.3115 88.6133 68.6181 89.44C67.9515 90.2667 67.5915 91.4533 67.5381 93C67.5115 93.4 67.4981 93.9333 67.4981 94.6C67.4981 95.2667 67.5115 95.8 67.5381 96.2C67.5915 97.7733 67.9515 98.9733 68.6181 99.8C69.3115 100.6 70.3115 101 71.6181 101ZM87.0816 105C86.8149 105 86.5882 104.907 86.4016 104.72C86.2149 104.533 86.1216 104.293 86.1216 104V85.2C86.1216 84.9333 86.2149 84.7067 86.4016 84.52C86.5882 84.3067 86.8149 84.2 87.0816 84.2H91.0016C91.2682 84.2 91.4949 84.3067 91.6816 84.52C91.8949 84.7067 92.0016 84.9333 92.0016 85.2V86.8C92.6682 85.9733 93.4816 85.3333 94.4416 84.88C95.4282 84.4267 96.5616 84.2 97.8416 84.2H99.5616C99.8282 84.2 100.055 84.2933 100.242 84.48C100.428 84.6667 100.522 84.9067 100.522 85.2V88.64C100.522 88.9333 100.428 89.1733 100.242 89.36C100.055 89.5467 99.8282 89.64 99.5616 89.64H96.0416C94.8682 89.64 93.9482 89.9733 93.2816 90.64C92.6149 91.28 92.2816 92.2 92.2816 93.4V104C92.2816 104.293 92.1882 104.533 92.0016 104.72C91.8149 104.907 91.5749 105 91.2816 105H87.0816ZM110.99 105.4C109.657 105.4 108.47 105.187 107.43 104.76C106.39 104.307 105.51 103.667 104.79 102.84C104.07 101.987 103.523 100.987 103.15 99.84C102.777 98.6667 102.55 97.3733 102.47 95.96C102.443 95.4533 102.43 95 102.43 94.6C102.43 94.1733 102.443 93.72 102.47 93.24C102.523 91.8533 102.737 90.5867 103.11 89.44C103.51 88.2933 104.057 87.3067 104.75 86.48C105.47 85.6267 106.35 84.9733 107.39 84.52C108.457 84.04 109.657 83.8 110.99 83.8C112.377 83.8 113.563 84.04 114.55 84.52C115.537 84.9733 116.35 85.5733 116.99 86.32V77.6C116.99 77.3067 117.083 77.0667 117.27 76.88C117.457 76.6933 117.697 76.6 117.99 76.6H122.11C122.377 76.6 122.603 76.6933 122.79 76.88C122.977 77.0667 123.07 77.3067 123.07 77.6V104C123.07 104.293 122.977 104.533 122.79 104.72C122.603 104.907 122.377 105 122.11 105H118.27C118.003 105 117.777 104.907 117.59 104.72C117.403 104.533 117.31 104.293 117.31 104V102.64C116.643 103.44 115.803 104.107 114.79 104.64C113.777 105.147 112.51 105.4 110.99 105.4ZM112.83 100.6C113.817 100.6 114.603 100.373 115.19 99.92C115.803 99.4667 116.243 98.8933 116.51 98.2C116.803 97.5067 116.963 96.76 116.99 95.96C117.043 95.4533 117.07 94.9467 117.07 94.44C117.07 93.9333 117.043 93.44 116.99 92.96C116.963 92.2133 116.803 91.52 116.51 90.88C116.217 90.2133 115.763 89.6667 115.15 89.24C114.563 88.8133 113.79 88.6 112.83 88.6C111.817 88.6 111.017 88.8267 110.43 89.28C109.843 89.7067 109.417 90.28 109.15 91C108.91 91.72 108.763 92.5067 108.71 93.36C108.63 94.1867 108.63 95.0133 108.71 95.84C108.763 96.6933 108.91 97.48 109.15 98.2C109.417 98.92 109.843 99.5067 110.43 99.96C111.017 100.387 111.817 100.6 112.83 100.6ZM136.353 105.4C134.699 105.4 133.273 105.213 132.073 104.84C130.899 104.44 129.939 103.96 129.193 103.4C128.473 102.84 127.926 102.28 127.553 101.72C127.206 101.133 127.019 100.64 126.993 100.24C126.966 99.9467 127.059 99.7067 127.273 99.52C127.486 99.3333 127.699 99.24 127.913 99.24H131.793C131.873 99.24 131.953 99.2533 132.033 99.28C132.113 99.3067 132.193 99.3733 132.273 99.48C132.619 99.72 132.979 100 133.353 100.32C133.726 100.613 134.153 100.867 134.633 101.08C135.139 101.293 135.766 101.4 136.513 101.4C137.393 101.4 138.139 101.227 138.753 100.88C139.366 100.507 139.673 99.9867 139.673 99.32C139.673 98.84 139.526 98.44 139.233 98.12C138.966 97.8 138.446 97.5067 137.673 97.24C136.899 96.9733 135.753 96.68 134.233 96.36C132.793 96.04 131.566 95.6133 130.553 95.08C129.539 94.5467 128.779 93.88 128.273 93.08C127.766 92.2533 127.513 91.2667 127.513 90.12C127.513 89.08 127.833 88.08 128.473 87.12C129.139 86.16 130.113 85.3733 131.393 84.76C132.673 84.12 134.273 83.8 136.193 83.8C137.659 83.8 138.939 83.9867 140.033 84.36C141.153 84.7067 142.086 85.16 142.833 85.72C143.579 86.2533 144.139 86.8133 144.513 87.4C144.913 87.96 145.126 88.4533 145.153 88.88C145.179 89.1467 145.099 89.3733 144.913 89.56C144.726 89.7467 144.513 89.84 144.273 89.84H140.713C140.579 89.84 140.459 89.8267 140.353 89.8C140.246 89.7467 140.153 89.68 140.073 89.6C139.753 89.3867 139.419 89.1467 139.073 88.88C138.753 88.5867 138.366 88.3333 137.913 88.12C137.459 87.9067 136.873 87.8 136.153 87.8C135.273 87.8 134.593 88 134.113 88.4C133.659 88.7733 133.433 89.2533 133.433 89.84C133.433 90.2133 133.553 90.56 133.793 90.88C134.033 91.2 134.526 91.4933 135.273 91.76C136.019 92.0267 137.153 92.3067 138.673 92.6C140.486 92.92 141.926 93.4 142.993 94.04C144.059 94.68 144.819 95.4267 145.273 96.28C145.753 97.1067 145.993 98 145.993 98.96C145.993 100.213 145.619 101.333 144.873 102.32C144.126 103.28 143.033 104.04 141.593 104.6C140.179 105.133 138.433 105.4 136.353 105.4ZM150.593 105C150.299 105 150.059 104.907 149.873 104.72C149.686 104.533 149.593 104.293 149.593 104V99.52C149.593 99.2267 149.686 98.9867 149.873 98.8C150.059 98.6133 150.299 98.52 150.593 98.52H155.073C155.366 98.52 155.606 98.6133 155.793 98.8C155.979 98.9867 156.073 99.2267 156.073 99.52V104C156.073 104.293 155.979 104.533 155.793 104.72C155.606 104.907 155.366 105 155.073 105H150.593ZM34.52 152C34.0933 152 33.7467 151.88 33.48 151.64C33.24 151.4 33.0933 151.107 33.04 150.76L28.48 125.12C28.4533 125.067 28.44 125.013 28.44 124.96C28.44 124.907 28.44 124.867 28.44 124.84C28.44 124.627 28.52 124.44 28.68 124.28C28.84 124.093 29.04 124 29.28 124H33.48C34.1733 124 34.56 124.28 34.64 124.84L37.64 141.76L40.88 131.24C40.96 131.027 41.0933 130.8 41.28 130.56C41.4667 130.32 41.7733 130.2 42.2 130.2H44.72C45.1467 130.2 45.4533 130.32 45.64 130.56C45.8267 130.8 45.9467 131.027 46 131.24L49.28 141.72L52.24 124.84C52.32 124.28 52.72 124 53.44 124H57.64C57.88 124 58.08 124.093 58.24 124.28C58.4 124.44 58.48 124.627 58.48 124.84C58.48 124.867 58.48 124.907 58.48 124.96C58.48 125.013 58.4667 125.067 58.44 125.12L53.88 150.76C53.8267 151.107 53.6667 151.4 53.4 151.64C53.16 151.88 52.8267 152 52.4 152H49.16C48.7333 152 48.4 151.893 48.16 151.68C47.9467 151.44 47.8 151.2 47.72 150.96L43.44 138.56L39.2 150.96C39.12 151.2 38.96 151.44 38.72 151.68C38.5067 151.893 38.1733 152 37.72 152H34.52ZM70.9484 152.4C67.8818 152.4 65.4418 151.547 63.6284 149.84C61.8418 148.133 60.8951 145.653 60.7884 142.4C60.7884 142.187 60.7884 141.907 60.7884 141.56C60.7884 141.187 60.7884 140.893 60.7884 140.68C60.8951 138.627 61.3618 136.867 62.1884 135.4C63.0151 133.907 64.1751 132.773 65.6684 132C67.1618 131.2 68.9084 130.8 70.9084 130.8C73.1484 130.8 75.0151 131.267 76.5084 132.2C78.0284 133.107 79.1618 134.36 79.9084 135.96C80.6818 137.533 81.0684 139.347 81.0684 141.4V142.32C81.0684 142.587 80.9618 142.813 80.7484 143C80.5618 143.187 80.3351 143.28 80.0684 143.28H66.9884C66.9884 143.307 66.9884 143.36 66.9884 143.44C66.9884 143.493 66.9884 143.547 66.9884 143.6C67.0151 144.453 67.1751 145.24 67.4684 145.96C67.7884 146.653 68.2284 147.213 68.7884 147.64C69.3751 148.067 70.0684 148.28 70.8684 148.28C71.5351 148.28 72.0818 148.187 72.5084 148C72.9351 147.813 73.2818 147.587 73.5484 147.32C73.8418 147.053 74.0551 146.827 74.1884 146.64C74.4284 146.373 74.6151 146.213 74.7484 146.16C74.9084 146.08 75.1484 146.04 75.4684 146.04H79.6284C79.8951 146.04 80.1084 146.12 80.2684 146.28C80.4551 146.413 80.5351 146.613 80.5084 146.88C80.4818 147.307 80.2551 147.84 79.8284 148.48C79.4284 149.093 78.8284 149.707 78.0284 150.32C77.2284 150.907 76.2284 151.4 75.0284 151.8C73.8551 152.2 72.4951 152.4 70.9484 152.4ZM66.9884 139.64H74.8284V139.56C74.8284 138.6 74.6684 137.773 74.3484 137.08C74.0551 136.36 73.6151 135.8 73.0284 135.4C72.4418 135 71.7351 134.8 70.9084 134.8C70.0818 134.8 69.3751 135 68.7884 135.4C68.2018 135.8 67.7484 136.36 67.4284 137.08C67.1351 137.773 66.9884 138.6 66.9884 139.56V139.64ZM96.5109 152C96.2176 152 95.9776 151.907 95.7909 151.72C95.6043 151.533 95.5109 151.293 95.5109 151V135.92H92.3909C92.0976 135.92 91.8576 135.827 91.6709 135.64C91.4843 135.453 91.3909 135.213 91.3909 134.92V132.2C91.3909 131.907 91.4843 131.667 91.6709 131.48C91.8576 131.293 92.0976 131.2 92.3909 131.2H95.5109V129.76C95.5109 128.053 95.8309 126.653 96.4709 125.56C97.1109 124.467 98.0443 123.667 99.2709 123.16C100.498 122.653 102.004 122.4 103.791 122.4H112.991C113.258 122.4 113.484 122.493 113.671 122.68C113.858 122.867 113.951 123.107 113.951 123.4V126.12C113.951 126.413 113.858 126.653 113.671 126.84C113.484 127.027 113.258 127.12 112.991 127.12H104.031C103.044 127.12 102.351 127.36 101.951 127.84C101.578 128.32 101.391 129.027 101.391 129.96V131.2H112.991C113.258 131.2 113.484 131.293 113.671 131.48C113.858 131.667 113.951 131.907 113.951 132.2V151C113.951 151.293 113.858 151.533 113.671 151.72C113.484 151.907 113.258 152 112.991 152H109.071C108.778 152 108.538 151.907 108.351 151.72C108.164 151.533 108.071 151.293 108.071 151V135.92H101.391V151C101.391 151.293 101.298 151.533 101.111 151.72C100.924 151.907 100.698 152 100.431 152H96.5109ZM118.093 152C117.853 152 117.64 151.92 117.453 151.76C117.293 151.573 117.213 151.36 117.213 151.12C117.213 151.04 117.226 150.947 117.253 150.84C117.306 150.707 117.373 150.587 117.453 150.48L124.213 141.32L118.013 132.72C117.933 132.613 117.866 132.507 117.813 132.4C117.786 132.293 117.773 132.187 117.773 132.08C117.773 131.84 117.853 131.64 118.013 131.48C118.2 131.293 118.413 131.2 118.653 131.2H122.813C123.133 131.2 123.373 131.28 123.533 131.44C123.72 131.6 123.853 131.747 123.933 131.88L128.053 137.48L132.173 131.92C132.28 131.787 132.413 131.64 132.573 131.48C132.733 131.293 132.986 131.2 133.333 131.2H137.293C137.533 131.2 137.733 131.293 137.893 131.48C138.08 131.64 138.173 131.84 138.173 132.08C138.173 132.187 138.16 132.293 138.133 132.4C138.106 132.507 138.04 132.613 137.933 132.72L131.613 141.36L138.453 150.48C138.533 150.587 138.586 150.693 138.613 150.8C138.666 150.907 138.693 151.013 138.693 151.12C138.693 151.36 138.6 151.573 138.413 151.76C138.253 151.92 138.053 152 137.813 152H133.453C133.16 152 132.933 151.933 132.773 151.8C132.613 151.64 132.48 151.493 132.373 151.36L127.933 145.44L123.413 151.36C123.333 151.467 123.213 151.6 123.053 151.76C122.893 151.92 122.653 152 122.333 152H118.093ZM150.519 152.4C147.452 152.4 145.012 151.547 143.199 149.84C141.412 148.133 140.465 145.653 140.359 142.4C140.359 142.187 140.359 141.907 140.359 141.56C140.359 141.187 140.359 140.893 140.359 140.68C140.465 138.627 140.932 136.867 141.759 135.4C142.585 133.907 143.745 132.773 145.239 132C146.732 131.2 148.479 130.8 150.479 130.8C152.719 130.8 154.585 131.267 156.079 132.2C157.599 133.107 158.732 134.36 159.479 135.96C160.252 137.533 160.639 139.347 160.639 141.4V142.32C160.639 142.587 160.532 142.813 160.319 143C160.132 143.187 159.905 143.28 159.639 143.28H146.559C146.559 143.307 146.559 143.36 146.559 143.44C146.559 143.493 146.559 143.547 146.559 143.6C146.585 144.453 146.745 145.24 147.039 145.96C147.359 146.653 147.799 147.213 148.359 147.64C148.945 148.067 149.639 148.28 150.439 148.28C151.105 148.28 151.652 148.187 152.079 148C152.505 147.813 152.852 147.587 153.119 147.32C153.412 147.053 153.625 146.827 153.759 146.64C153.999 146.373 154.185 146.213 154.319 146.16C154.479 146.08 154.719 146.04 155.039 146.04H159.199C159.465 146.04 159.679 146.12 159.839 146.28C160.025 146.413 160.105 146.613 160.079 146.88C160.052 147.307 159.825 147.84 159.399 148.48C158.999 149.093 158.399 149.707 157.599 150.32C156.799 150.907 155.799 151.4 154.599 151.8C153.425 152.2 152.065 152.4 150.519 152.4ZM146.559 139.64H154.399V139.56C154.399 138.6 154.239 137.773 153.919 137.08C153.625 136.36 153.185 135.8 152.599 135.4C152.012 135 151.305 134.8 150.479 134.8C149.652 134.8 148.945 135 148.359 135.4C147.772 135.8 147.319 136.36 146.999 137.08C146.705 137.773 146.559 138.6 146.559 139.56V139.64ZM172.357 152.4C171.024 152.4 169.837 152.187 168.797 151.76C167.757 151.307 166.877 150.667 166.157 149.84C165.437 148.987 164.891 147.987 164.517 146.84C164.144 145.667 163.917 144.373 163.837 142.96C163.811 142.453 163.797 142 163.797 141.6C163.797 141.173 163.811 140.72 163.837 140.24C163.891 138.853 164.104 137.587 164.477 136.44C164.877 135.293 165.424 134.307 166.117 133.48C166.837 132.627 167.717 131.973 168.757 131.52C169.824 131.04 171.024 130.8 172.357 130.8C173.744 130.8 174.931 131.04 175.917 131.52C176.904 131.973 177.717 132.573 178.357 133.32V124.6C178.357 124.307 178.451 124.067 178.637 123.88C178.824 123.693 179.064 123.6 179.357 123.6H183.477C183.744 123.6 183.971 123.693 184.157 123.88C184.344 124.067 184.437 124.307 184.437 124.6V151C184.437 151.293 184.344 151.533 184.157 151.72C183.971 151.907 183.744 152 183.477 152H179.637C179.371 152 179.144 151.907 178.957 151.72C178.771 151.533 178.677 151.293 178.677 151V149.64C178.011 150.44 177.171 151.107 176.157 151.64C175.144 152.147 173.877 152.4 172.357 152.4ZM174.197 147.6C175.184 147.6 175.971 147.373 176.557 146.92C177.171 146.467 177.611 145.893 177.877 145.2C178.171 144.507 178.331 143.76 178.357 142.96C178.411 142.453 178.437 141.947 178.437 141.44C178.437 140.933 178.411 140.44 178.357 139.96C178.331 139.213 178.171 138.52 177.877 137.88C177.584 137.213 177.131 136.667 176.517 136.24C175.931 135.813 175.157 135.6 174.197 135.6C173.184 135.6 172.384 135.827 171.797 136.28C171.211 136.707 170.784 137.28 170.517 138C170.277 138.72 170.131 139.507 170.077 140.36C169.997 141.187 169.997 142.013 170.077 142.84C170.131 143.693 170.277 144.48 170.517 145.2C170.784 145.92 171.211 146.507 171.797 146.96C172.384 147.387 173.184 147.6 174.197 147.6ZM39.52 199C37.8667 199 36.4533 198.733 35.28 198.2C34.1067 197.64 33.2133 196.787 32.6 195.64C32.0133 194.493 31.72 193.053 31.72 191.32V182.92H28.6C28.3067 182.92 28.0667 182.827 27.88 182.64C27.6933 182.453 27.6 182.213 27.6 181.92V179.2C27.6 178.907 27.6933 178.667 27.88 178.48C28.0667 178.293 28.3067 178.2 28.6 178.2H31.72V171.6C31.72 171.307 31.8133 171.067 32 170.88C32.2133 170.693 32.4533 170.6 32.72 170.6H36.64C36.9333 170.6 37.1733 170.693 37.36 170.88C37.5467 171.067 37.64 171.307 37.64 171.6V178.2H42.64C42.9067 178.2 43.1333 178.293 43.32 178.48C43.5067 178.667 43.6 178.907 43.6 179.2V181.92C43.6 182.213 43.5067 182.453 43.32 182.64C43.1333 182.827 42.9067 182.92 42.64 182.92H37.64V190.84C37.64 191.853 37.8133 192.653 38.16 193.24C38.5333 193.8 39.1733 194.08 40.08 194.08H43C43.2667 194.08 43.4933 194.173 43.68 194.36C43.8667 194.547 43.96 194.773 43.96 195.04V198C43.96 198.293 43.8667 198.533 43.68 198.72C43.4933 198.907 43.2667 199 43 199H39.52ZM48.4497 199C48.1564 199 47.9164 198.907 47.7297 198.72C47.543 198.533 47.4497 198.293 47.4497 198V171.6C47.4497 171.307 47.543 171.067 47.7297 170.88C47.9164 170.693 48.1564 170.6 48.4497 170.6H52.7697C53.0364 170.6 53.263 170.693 53.4497 170.88C53.6364 171.067 53.7297 171.307 53.7297 171.6V180.6C54.4497 179.747 55.3297 179.067 56.3697 178.56C57.4097 178.053 58.663 177.8 60.1297 177.8C61.703 177.8 63.0897 178.16 64.2897 178.88C65.5164 179.573 66.4764 180.6 67.1697 181.96C67.863 183.293 68.2097 184.92 68.2097 186.84V198C68.2097 198.293 68.1164 198.533 67.9297 198.72C67.743 198.907 67.503 199 67.2097 199H62.8497C62.583 199 62.3564 198.907 62.1697 198.72C61.983 198.533 61.8897 198.293 61.8897 198V187.08C61.8897 185.667 61.543 184.573 60.8497 183.8C60.1564 183 59.1697 182.6 57.8897 182.6C56.6364 182.6 55.623 183 54.8497 183.8C54.103 184.573 53.7297 185.667 53.7297 187.08V198C53.7297 198.293 53.6364 198.533 53.4497 198.72C53.263 198.907 53.0364 199 52.7697 199H48.4497ZM79.1166 199.4C77.7032 199.4 76.4366 199.133 75.3166 198.6C74.1966 198.04 73.3032 197.293 72.6366 196.36C71.9699 195.427 71.6366 194.387 71.6366 193.24C71.6366 191.347 72.3966 189.853 73.9166 188.76C75.4632 187.667 77.4899 186.92 79.9966 186.52L85.2366 185.76V185.04C85.2366 184 84.9966 183.2 84.5166 182.64C84.0366 182.08 83.1966 181.8 81.9966 181.8C81.1166 181.8 80.4099 181.973 79.8766 182.32C79.3432 182.667 78.9299 183.12 78.6366 183.68C78.4232 184.027 78.1166 184.2 77.7166 184.2H73.9166C73.6232 184.2 73.3966 184.12 73.2366 183.96C73.0766 183.773 73.0099 183.56 73.0366 183.32C73.0366 182.867 73.2099 182.333 73.5566 181.72C73.9032 181.107 74.4366 180.507 75.1566 179.92C75.8766 179.307 76.7966 178.8 77.9166 178.4C79.0366 178 80.4099 177.8 82.0366 177.8C83.7166 177.8 85.1566 178 86.3566 178.4C87.5566 178.8 88.5166 179.36 89.2366 180.08C89.9566 180.8 90.4899 181.64 90.8366 182.6C91.1832 183.533 91.3566 184.547 91.3566 185.64V198C91.3566 198.293 91.2632 198.533 91.0766 198.72C90.8899 198.907 90.6499 199 90.3566 199H86.4366C86.1699 199 85.9432 198.907 85.7566 198.72C85.5699 198.533 85.4766 198.293 85.4766 198V196.52C85.1299 197.027 84.6632 197.507 84.0766 197.96C83.4899 198.387 82.7832 198.733 81.9566 199C81.1566 199.267 80.2099 199.4 79.1166 199.4ZM80.7166 195.24C81.5966 195.24 82.3832 195.053 83.0766 194.68C83.7699 194.307 84.3166 193.733 84.7166 192.96C85.1166 192.187 85.3166 191.213 85.3166 190.04V189.36L81.5966 189.96C80.1566 190.2 79.1032 190.56 78.4366 191.04C77.7699 191.52 77.4366 192.107 77.4366 192.8C77.4366 193.307 77.5832 193.747 77.8766 194.12C78.1966 194.493 78.6099 194.773 79.1166 194.96C79.6232 195.147 80.1566 195.24 80.7166 195.24ZM106.043 199C104.39 199 102.977 198.733 101.803 198.2C100.63 197.64 99.7368 196.787 99.1234 195.64C98.5368 194.493 98.2434 193.053 98.2434 191.32V182.92H95.1234C94.8301 182.92 94.5901 182.827 94.4034 182.64C94.2168 182.453 94.1234 182.213 94.1234 181.92V179.2C94.1234 178.907 94.2168 178.667 94.4034 178.48C94.5901 178.293 94.8301 178.2 95.1234 178.2H98.2434V171.6C98.2434 171.307 98.3368 171.067 98.5234 170.88C98.7368 170.693 98.9768 170.6 99.2434 170.6H103.163C103.457 170.6 103.697 170.693 103.883 170.88C104.07 171.067 104.163 171.307 104.163 171.6V178.2H109.163C109.43 178.2 109.657 178.293 109.843 178.48C110.03 178.667 110.123 178.907 110.123 179.2V181.92C110.123 182.213 110.03 182.453 109.843 182.64C109.657 182.827 109.43 182.92 109.163 182.92H104.163V190.84C104.163 191.853 104.337 192.653 104.683 193.24C105.057 193.8 105.697 194.08 106.603 194.08H109.523C109.79 194.08 110.017 194.173 110.203 194.36C110.39 194.547 110.483 194.773 110.483 195.04V198C110.483 198.293 110.39 198.533 110.203 198.72C110.017 198.907 109.79 199 109.523 199H106.043ZM114.733 199C114.44 199 114.2 198.907 114.013 198.72C113.826 198.533 113.733 198.293 113.733 198V193.52C113.733 193.227 113.826 192.987 114.013 192.8C114.2 192.613 114.44 192.52 114.733 192.52H119.213C119.506 192.52 119.746 192.613 119.933 192.8C120.12 192.987 120.213 193.227 120.213 193.52V198C120.213 198.293 120.12 198.533 119.933 198.72C119.746 198.907 119.506 199 119.213 199H114.733Z" fill="#3F4E5A"/>
<g clip-path="url(#clip0_2685_481)">
<path d="M254.718 177.844H239.105C236.238 177.844 229.976 182.479 230.145 185.634H253.435C255.061 187.623 256.544 190.009 257.277 192.454H230.145C230.622 196.315 235.335 199.588 239.233 200.117C247.978 201.308 258.708 199.412 267.668 200.338C269.11 200.749 271.495 206.594 272.628 208.035H237.059C235.017 208.035 229.545 205.002 227.857 203.64C214.912 193.238 221.405 171.788 238.079 170.048C239.623 169.887 249.922 169.877 250.63 170.289C251.174 170.602 254.328 176.668 254.718 177.844Z" fill="#3F4E5A"/>
<path d="M294.642 170.053H304.366L282.101 208.025L259.836 170.053H269.305L282.101 191.469L294.642 170.053Z" fill="#3F4E5A"/>
<path d="M317.932 170.053L331.237 191.484L343.27 170.053H352.994L331.237 208.04L308.464 170.053H317.932Z" fill="#3F4E5A"/>
<path d="M368.794 169.204C386.078 166.945 398.665 183.878 390.51 198.631C382.76 212.643 360.87 212.374 353.284 198.317C351.843 195.647 350.35 191.737 351.566 188.846C352.586 186.416 359.921 173.79 361.516 172.016C362.762 170.63 366.865 169.454 368.794 169.199V169.204ZM362.957 197.636C373.815 207.964 391.418 193.844 382.227 181.982C378.97 177.783 370.353 174.642 365.875 178.596C365.311 179.096 359.387 189.238 359.295 189.875C359.013 191.825 361.485 196.23 362.957 197.631V197.636Z" fill="#FF9F45"/>
</g>
<defs>
<clipPath id="clip0_2685_481">
<rect width="172" height="40" fill="white" transform="translate(221 169)"/>
</clipPath>
</defs>
</svg>
