<svg width="420" height="230" viewBox="0 0 420 230" fill="none" xmlns="http://www.w3.org/2000/svg">
<rect x="2" y="2" width="416" height="226" rx="18" fill="#E5E9EF"/>
<rect x="2" y="2" width="416" height="226" rx="18" stroke="#FEC039" stroke-width="4"/>
<path d="M289.225 178.12C289.225 177.507 289.425 177.2 289.825 177.2C289.985 177.2 290.118 177.253 290.225 177.36C291.105 178.133 292.078 178.787 293.145 179.32C294.238 179.827 295.598 180.08 297.225 180.08C298.558 180.08 299.558 179.88 300.225 179.48C300.892 179.053 301.225 178.467 301.225 177.72C301.225 177.107 300.945 176.627 300.385 176.28C299.852 175.933 299.158 175.627 298.305 175.36C297.452 175.093 296.545 174.8 295.585 174.48C294.625 174.16 293.718 173.747 292.865 173.24C292.012 172.707 291.305 172.013 290.745 171.16C290.212 170.307 289.945 169.213 289.945 167.88C289.945 166.413 290.305 165.2 291.025 164.24C291.772 163.28 292.758 162.56 293.985 162.08C295.212 161.6 296.545 161.36 297.985 161.36C300.012 161.36 301.785 161.613 303.305 162.12C304.238 162.44 304.812 162.88 305.025 163.44C305.265 164 305.278 164.707 305.065 165.56L304.825 166.52C304.745 166.867 304.585 167.04 304.345 167.04C304.158 167.04 303.932 166.973 303.665 166.84C302.838 166.44 301.972 166.133 301.065 165.92C300.158 165.68 299.172 165.56 298.105 165.56C297.198 165.56 296.412 165.72 295.745 166.04C295.105 166.36 294.785 166.893 294.785 167.64C294.785 168.28 295.052 168.787 295.585 169.16C296.145 169.533 296.852 169.853 297.705 170.12C298.558 170.36 299.465 170.64 300.425 170.96C301.412 171.253 302.332 171.653 303.185 172.16C304.038 172.64 304.732 173.293 305.265 174.12C305.825 174.947 306.105 176.027 306.105 177.36C306.105 179.467 305.372 181.173 303.905 182.48C302.465 183.76 300.412 184.4 297.745 184.4C295.798 184.4 294.198 184.093 292.945 183.48C291.692 182.84 290.758 182.04 290.145 181.08C289.532 180.12 289.225 179.133 289.225 178.12ZM313.945 170.08C314.879 168.853 316.212 168.24 317.945 168.24C319.732 168.24 321.199 168.813 322.345 169.96C323.519 171.08 324.105 172.827 324.105 175.2V183.48C324.105 183.827 323.932 184 323.585 184H320.025C319.679 184 319.505 183.827 319.505 183.48V175.6C319.505 174.427 319.212 173.613 318.625 173.16C318.065 172.707 317.425 172.48 316.705 172.48C315.985 172.48 315.345 172.707 314.785 173.16C314.225 173.613 313.945 174.44 313.945 175.64V183.48C313.945 183.827 313.772 184 313.425 184H309.905C309.559 184 309.385 183.827 309.385 183.48V162.28C309.385 161.933 309.559 161.76 309.905 161.76H310.105C311.359 161.76 312.305 162.053 312.945 162.64C313.612 163.227 313.945 164.24 313.945 165.68V170.08ZM332.316 177.96C332.636 179.693 333.956 180.56 336.276 180.56C337.183 180.56 337.969 180.493 338.636 180.36C339.303 180.2 340.023 179.947 340.796 179.6C341.116 179.467 341.343 179.4 341.476 179.4C341.796 179.4 341.956 179.6 341.956 180C341.956 180.533 341.756 181.147 341.356 181.84C340.983 182.533 340.343 183.133 339.436 183.64C338.529 184.147 337.263 184.4 335.636 184.4C333.209 184.4 331.263 183.68 329.796 182.24C328.329 180.773 327.596 178.787 327.596 176.28C327.596 174.733 327.903 173.36 328.516 172.16C329.129 170.96 330.009 170.013 331.156 169.32C332.303 168.627 333.676 168.28 335.276 168.28C336.903 168.28 338.223 168.613 339.236 169.28C340.276 169.947 341.036 170.813 341.516 171.88C342.023 172.92 342.276 174.027 342.276 175.2C342.276 175.707 342.263 176.133 342.236 176.48C342.236 176.827 342.223 177.12 342.196 177.36C342.169 177.76 341.916 177.96 341.436 177.96H332.316ZM332.356 174.76H337.716C337.769 174.44 337.729 174.08 337.596 173.68C337.463 173.28 337.209 172.933 336.836 172.64C336.489 172.347 335.969 172.2 335.276 172.2C334.369 172.2 333.663 172.44 333.156 172.92C332.676 173.373 332.409 173.987 332.356 174.76ZM350.231 184.32C348.844 184.32 347.751 183.867 346.951 182.96C346.151 182.027 345.751 180.627 345.751 178.76V162.28C345.751 161.933 345.924 161.76 346.271 161.76H346.471C347.724 161.76 348.671 162.053 349.311 162.64C349.978 163.227 350.311 164.24 350.311 165.68V178.24C350.311 179.68 350.818 180.4 351.831 180.4C352.204 180.4 352.498 180.347 352.711 180.24C352.951 180.133 353.204 179.987 353.471 179.8C353.524 179.747 353.591 179.707 353.671 179.68C353.751 179.627 353.844 179.6 353.951 179.6C354.111 179.6 354.218 179.667 354.271 179.8C354.351 179.933 354.391 180.067 354.391 180.2C354.391 180.813 354.258 181.44 353.991 182.08C353.751 182.72 353.324 183.253 352.711 183.68C352.124 184.107 351.298 184.32 350.231 184.32ZM361.109 184.32C359.722 184.32 358.629 183.867 357.829 182.96C357.029 182.027 356.629 180.627 356.629 178.76V162.28C356.629 161.933 356.802 161.76 357.149 161.76H357.349C358.602 161.76 359.549 162.053 360.189 162.64C360.856 163.227 361.189 164.24 361.189 165.68V178.24C361.189 179.68 361.696 180.4 362.709 180.4C363.082 180.4 363.376 180.347 363.589 180.24C363.829 180.133 364.082 179.987 364.349 179.8C364.402 179.747 364.469 179.707 364.549 179.68C364.629 179.627 364.722 179.6 364.829 179.6C364.989 179.6 365.096 179.667 365.149 179.8C365.229 179.933 365.269 180.067 365.269 180.2C365.269 180.813 365.136 181.44 364.869 182.08C364.629 182.72 364.202 183.253 363.589 183.68C363.002 184.107 362.176 184.32 361.109 184.32ZM371.436 184.4L365.876 169.24C365.822 169.107 365.822 168.987 365.876 168.88C365.956 168.773 366.049 168.72 366.156 168.72H367.116C368.049 168.72 368.782 168.84 369.316 169.08C369.876 169.293 370.342 169.68 370.716 170.24C371.089 170.8 371.449 171.6 371.796 172.64L373.956 178.88L377.196 169.24C377.302 168.893 377.516 168.72 377.836 168.72H381.436C381.569 168.72 381.649 168.773 381.676 168.88C381.729 168.987 381.729 169.107 381.676 169.24L376.556 183.72C376.102 185.027 375.582 186.213 374.996 187.28C374.436 188.373 373.742 189.24 372.916 189.88C372.089 190.52 371.036 190.84 369.756 190.84C368.769 190.84 367.956 190.627 367.316 190.2C366.676 189.8 366.196 189.293 365.876 188.68C365.582 188.067 365.436 187.48 365.436 186.92C365.436 186.707 365.476 186.507 365.556 186.32C365.636 186.16 365.769 186.08 365.956 186.08C366.089 186.08 366.209 186.12 366.316 186.2C367.089 186.707 367.836 186.96 368.556 186.96C369.302 186.96 369.889 186.733 370.316 186.28C370.742 185.853 371.116 185.227 371.436 184.4Z" fill="#FEC039"/>
<path d="M43.12 92.084L34.416 77.908H40.24L46.928 89.364H43.184L49.872 77.908H55.568L46.8 92.084H43.12ZM42.512 100.5V89.78H47.536V100.5H42.512ZM60.6223 100.852C59.0223 100.852 57.5716 100.5 56.2703 99.796C54.9903 99.0707 53.9769 98.0893 53.2303 96.852C52.4836 95.6147 52.1103 94.228 52.1103 92.692C52.1103 91.156 52.4836 89.78 53.2303 88.564C53.9769 87.348 54.9903 86.388 56.2703 85.684C57.5503 84.9587 59.0009 84.596 60.6223 84.596C62.2436 84.596 63.6943 84.948 64.9743 85.652C66.2543 86.356 67.2676 87.3267 68.0143 88.564C68.7609 89.78 69.1343 91.156 69.1343 92.692C69.1343 94.228 68.7609 95.6147 68.0143 96.852C67.2676 98.0893 66.2543 99.0707 64.9743 99.796C63.6943 100.5 62.2436 100.852 60.6223 100.852ZM60.6223 96.404C61.3263 96.404 61.9449 96.2547 62.4783 95.956C63.0116 95.636 63.4169 95.1987 63.6943 94.644C63.9929 94.068 64.1423 93.4173 64.1423 92.692C64.1423 91.9667 63.9929 91.3373 63.6943 90.804C63.3956 90.2493 62.9796 89.8227 62.4463 89.524C61.9343 89.204 61.3263 89.044 60.6223 89.044C59.9396 89.044 59.3316 89.204 58.7983 89.524C58.2649 89.8227 57.8489 90.2493 57.5503 90.804C57.2516 91.3587 57.1023 91.9987 57.1023 92.724C57.1023 93.428 57.2516 94.068 57.5503 94.644C57.8489 95.1987 58.2649 95.636 58.7983 95.956C59.3316 96.2547 59.9396 96.404 60.6223 96.404ZM78.4838 100.852C77.0544 100.852 75.7851 100.564 74.6758 99.988C73.5878 99.3907 72.7344 98.58 72.1158 97.556C71.4971 96.5107 71.1878 95.316 71.1878 93.972V84.948H76.0838V93.908C76.0838 94.4413 76.1691 94.9 76.3398 95.284C76.5318 95.668 76.8091 95.9667 77.1718 96.18C77.5344 96.3933 77.9718 96.5 78.4838 96.5C79.2091 96.5 79.7851 96.276 80.2118 95.828C80.6384 95.3587 80.8518 94.7187 80.8518 93.908V84.948H85.7478V93.94C85.7478 95.3053 85.4384 96.5107 84.8198 97.556C84.2011 98.58 83.3478 99.3907 82.2598 99.988C81.1718 100.564 79.9131 100.852 78.4838 100.852ZM88.8218 100.5V84.948H93.7178V100.5H88.8218ZM93.7178 91.956L91.6698 90.356C92.0751 88.5427 92.7578 87.1347 93.7178 86.132C94.6778 85.1293 96.0111 84.628 97.7178 84.628C98.4644 84.628 99.1151 84.7453 99.6698 84.98C100.246 85.1933 100.747 85.5347 101.174 86.004L98.2618 89.684C98.0484 89.4493 97.7818 89.268 97.4618 89.14C97.1418 89.012 96.7791 88.948 96.3738 88.948C95.5631 88.948 94.9124 89.204 94.4218 89.716C93.9524 90.2067 93.7178 90.9533 93.7178 91.956ZM114.798 100.884C113.881 100.884 112.974 100.767 112.078 100.532C111.204 100.297 110.382 99.9667 109.614 99.54C108.868 99.092 108.228 98.58 107.694 98.004L110.478 95.188C110.99 95.7427 111.598 96.18 112.302 96.5C113.006 96.7987 113.774 96.948 114.606 96.948C115.182 96.948 115.62 96.8627 115.918 96.692C116.238 96.5213 116.398 96.2867 116.398 95.988C116.398 95.604 116.206 95.316 115.822 95.124C115.46 94.9107 114.99 94.7293 114.414 94.58C113.838 94.4093 113.23 94.228 112.59 94.036C111.95 93.844 111.342 93.5773 110.766 93.236C110.19 92.8947 109.721 92.4253 109.358 91.828C108.996 91.2093 108.814 90.4307 108.814 89.492C108.814 88.4893 109.07 87.6253 109.582 86.9C110.094 86.1533 110.82 85.5667 111.758 85.14C112.697 84.7133 113.796 84.5 115.054 84.5C116.377 84.5 117.593 84.7347 118.702 85.204C119.833 85.652 120.75 86.324 121.454 87.22L118.67 90.036C118.18 89.46 117.625 89.0547 117.006 88.82C116.409 88.5853 115.822 88.468 115.246 88.468C114.692 88.468 114.276 88.5533 113.998 88.724C113.721 88.8733 113.582 89.0973 113.582 89.396C113.582 89.716 113.764 89.972 114.126 90.164C114.489 90.356 114.958 90.5267 115.534 90.676C116.11 90.8253 116.718 91.0067 117.358 91.22C117.998 91.4333 118.606 91.7213 119.182 92.084C119.758 92.4467 120.228 92.9373 120.59 93.556C120.953 94.1533 121.134 94.9427 121.134 95.924C121.134 97.4387 120.558 98.644 119.406 99.54C118.276 100.436 116.74 100.884 114.798 100.884ZM125.999 100.5V78.516H130.895V100.5H125.999ZM122.479 89.108V84.948H134.415V89.108H122.479ZM136.572 100.5V84.948H141.468V100.5H136.572ZM141.468 91.956L139.42 90.356C139.825 88.5427 140.508 87.1347 141.468 86.132C142.428 85.1293 143.761 84.628 145.468 84.628C146.214 84.628 146.865 84.7453 147.42 84.98C147.996 85.1933 148.497 85.5347 148.924 86.004L146.012 89.684C145.798 89.4493 145.532 89.268 145.212 89.14C144.892 89.012 144.529 88.948 144.124 88.948C143.313 88.948 142.662 89.204 142.172 89.716C141.702 90.2067 141.468 90.9533 141.468 91.956ZM157.47 100.852C155.785 100.852 154.281 100.511 152.959 99.828C151.657 99.124 150.633 98.1533 149.887 96.916C149.14 95.6787 148.767 94.2813 148.767 92.724C148.767 91.1667 149.129 89.78 149.855 88.564C150.601 87.3267 151.604 86.356 152.863 85.652C154.121 84.948 155.54 84.596 157.119 84.596C158.655 84.596 160.009 84.9267 161.183 85.588C162.356 86.2493 163.273 87.1667 163.935 88.34C164.617 89.5133 164.958 90.8573 164.958 92.372C164.958 92.6493 164.937 92.948 164.895 93.268C164.873 93.5667 164.82 93.9187 164.735 94.324L151.327 94.356V90.996L162.655 90.964L160.543 92.372C160.521 91.476 160.383 90.74 160.127 90.164C159.871 89.5667 159.487 89.1187 158.975 88.82C158.484 88.5 157.876 88.34 157.151 88.34C156.383 88.34 155.711 88.5213 155.135 88.884C154.58 89.2253 154.143 89.716 153.823 90.356C153.524 90.996 153.375 91.7747 153.375 92.692C153.375 93.6093 153.535 94.3987 153.855 95.06C154.196 95.7 154.665 96.2013 155.263 96.564C155.881 96.9053 156.607 97.076 157.439 97.076C158.207 97.076 158.9 96.948 159.519 96.692C160.137 96.4147 160.681 96.0093 161.151 95.476L163.839 98.164C163.071 99.06 162.143 99.732 161.055 100.18C159.967 100.628 158.772 100.852 157.47 100.852ZM173.818 100.82C172.388 100.82 171.108 100.468 169.978 99.764C168.868 99.06 167.983 98.1 167.322 96.884C166.682 95.668 166.362 94.2813 166.362 92.724C166.362 91.1667 166.682 89.78 167.322 88.564C167.983 87.348 168.868 86.388 169.978 85.684C171.108 84.98 172.388 84.628 173.818 84.628C174.863 84.628 175.802 84.8307 176.634 85.236C177.487 85.6413 178.18 86.2067 178.714 86.932C179.247 87.636 179.546 88.4467 179.61 89.364V96.084C179.546 97.0013 179.247 97.8227 178.714 98.548C178.202 99.252 177.519 99.8067 176.666 100.212C175.812 100.617 174.863 100.82 173.818 100.82ZM174.81 96.404C175.855 96.404 176.698 96.0627 177.338 95.38C177.978 94.676 178.298 93.7907 178.298 92.724C178.298 91.9987 178.148 91.3587 177.85 90.804C177.572 90.2493 177.167 89.8227 176.634 89.524C176.122 89.204 175.524 89.044 174.842 89.044C174.159 89.044 173.551 89.204 173.018 89.524C172.506 89.8227 172.09 90.2493 171.77 90.804C171.471 91.3587 171.322 91.9987 171.322 92.724C171.322 93.428 171.471 94.0573 171.77 94.612C172.068 95.1667 172.484 95.604 173.018 95.924C173.551 96.244 174.148 96.404 174.81 96.404ZM178.106 100.5V96.308L178.842 92.532L178.106 88.756V84.948H182.906V100.5H178.106ZM196.305 100.5L190.865 92.436L196.273 84.948H201.745L195.217 93.364L195.377 91.348L202.065 100.5H196.305ZM186.353 100.5V77.268H191.249V100.5H186.353ZM218.876 100.82C217.83 100.82 216.87 100.607 215.996 100.18C215.121 99.732 214.406 99.1453 213.852 98.42C213.297 97.6733 212.977 96.8413 212.891 95.924V89.364C212.977 88.4467 213.297 87.636 213.852 86.932C214.406 86.2067 215.121 85.6413 215.996 85.236C216.87 84.8307 217.83 84.628 218.876 84.628C220.348 84.628 221.649 84.98 222.78 85.684C223.932 86.388 224.828 87.348 225.468 88.564C226.129 89.78 226.46 91.1667 226.46 92.724C226.46 94.2813 226.129 95.668 225.468 96.884C224.828 98.1 223.932 99.06 222.78 99.764C221.649 100.468 220.348 100.82 218.876 100.82ZM209.916 100.5V77.268H214.812V88.756L214.012 92.532L214.748 96.308V100.5H209.916ZM218.012 96.404C218.694 96.404 219.292 96.244 219.804 95.924C220.337 95.604 220.753 95.1667 221.052 94.612C221.35 94.0573 221.5 93.428 221.5 92.724C221.5 91.9987 221.35 91.3587 221.052 90.804C220.753 90.2493 220.337 89.8227 219.804 89.524C219.292 89.204 218.694 89.044 218.012 89.044C217.329 89.044 216.721 89.204 216.188 89.524C215.654 89.8227 215.238 90.2493 214.94 90.804C214.662 91.3587 214.524 91.9987 214.524 92.724C214.524 93.4493 214.673 94.0893 214.972 94.644C215.27 95.1987 215.676 95.636 216.188 95.956C216.721 96.2547 217.329 96.404 218.012 96.404ZM228.947 100.5V84.948H233.843V100.5H228.947ZM233.843 91.956L231.795 90.356C232.2 88.5427 232.883 87.1347 233.843 86.132C234.803 85.1293 236.136 84.628 237.843 84.628C238.589 84.628 239.24 84.7453 239.795 84.98C240.371 85.1933 240.872 85.5347 241.299 86.004L238.387 89.684C238.173 89.4493 237.907 89.268 237.587 89.14C237.267 89.012 236.904 88.948 236.499 88.948C235.688 88.948 235.037 89.204 234.547 89.716C234.077 90.2067 233.843 90.9533 233.843 91.956ZM249.654 100.852C248.054 100.852 246.603 100.5 245.302 99.796C244.022 99.0707 243.008 98.0893 242.262 96.852C241.515 95.6147 241.142 94.228 241.142 92.692C241.142 91.156 241.515 89.78 242.262 88.564C243.008 87.348 244.022 86.388 245.302 85.684C246.582 84.9587 248.032 84.596 249.654 84.596C251.275 84.596 252.726 84.948 254.006 85.652C255.286 86.356 256.299 87.3267 257.046 88.564C257.792 89.78 258.166 91.156 258.166 92.692C258.166 94.228 257.792 95.6147 257.046 96.852C256.299 98.0893 255.286 99.0707 254.006 99.796C252.726 100.5 251.275 100.852 249.654 100.852ZM249.654 96.404C250.358 96.404 250.976 96.2547 251.51 95.956C252.043 95.636 252.448 95.1987 252.726 94.644C253.024 94.068 253.174 93.4173 253.174 92.692C253.174 91.9667 253.024 91.3373 252.726 90.804C252.427 90.2493 252.011 89.8227 251.478 89.524C250.966 89.204 250.358 89.044 249.654 89.044C248.971 89.044 248.363 89.204 247.83 89.524C247.296 89.8227 246.88 90.2493 246.582 90.804C246.283 91.3587 246.134 91.9987 246.134 92.724C246.134 93.428 246.283 94.068 246.582 94.644C246.88 95.1987 247.296 95.636 247.83 95.956C248.363 96.2547 248.971 96.404 249.654 96.404ZM270.555 100.5L265.115 92.436L270.523 84.948H275.995L269.467 93.364L269.627 91.348L276.315 100.5H270.555ZM260.603 100.5V77.268H265.499V100.5H260.603ZM285.064 100.852C283.379 100.852 281.875 100.511 280.552 99.828C279.251 99.124 278.227 98.1533 277.48 96.916C276.734 95.6787 276.36 94.2813 276.36 92.724C276.36 91.1667 276.723 89.78 277.448 88.564C278.195 87.3267 279.198 86.356 280.456 85.652C281.715 84.948 283.134 84.596 284.712 84.596C286.248 84.596 287.603 84.9267 288.776 85.588C289.95 86.2493 290.867 87.1667 291.528 88.34C292.211 89.5133 292.552 90.8573 292.552 92.372C292.552 92.6493 292.531 92.948 292.488 93.268C292.467 93.5667 292.414 93.9187 292.328 94.324L278.92 94.356V90.996L290.248 90.964L288.136 92.372C288.115 91.476 287.976 90.74 287.72 90.164C287.464 89.5667 287.08 89.1187 286.568 88.82C286.078 88.5 285.47 88.34 284.744 88.34C283.976 88.34 283.304 88.5213 282.728 88.884C282.174 89.2253 281.736 89.716 281.416 90.356C281.118 90.996 280.968 91.7747 280.968 92.692C280.968 93.6093 281.128 94.3987 281.448 95.06C281.79 95.7 282.259 96.2013 282.856 96.564C283.475 96.9053 284.2 97.076 285.032 97.076C285.8 97.076 286.494 96.948 287.112 96.692C287.731 96.4147 288.275 96.0093 288.744 95.476L291.432 98.164C290.664 99.06 289.736 99.732 288.648 100.18C287.56 100.628 286.366 100.852 285.064 100.852ZM297.988 100.852C297.156 100.852 296.462 100.564 295.908 99.988C295.353 99.412 295.076 98.7187 295.076 97.908C295.076 97.0547 295.353 96.3507 295.908 95.796C296.462 95.22 297.156 94.932 297.988 94.932C298.841 94.932 299.534 95.22 300.068 95.796C300.622 96.3507 300.9 97.0547 300.9 97.908C300.9 98.7187 300.622 99.412 300.068 99.988C299.534 100.564 298.841 100.852 297.988 100.852ZM42.96 140.852C41.104 140.852 39.504 140.553 38.16 139.956C36.8373 139.337 35.6213 138.409 34.512 137.172L37.776 133.94C38.5013 134.772 39.3013 135.423 40.176 135.892C41.072 136.34 42.1067 136.564 43.28 136.564C44.3467 136.564 45.168 136.372 45.744 135.988C46.3413 135.604 46.64 135.071 46.64 134.388C46.64 133.769 46.448 133.268 46.064 132.884C45.68 132.5 45.168 132.169 44.528 131.892C43.9093 131.615 43.216 131.348 42.448 131.092C41.7013 130.836 40.9547 130.548 40.208 130.228C39.4613 129.887 38.768 129.471 38.128 128.98C37.5093 128.468 37.008 127.839 36.624 127.092C36.24 126.324 36.048 125.364 36.048 124.212C36.048 122.825 36.3787 121.631 37.04 120.628C37.7227 119.625 38.6613 118.868 39.856 118.356C41.0507 117.823 42.4267 117.556 43.984 117.556C45.5627 117.556 47.0027 117.833 48.304 118.388C49.6267 118.943 50.7147 119.7 51.568 120.66L48.304 123.892C47.6213 123.188 46.928 122.665 46.224 122.324C45.5413 121.983 44.7627 121.812 43.888 121.812C43.0133 121.812 42.32 121.983 41.808 122.324C41.296 122.644 41.04 123.113 41.04 123.732C41.04 124.308 41.232 124.777 41.616 125.14C42 125.481 42.5013 125.78 43.12 126.036C43.76 126.292 44.4533 126.548 45.2 126.804C45.968 127.06 46.7253 127.359 47.472 127.7C48.2187 128.041 48.9013 128.479 49.52 129.012C50.16 129.524 50.672 130.185 51.056 130.996C51.44 131.785 51.632 132.767 51.632 133.94C51.632 136.095 50.864 137.791 49.328 139.028C47.792 140.244 45.6693 140.852 42.96 140.852ZM61.7785 140.852C60.1785 140.852 58.7278 140.5 57.4265 139.796C56.1465 139.071 55.1332 138.089 54.3865 136.852C53.6398 135.615 53.2665 134.228 53.2665 132.692C53.2665 131.156 53.6398 129.78 54.3865 128.564C55.1332 127.348 56.1465 126.388 57.4265 125.684C58.7065 124.959 60.1572 124.596 61.7785 124.596C63.3998 124.596 64.8505 124.948 66.1305 125.652C67.4105 126.356 68.4238 127.327 69.1705 128.564C69.9172 129.78 70.2905 131.156 70.2905 132.692C70.2905 134.228 69.9172 135.615 69.1705 136.852C68.4238 138.089 67.4105 139.071 66.1305 139.796C64.8505 140.5 63.3998 140.852 61.7785 140.852ZM61.7785 136.404C62.4825 136.404 63.1012 136.255 63.6345 135.956C64.1678 135.636 64.5732 135.199 64.8505 134.644C65.1492 134.068 65.2985 133.417 65.2985 132.692C65.2985 131.967 65.1492 131.337 64.8505 130.804C64.5518 130.249 64.1358 129.823 63.6025 129.524C63.0905 129.204 62.4825 129.044 61.7785 129.044C61.0958 129.044 60.4878 129.204 59.9545 129.524C59.4212 129.823 59.0052 130.249 58.7065 130.804C58.4078 131.359 58.2585 131.999 58.2585 132.724C58.2585 133.428 58.4078 134.068 58.7065 134.644C59.0052 135.199 59.4212 135.636 59.9545 135.956C60.4878 136.255 61.0958 136.404 61.7785 136.404ZM89.0938 140.5V131.636C89.0938 130.825 88.8378 130.175 88.3258 129.684C87.8351 129.172 87.2058 128.916 86.4378 128.916C85.9044 128.916 85.4351 129.033 85.0298 129.268C84.6244 129.481 84.3044 129.801 84.0698 130.228C83.8351 130.633 83.7178 131.103 83.7178 131.636L81.8298 130.708C81.8298 129.492 82.0964 128.425 82.6298 127.508C83.1631 126.591 83.8991 125.887 84.8378 125.396C85.7978 124.884 86.8751 124.628 88.0698 124.628C89.2218 124.628 90.2351 124.905 91.1098 125.46C92.0058 125.993 92.7098 126.708 93.2218 127.604C93.7338 128.5 93.9897 129.481 93.9897 130.548V140.5H89.0938ZM78.8218 140.5V124.948H83.7178V140.5H78.8218ZM104.622 140.852C103.022 140.852 101.572 140.5 100.27 139.796C98.9903 139.071 97.9769 138.089 97.2303 136.852C96.4836 135.615 96.1103 134.228 96.1103 132.692C96.1103 131.156 96.4836 129.78 97.2303 128.564C97.9769 127.348 98.9903 126.388 100.27 125.684C101.55 124.959 103.001 124.596 104.622 124.596C106.244 124.596 107.694 124.948 108.974 125.652C110.254 126.356 111.268 127.327 112.014 128.564C112.761 129.78 113.134 131.156 113.134 132.692C113.134 134.228 112.761 135.615 112.014 136.852C111.268 138.089 110.254 139.071 108.974 139.796C107.694 140.5 106.244 140.852 104.622 140.852ZM104.622 136.404C105.326 136.404 105.945 136.255 106.478 135.956C107.012 135.636 107.417 135.199 107.694 134.644C107.993 134.068 108.142 133.417 108.142 132.692C108.142 131.967 107.993 131.337 107.694 130.804C107.396 130.249 106.98 129.823 106.446 129.524C105.934 129.204 105.326 129.044 104.622 129.044C103.94 129.044 103.332 129.204 102.798 129.524C102.265 129.823 101.849 130.249 101.55 130.804C101.252 131.359 101.102 131.999 101.102 132.724C101.102 133.428 101.252 134.068 101.55 134.644C101.849 135.199 102.265 135.636 102.798 135.956C103.332 136.255 103.94 136.404 104.622 136.404ZM119.067 140.5L113.691 124.948H118.491L121.819 136.244L120.411 136.276L124.091 124.948H128.059L131.771 136.276L130.331 136.244L133.691 124.948H138.491L133.115 140.5H129.115L125.499 129.748H126.715L123.035 140.5H119.067ZM151.278 140.564L144.878 124.948H150.158L154.222 137.332H152.27L156.43 124.948H161.71L155.054 140.564H151.278ZM147.278 147.06L151.95 136.98L155.054 140.564L152.302 147.06H147.278ZM170.466 140.852C168.866 140.852 167.415 140.5 166.114 139.796C164.834 139.071 163.821 138.089 163.074 136.852C162.327 135.615 161.954 134.228 161.954 132.692C161.954 131.156 162.327 129.78 163.074 128.564C163.821 127.348 164.834 126.388 166.114 125.684C167.394 124.959 168.845 124.596 170.466 124.596C172.087 124.596 173.538 124.948 174.818 125.652C176.098 126.356 177.111 127.327 177.858 128.564C178.605 129.78 178.978 131.156 178.978 132.692C178.978 134.228 178.605 135.615 177.858 136.852C177.111 138.089 176.098 139.071 174.818 139.796C173.538 140.5 172.087 140.852 170.466 140.852ZM170.466 136.404C171.17 136.404 171.789 136.255 172.322 135.956C172.855 135.636 173.261 135.199 173.538 134.644C173.837 134.068 173.986 133.417 173.986 132.692C173.986 131.967 173.837 131.337 173.538 130.804C173.239 130.249 172.823 129.823 172.29 129.524C171.778 129.204 171.17 129.044 170.466 129.044C169.783 129.044 169.175 129.204 168.642 129.524C168.109 129.823 167.693 130.249 167.394 130.804C167.095 131.359 166.946 131.999 166.946 132.724C166.946 133.428 167.095 134.068 167.394 134.644C167.693 135.199 168.109 135.636 168.642 135.956C169.175 136.255 169.783 136.404 170.466 136.404ZM188.328 140.852C186.898 140.852 185.629 140.564 184.52 139.988C183.432 139.391 182.578 138.58 181.96 137.556C181.341 136.511 181.032 135.316 181.032 133.972V124.948H185.928V133.908C185.928 134.441 186.013 134.9 186.184 135.284C186.376 135.668 186.653 135.967 187.016 136.18C187.378 136.393 187.816 136.5 188.328 136.5C189.053 136.5 189.629 136.276 190.056 135.828C190.482 135.359 190.696 134.719 190.696 133.908V124.948H195.592V133.94C195.592 135.305 195.282 136.511 194.664 137.556C194.045 138.58 193.192 139.391 192.104 139.988C191.016 140.564 189.757 140.852 188.328 140.852ZM206.743 140.5V123.604C206.743 122.345 207.021 121.215 207.575 120.212C208.151 119.188 208.951 118.388 209.975 117.812C210.999 117.215 212.215 116.916 213.623 116.916C214.69 116.916 215.618 117.097 216.407 117.46C217.218 117.801 217.922 118.281 218.519 118.9L215.447 121.972C215.234 121.759 214.989 121.599 214.711 121.492C214.455 121.364 214.146 121.3 213.783 121.3C213.122 121.3 212.599 121.492 212.215 121.876C211.831 122.26 211.639 122.783 211.639 123.444V140.5H206.743ZM203.319 129.108V124.948H216.119V129.108H203.319ZM225.689 140.852C224.004 140.852 222.5 140.511 221.177 139.828C219.876 139.124 218.852 138.153 218.105 136.916C217.359 135.679 216.985 134.281 216.985 132.724C216.985 131.167 217.348 129.78 218.073 128.564C218.82 127.327 219.823 126.356 221.081 125.652C222.34 124.948 223.759 124.596 225.337 124.596C226.873 124.596 228.228 124.927 229.401 125.588C230.575 126.249 231.492 127.167 232.153 128.34C232.836 129.513 233.177 130.857 233.177 132.372C233.177 132.649 233.156 132.948 233.113 133.268C233.092 133.567 233.039 133.919 232.953 134.324L219.545 134.356V130.996L230.873 130.964L228.761 132.372C228.74 131.476 228.601 130.74 228.345 130.164C228.089 129.567 227.705 129.119 227.193 128.82C226.703 128.5 226.095 128.34 225.369 128.34C224.601 128.34 223.929 128.521 223.353 128.884C222.799 129.225 222.361 129.716 222.041 130.356C221.743 130.996 221.593 131.775 221.593 132.692C221.593 133.609 221.753 134.399 222.073 135.06C222.415 135.7 222.884 136.201 223.481 136.564C224.1 136.905 224.825 137.076 225.657 137.076C226.425 137.076 227.119 136.948 227.737 136.692C228.356 136.415 228.9 136.009 229.369 135.476L232.057 138.164C231.289 139.06 230.361 139.732 229.273 140.18C228.185 140.628 226.991 140.852 225.689 140.852ZM243.22 140.852C241.535 140.852 240.031 140.511 238.709 139.828C237.407 139.124 236.383 138.153 235.637 136.916C234.89 135.679 234.517 134.281 234.517 132.724C234.517 131.167 234.879 129.78 235.605 128.564C236.351 127.327 237.354 126.356 238.613 125.652C239.871 124.948 241.29 124.596 242.869 124.596C244.405 124.596 245.759 124.927 246.933 125.588C248.106 126.249 249.023 127.167 249.685 128.34C250.367 129.513 250.708 130.857 250.708 132.372C250.708 132.649 250.687 132.948 250.645 133.268C250.623 133.567 250.57 133.919 250.485 134.324L237.077 134.356V130.996L248.405 130.964L246.293 132.372C246.271 131.476 246.133 130.74 245.877 130.164C245.621 129.567 245.237 129.119 244.725 128.82C244.234 128.5 243.626 128.34 242.901 128.34C242.133 128.34 241.461 128.521 240.885 128.884C240.33 129.225 239.893 129.716 239.573 130.356C239.274 130.996 239.125 131.775 239.125 132.692C239.125 133.609 239.285 134.399 239.605 135.06C239.946 135.7 240.415 136.201 241.013 136.564C241.631 136.905 242.357 137.076 243.189 137.076C243.957 137.076 244.65 136.948 245.269 136.692C245.887 136.415 246.431 136.009 246.901 135.476L249.589 138.164C248.821 139.06 247.893 139.732 246.805 140.18C245.717 140.628 244.522 140.852 243.22 140.852ZM253.072 140.5V117.268H257.968V140.5H253.072ZM267.509 140.5V117.268H272.405V140.5H267.509ZM275.853 140.5V124.948H280.749V140.5H275.853ZM278.317 122.804C277.549 122.804 276.909 122.548 276.397 122.036C275.906 121.503 275.661 120.863 275.661 120.116C275.661 119.348 275.906 118.708 276.397 118.196C276.909 117.684 277.549 117.428 278.317 117.428C279.085 117.428 279.714 117.684 280.205 118.196C280.696 118.708 280.941 119.348 280.941 120.116C280.941 120.863 280.696 121.503 280.205 122.036C279.714 122.548 279.085 122.804 278.317 122.804ZM294.149 140.5L288.709 132.436L294.117 124.948H299.589L293.061 133.364L293.221 131.348L299.909 140.5H294.149ZM284.197 140.5V117.268H289.093V140.5H284.197ZM308.658 140.852C306.973 140.852 305.469 140.511 304.146 139.828C302.845 139.124 301.821 138.153 301.074 136.916C300.327 135.679 299.954 134.281 299.954 132.724C299.954 131.167 300.317 129.78 301.042 128.564C301.789 127.327 302.791 126.356 304.05 125.652C305.309 124.948 306.727 124.596 308.306 124.596C309.842 124.596 311.197 124.927 312.37 125.588C313.543 126.249 314.461 127.167 315.122 128.34C315.805 129.513 316.146 130.857 316.146 132.372C316.146 132.649 316.125 132.948 316.082 133.268C316.061 133.567 316.007 133.919 315.922 134.324L302.514 134.356V130.996L313.842 130.964L311.73 132.372C311.709 131.476 311.57 130.74 311.314 130.164C311.058 129.567 310.674 129.119 310.162 128.82C309.671 128.5 309.063 128.34 308.338 128.34C307.57 128.34 306.898 128.521 306.322 128.884C305.767 129.225 305.33 129.716 305.01 130.356C304.711 130.996 304.562 131.775 304.562 132.692C304.562 133.609 304.722 134.399 305.042 135.06C305.383 135.7 305.853 136.201 306.45 136.564C307.069 136.905 307.794 137.076 308.626 137.076C309.394 137.076 310.087 136.948 310.706 136.692C311.325 136.415 311.869 136.009 312.338 135.476L315.026 138.164C314.258 139.06 313.33 139.732 312.242 140.18C311.154 140.628 309.959 140.852 308.658 140.852ZM330.267 140.884C329.35 140.884 328.443 140.767 327.547 140.532C326.672 140.297 325.851 139.967 325.083 139.54C324.336 139.092 323.696 138.58 323.163 138.004L325.947 135.188C326.459 135.743 327.067 136.18 327.771 136.5C328.475 136.799 329.243 136.948 330.075 136.948C330.651 136.948 331.088 136.863 331.387 136.692C331.707 136.521 331.867 136.287 331.867 135.988C331.867 135.604 331.675 135.316 331.291 135.124C330.928 134.911 330.459 134.729 329.883 134.58C329.307 134.409 328.699 134.228 328.059 134.036C327.419 133.844 326.811 133.577 326.235 133.236C325.659 132.895 325.19 132.425 324.827 131.828C324.464 131.209 324.283 130.431 324.283 129.492C324.283 128.489 324.539 127.625 325.051 126.9C325.563 126.153 326.288 125.567 327.227 125.14C328.166 124.713 329.264 124.5 330.523 124.5C331.846 124.5 333.062 124.735 334.171 125.204C335.302 125.652 336.219 126.324 336.923 127.22L334.139 130.036C333.648 129.46 333.094 129.055 332.475 128.82C331.878 128.585 331.291 128.468 330.715 128.468C330.16 128.468 329.744 128.553 329.467 128.724C329.19 128.873 329.051 129.097 329.051 129.396C329.051 129.716 329.232 129.972 329.595 130.164C329.958 130.356 330.427 130.527 331.003 130.676C331.579 130.825 332.187 131.007 332.827 131.22C333.467 131.433 334.075 131.721 334.651 132.084C335.227 132.447 335.696 132.937 336.059 133.556C336.422 134.153 336.603 134.943 336.603 135.924C336.603 137.439 336.027 138.644 334.875 139.54C333.744 140.436 332.208 140.884 330.267 140.884ZM349.531 140.5V131.636C349.531 130.825 349.275 130.175 348.763 129.684C348.273 129.172 347.643 128.916 346.875 128.916C346.342 128.916 345.873 129.033 345.467 129.268C345.062 129.481 344.742 129.801 344.507 130.228C344.273 130.633 344.155 131.103 344.155 131.636L342.267 130.708C342.267 129.492 342.523 128.425 343.035 127.508C343.547 126.591 344.262 125.887 345.179 125.396C346.097 124.884 347.153 124.628 348.347 124.628C349.563 124.628 350.63 124.884 351.547 125.396C352.465 125.887 353.169 126.58 353.659 127.476C354.171 128.351 354.427 129.375 354.427 130.548V140.5H349.531ZM339.259 140.5V117.268H344.155V140.5H339.259ZM357.572 140.5V124.948H362.468V140.5H357.572ZM360.036 122.804C359.268 122.804 358.628 122.548 358.116 122.036C357.625 121.503 357.38 120.863 357.38 120.116C357.38 119.348 357.625 118.708 358.116 118.196C358.628 117.684 359.268 117.428 360.036 117.428C360.804 117.428 361.433 117.684 361.924 118.196C362.414 118.708 362.66 119.348 362.66 120.116C362.66 120.863 362.414 121.503 361.924 122.036C361.433 122.548 360.804 122.804 360.036 122.804ZM368.124 140.5V118.516H373.02V140.5H368.124ZM364.604 129.108V124.948H376.54V129.108H364.604ZM380.675 140.852C379.843 140.852 379.15 140.564 378.595 139.988C378.04 139.412 377.763 138.719 377.763 137.908C377.763 137.055 378.04 136.351 378.595 135.796C379.15 135.22 379.843 134.932 380.675 134.932C381.528 134.932 382.222 135.22 382.755 135.796C383.31 136.351 383.587 137.055 383.587 137.908C383.587 138.719 383.31 139.412 382.755 139.988C382.222 140.564 381.528 140.852 380.675 140.852Z" fill="#3F4E5A"/>
</svg>
