<svg width="420" height="230" viewBox="0 0 420 230" fill="none" xmlns="http://www.w3.org/2000/svg">
<rect x="2" y="2" width="416" height="226" rx="18" fill="#507280"/>
<rect x="2" y="2" width="416" height="226" rx="18" stroke="#F5F8FB" stroke-width="4"/>
<path d="M146 97H156.503V88.7711H165.024V76.5282H180.68V97H189.003V68.7007L197.128 58.2641L206.046 68.7007V97H218.729V51.2394H225.07M225.07 51.2394V40M225.07 51.2394H232.601V97H243.896V66.2923H257.372V97H276" stroke="#F5F8FB" stroke-width="4"/>
<path d="M155.032 131.16C153.219 131.16 151.683 130.851 150.424 130.232C149.187 129.613 148.184 128.771 147.416 127.704C146.669 126.637 146.115 125.421 145.752 124.056C145.411 122.691 145.24 121.272 145.24 119.8V108.28H148.824V119.8C148.824 120.845 148.931 121.859 149.144 122.84C149.357 123.8 149.699 124.664 150.168 125.432C150.637 126.2 151.267 126.808 152.056 127.256C152.867 127.704 153.859 127.928 155.032 127.928C156.227 127.928 157.219 127.704 158.008 127.256C158.819 126.787 159.448 126.168 159.896 125.4C160.365 124.611 160.707 123.736 160.92 122.776C161.133 121.816 161.24 120.824 161.24 119.8V108.28H164.856V119.8C164.856 121.357 164.664 122.829 164.28 124.216C163.917 125.581 163.341 126.787 162.552 127.832C161.784 128.856 160.781 129.667 159.544 130.264C158.307 130.861 156.803 131.16 155.032 131.16ZM171.862 131V108.28H181.751C182.775 108.28 183.713 108.493 184.567 108.92C185.42 109.347 186.156 109.912 186.774 110.616C187.415 111.32 187.905 112.109 188.247 112.984C188.609 113.859 188.791 114.755 188.791 115.672C188.791 116.675 188.609 117.635 188.247 118.552C187.884 119.469 187.361 120.259 186.679 120.92C186.017 121.581 185.239 122.061 184.343 122.36L189.687 131H185.655L180.727 123.096H175.446V131H171.862ZM175.446 119.928H181.719C182.38 119.928 182.967 119.736 183.479 119.352C183.991 118.968 184.396 118.456 184.695 117.816C184.993 117.155 185.143 116.44 185.143 115.672C185.143 114.883 184.972 114.179 184.631 113.56C184.289 112.92 183.841 112.408 183.286 112.024C182.753 111.64 182.167 111.448 181.527 111.448H175.446V119.928ZM213.115 125.144C213.115 126.36 212.795 127.405 212.155 128.28C211.536 129.155 210.693 129.827 209.627 130.296C208.56 130.765 207.387 131 206.107 131H195.259V108.28H206.971C208.037 108.28 208.955 108.568 209.723 109.144C210.512 109.699 211.109 110.424 211.515 111.32C211.941 112.195 212.155 113.112 212.155 114.072C212.155 115.181 211.867 116.227 211.291 117.208C210.736 118.168 209.936 118.883 208.891 119.352C210.192 119.736 211.216 120.44 211.963 121.464C212.731 122.467 213.115 123.693 213.115 125.144ZM209.435 124.472C209.435 123.832 209.296 123.256 209.019 122.744C208.763 122.211 208.4 121.784 207.931 121.464C207.483 121.123 206.949 120.952 206.331 120.952H198.843V127.896H206.107C206.747 127.896 207.312 127.747 207.803 127.448C208.315 127.128 208.709 126.712 208.987 126.2C209.285 125.667 209.435 125.091 209.435 124.472ZM198.843 111.384V118.072H205.435C206.032 118.072 206.565 117.933 207.035 117.656C207.504 117.357 207.877 116.963 208.155 116.472C208.432 115.96 208.571 115.384 208.571 114.744C208.571 114.083 208.443 113.507 208.187 113.016C207.931 112.504 207.579 112.109 207.131 111.832C206.704 111.533 206.203 111.384 205.627 111.384H198.843ZM219.093 131V108.28H222.677V131H219.093ZM239.491 131.16C237.849 131.16 236.366 130.84 235.043 130.2C233.721 129.539 232.579 128.664 231.619 127.576C230.659 126.488 229.913 125.261 229.379 123.896C228.867 122.509 228.611 121.091 228.611 119.64C228.611 118.125 228.889 116.685 229.443 115.32C229.998 113.933 230.766 112.707 231.747 111.64C232.729 110.552 233.881 109.699 235.203 109.08C236.547 108.44 237.998 108.12 239.555 108.12C241.177 108.12 242.649 108.451 243.971 109.112C245.315 109.773 246.457 110.659 247.395 111.768C248.355 112.877 249.091 114.115 249.603 115.48C250.137 116.845 250.403 118.243 250.403 119.672C250.403 121.187 250.126 122.637 249.571 124.024C249.038 125.389 248.281 126.616 247.299 127.704C246.318 128.771 245.155 129.613 243.811 130.232C242.489 130.851 241.049 131.16 239.491 131.16ZM239.523 127.928C240.675 127.928 241.699 127.693 242.595 127.224C243.491 126.755 244.238 126.125 244.835 125.336C245.454 124.525 245.923 123.629 246.243 122.648C246.563 121.645 246.723 120.643 246.723 119.64C246.723 118.573 246.553 117.539 246.211 116.536C245.891 115.533 245.411 114.648 244.771 113.88C244.131 113.112 243.363 112.504 242.467 112.056C241.593 111.587 240.611 111.352 239.523 111.352C238.371 111.352 237.347 111.587 236.451 112.056C235.555 112.525 234.798 113.165 234.179 113.976C233.561 114.765 233.081 115.651 232.739 116.632C232.419 117.613 232.259 118.616 232.259 119.64C232.259 120.707 232.43 121.741 232.771 122.744C233.113 123.747 233.593 124.632 234.211 125.4C234.851 126.168 235.619 126.787 236.515 127.256C237.411 127.704 238.414 127.928 239.523 127.928ZM239.971 123.096H243.427L250.339 131H246.883L239.971 123.096ZM265.731 131.16C264.089 131.16 262.606 130.84 261.283 130.2C259.961 129.56 258.819 128.696 257.859 127.608C256.899 126.499 256.153 125.261 255.619 123.896C255.107 122.509 254.851 121.091 254.851 119.64C254.851 118.125 255.129 116.685 255.683 115.32C256.238 113.933 257.006 112.707 257.987 111.64C258.969 110.552 260.121 109.699 261.443 109.08C262.787 108.44 264.238 108.12 265.795 108.12C267.417 108.12 268.889 108.451 270.211 109.112C271.555 109.773 272.697 110.659 273.635 111.768C274.595 112.877 275.331 114.115 275.843 115.48C276.377 116.845 276.643 118.243 276.643 119.672C276.643 121.187 276.366 122.637 275.811 124.024C275.278 125.389 274.521 126.616 273.539 127.704C272.558 128.771 271.395 129.613 270.051 130.232C268.729 130.851 267.289 131.16 265.731 131.16ZM258.499 119.64C258.499 120.707 258.67 121.741 259.011 122.744C259.353 123.747 259.833 124.643 260.451 125.432C261.091 126.2 261.859 126.808 262.755 127.256C263.651 127.704 264.654 127.928 265.763 127.928C266.915 127.928 267.939 127.693 268.835 127.224C269.731 126.755 270.478 126.125 271.075 125.336C271.694 124.525 272.163 123.629 272.483 122.648C272.803 121.645 272.963 120.643 272.963 119.64C272.963 118.573 272.793 117.549 272.451 116.568C272.131 115.565 271.651 114.68 271.011 113.912C270.371 113.123 269.603 112.504 268.707 112.056C267.833 111.608 266.851 111.384 265.763 111.384C264.611 111.384 263.587 111.619 262.691 112.088C261.795 112.557 261.038 113.187 260.419 113.976C259.801 114.765 259.321 115.651 258.979 116.632C258.659 117.613 258.499 118.616 258.499 119.64Z" fill="#F5F8FB"/>
<path d="M54.752 163.136H43.84V167.616H52.544V171.872H43.84V180H38.336V158.88H54.752V163.136ZM63.4338 158.88V180H57.9298V158.88H63.4338ZM86.7413 180H80.1813L76.2133 173.248L72.3733 180H66.1333L73.3013 169.376L66.5493 158.88H73.0453L76.6613 165.344L80.3093 158.88H86.2933L79.5413 169.216L86.7413 180ZM94.84 158.88V180H89.336V158.88H94.84ZM118.564 158.88V180H112.452L105.892 168.576L104.292 165.44H104.26L104.388 169.344V180H99.5235V158.88H105.635L112.196 170.304L113.796 173.44H113.828L113.7 169.536V158.88H118.564ZM131.978 180.32C130.101 180.32 128.426 179.904 126.954 179.072C125.504 178.24 124.373 177.013 123.562 175.392C122.752 173.771 122.346 171.797 122.346 169.472C122.346 167.189 122.773 165.237 123.626 163.616C124.48 161.995 125.696 160.747 127.274 159.872C128.874 158.997 130.752 158.56 132.906 158.56C135.296 158.56 137.226 158.997 138.698 159.872C140.17 160.725 141.312 162.091 142.122 163.968L137.034 165.984C136.757 164.896 136.266 164.107 135.562 163.616C134.858 163.125 133.984 162.88 132.938 162.88C131.893 162.88 130.997 163.136 130.25 163.648C129.504 164.139 128.938 164.875 128.554 165.856C128.17 166.816 127.978 168.011 127.978 169.44C127.978 170.933 128.17 172.181 128.554 173.184C128.96 174.187 129.546 174.933 130.314 175.424C131.104 175.893 132.074 176.128 133.226 176.128C133.845 176.128 134.41 176.053 134.922 175.904C135.434 175.755 135.882 175.541 136.266 175.264C136.65 174.965 136.949 174.603 137.162 174.176C137.376 173.728 137.482 173.205 137.482 172.608V172.288H132.65V168.608H142.154V180H138.41L137.994 175.04L138.89 175.808C138.442 177.259 137.632 178.379 136.458 179.168C135.306 179.936 133.813 180.32 131.978 180.32ZM172.752 158.88V163.136H165.872V180H160.368V163.136H153.456V158.88H172.752ZM185.979 158.88C188.496 158.88 190.448 159.477 191.835 160.672C193.243 161.845 193.947 163.413 193.947 165.376C193.947 167.531 193.253 169.173 191.867 170.304C190.48 171.435 188.528 172 186.011 172L185.499 172.288H181.307V180H175.899V158.88H185.979ZM185.211 168.384C186.277 168.384 187.077 168.171 187.611 167.744C188.144 167.317 188.411 166.635 188.411 165.696C188.411 164.779 188.144 164.107 187.611 163.68C187.077 163.253 186.277 163.04 185.211 163.04H181.307V168.384H185.211ZM188.443 169.536L195.195 180H189.115L183.707 170.752L188.443 169.536ZM216.425 158.88V171.392C216.425 174.379 215.625 176.619 214.025 178.112C212.446 179.584 210.1 180.32 206.985 180.32C203.892 180.32 201.545 179.584 199.945 178.112C198.345 176.619 197.545 174.379 197.545 171.392V158.88H203.081V171.488C203.081 173.003 203.401 174.133 204.041 174.88C204.702 175.627 205.684 176 206.985 176C208.308 176 209.289 175.627 209.929 174.88C210.59 174.133 210.921 173.003 210.921 171.488V158.88H216.425ZM228.936 158.56C230.898 158.56 232.626 158.869 234.12 159.488C235.634 160.085 236.946 160.971 238.056 162.144L235.4 165.696C234.482 164.736 233.49 164.021 232.424 163.552C231.378 163.061 230.184 162.816 228.84 162.816C228.05 162.816 227.41 162.901 226.92 163.072C226.429 163.243 226.077 163.477 225.864 163.776C225.65 164.075 225.544 164.416 225.544 164.8C225.544 165.248 225.746 165.632 226.152 165.952C226.578 166.251 227.261 166.507 228.2 166.72L231.752 167.52C233.864 168.011 235.41 168.725 236.392 169.664C237.373 170.603 237.864 171.851 237.864 173.408C237.864 174.901 237.48 176.171 236.712 177.216C235.944 178.24 234.888 179.019 233.544 179.552C232.2 180.064 230.664 180.32 228.936 180.32C227.528 180.32 226.184 180.171 224.904 179.872C223.624 179.552 222.472 179.104 221.448 178.528C220.424 177.952 219.56 177.291 218.856 176.544L221.512 172.864C222.045 173.483 222.696 174.037 223.464 174.528C224.253 174.997 225.106 175.371 226.024 175.648C226.962 175.925 227.912 176.064 228.872 176.064C229.618 176.064 230.237 175.989 230.728 175.84C231.24 175.691 231.613 175.467 231.848 175.168C232.082 174.869 232.2 174.517 232.2 174.112C232.2 173.664 232.04 173.291 231.72 172.992C231.4 172.672 230.792 172.405 229.896 172.192L225.992 171.328C224.797 171.051 223.73 170.688 222.792 170.24C221.874 169.771 221.149 169.152 220.616 168.384C220.082 167.595 219.816 166.613 219.816 165.44C219.816 164.117 220.178 162.944 220.904 161.92C221.629 160.875 222.674 160.053 224.04 159.456C225.405 158.859 227.037 158.56 228.936 158.56ZM258.69 158.88V163.136H251.81V180H246.306V163.136H239.394V158.88H258.69ZM275.965 158.88V180H270.461V158.88H275.965ZM288.905 158.56C290.867 158.56 292.595 158.869 294.089 159.488C295.603 160.085 296.915 160.971 298.025 162.144L295.369 165.696C294.451 164.736 293.459 164.021 292.393 163.552C291.347 163.061 290.153 162.816 288.809 162.816C288.019 162.816 287.379 162.901 286.889 163.072C286.398 163.243 286.046 163.477 285.833 163.776C285.619 164.075 285.513 164.416 285.513 164.8C285.513 165.248 285.715 165.632 286.121 165.952C286.547 166.251 287.23 166.507 288.169 166.72L291.721 167.52C293.833 168.011 295.379 168.725 296.361 169.664C297.342 170.603 297.833 171.851 297.833 173.408C297.833 174.901 297.449 176.171 296.681 177.216C295.913 178.24 294.857 179.019 293.513 179.552C292.169 180.064 290.633 180.32 288.905 180.32C287.497 180.32 286.153 180.171 284.873 179.872C283.593 179.552 282.441 179.104 281.417 178.528C280.393 177.952 279.529 177.291 278.825 176.544L281.481 172.864C282.014 173.483 282.665 174.037 283.433 174.528C284.222 174.997 285.075 175.371 285.993 175.648C286.931 175.925 287.881 176.064 288.841 176.064C289.587 176.064 290.206 175.989 290.697 175.84C291.209 175.691 291.582 175.467 291.817 175.168C292.051 174.869 292.169 174.517 292.169 174.112C292.169 173.664 292.009 173.291 291.689 172.992C291.369 172.672 290.761 172.405 289.865 172.192L285.961 171.328C284.766 171.051 283.699 170.688 282.761 170.24C281.843 169.771 281.118 169.152 280.585 168.384C280.051 167.595 279.785 166.613 279.785 165.44C279.785 164.117 280.147 162.944 280.873 161.92C281.598 160.875 282.643 160.053 284.009 159.456C285.374 158.859 287.006 158.56 288.905 158.56ZM309.53 158.56C311.492 158.56 313.22 158.869 314.714 159.488C316.228 160.085 317.54 160.971 318.65 162.144L315.994 165.696C315.076 164.736 314.084 164.021 313.018 163.552C311.972 163.061 310.778 162.816 309.434 162.816C308.644 162.816 308.004 162.901 307.514 163.072C307.023 163.243 306.671 163.477 306.458 163.776C306.244 164.075 306.138 164.416 306.138 164.8C306.138 165.248 306.34 165.632 306.746 165.952C307.172 166.251 307.855 166.507 308.794 166.72L312.346 167.52C314.458 168.011 316.004 168.725 316.986 169.664C317.967 170.603 318.458 171.851 318.458 173.408C318.458 174.901 318.074 176.171 317.306 177.216C316.538 178.24 315.482 179.019 314.138 179.552C312.794 180.064 311.258 180.32 309.53 180.32C308.122 180.32 306.778 180.171 305.498 179.872C304.218 179.552 303.066 179.104 302.042 178.528C301.018 177.952 300.154 177.291 299.45 176.544L302.106 172.864C302.639 173.483 303.29 174.037 304.058 174.528C304.847 174.997 305.7 175.371 306.618 175.648C307.556 175.925 308.506 176.064 309.466 176.064C310.212 176.064 310.831 175.989 311.322 175.84C311.834 175.691 312.207 175.467 312.442 175.168C312.676 174.869 312.794 174.517 312.794 174.112C312.794 173.664 312.634 173.291 312.314 172.992C311.994 172.672 311.386 172.405 310.49 172.192L306.586 171.328C305.391 171.051 304.324 170.688 303.386 170.24C302.468 169.771 301.743 169.152 301.21 168.384C300.676 167.595 300.41 166.613 300.41 165.44C300.41 164.117 300.772 162.944 301.498 161.92C302.223 160.875 303.268 160.053 304.634 159.456C305.999 158.859 307.631 158.56 309.53 158.56ZM340.363 158.88V171.392C340.363 174.379 339.563 176.619 337.963 178.112C336.384 179.584 334.037 180.32 330.923 180.32C327.829 180.32 325.483 179.584 323.883 178.112C322.283 176.619 321.483 174.379 321.483 171.392V158.88H327.019V171.488C327.019 173.003 327.339 174.133 327.979 174.88C328.64 175.627 329.621 176 330.923 176C332.245 176 333.227 175.627 333.867 174.88C334.528 174.133 334.859 173.003 334.859 171.488V158.88H340.363ZM344.617 180V158.88H361.065V163.136H350.121V167.424H358.825V171.424H350.121V175.744H361.481V180H344.617ZM373.061 158.56C375.023 158.56 376.751 158.869 378.245 159.488C379.759 160.085 381.071 160.971 382.181 162.144L379.525 165.696C378.607 164.736 377.615 164.021 376.549 163.552C375.503 163.061 374.309 162.816 372.965 162.816C372.175 162.816 371.535 162.901 371.045 163.072C370.554 163.243 370.202 163.477 369.989 163.776C369.775 164.075 369.669 164.416 369.669 164.8C369.669 165.248 369.871 165.632 370.277 165.952C370.703 166.251 371.386 166.507 372.325 166.72L375.877 167.52C377.989 168.011 379.535 168.725 380.517 169.664C381.498 170.603 381.989 171.851 381.989 173.408C381.989 174.901 381.605 176.171 380.837 177.216C380.069 178.24 379.013 179.019 377.669 179.552C376.325 180.064 374.789 180.32 373.061 180.32C371.653 180.32 370.309 180.171 369.029 179.872C367.749 179.552 366.597 179.104 365.573 178.528C364.549 177.952 363.685 177.291 362.981 176.544L365.637 172.864C366.17 173.483 366.821 174.037 367.589 174.528C368.378 174.997 369.231 175.371 370.149 175.648C371.087 175.925 372.037 176.064 372.997 176.064C373.743 176.064 374.362 175.989 374.853 175.84C375.365 175.691 375.738 175.467 375.973 175.168C376.207 174.869 376.325 174.517 376.325 174.112C376.325 173.664 376.165 173.291 375.845 172.992C375.525 172.672 374.917 172.405 374.021 172.192L370.117 171.328C368.922 171.051 367.855 170.688 366.917 170.24C365.999 169.771 365.274 169.152 364.741 168.384C364.207 167.595 363.941 166.613 363.941 165.44C363.941 164.117 364.303 162.944 365.029 161.92C365.754 160.875 366.799 160.053 368.165 159.456C369.53 158.859 371.162 158.56 373.061 158.56Z" fill="#F5F8FB"/>
</svg>
