<?xml version="1.0" encoding="UTF-8"?>
<svg id="Layer_1" xmlns="http://www.w3.org/2000/svg" xmlns:xlink="http://www.w3.org/1999/xlink" version="1.1" viewBox="0 0 32 32">
  <!-- Generator: Adobe Illustrator 30.1.0, SVG Export Plug-In . SVG Version: 2.1.1 Build 136)  -->
  <defs>
    <clipPath id="clippath">
      <rect x=".485" y="0" width="31.03" height="32" fill="none"/>
    </clipPath>
    <clipPath id="clippath-1">
      <rect x=".485" y="0" width="31.03" height="32" fill="none"/>
    </clipPath>
  </defs>
  <g id="Witty_Wolf_-_Imagery_Circle_Charcoal_Grey">
    <g clip-path="url(#clippath)">
      <g clip-path="url(#clippath-1)">
        <path d="M2.28,21.358C-.812,13.441,2.825,4.625,10.402,1.665c7.578-2.959,16.226,1.06,19.318,8.976,3.092,7.917-.544,16.734-8.122,19.693-7.577,2.96-16.226-1.059-19.318-8.976" fill="#2c3e50"/>
        <path d="M2.28,21.358C-.812,13.441,2.825,4.625,10.402,1.665c7.578-2.959,16.226,1.06,19.318,8.976,3.092,7.917-.544,16.734-8.122,19.693-7.577,2.96-16.226-1.059-19.318-8.976Z" fill="none" stroke="#2c3e50" stroke-miterlimit="10" stroke-width="1.385"/>
        <path d="M5.972,5.147c1.764.152,3.339,1.27,4.749,2.423,1.228-.512,2.511-1.145,3.802-1.417.377-1.809.673-3.778,1.933-5.1,1.394,1.391,2.625,3.372,3.205,5.301.398,1.323.014,2.028,1.44,2.901.546.334,1.435.5,2.011.911,1.222.874,1.952,2.575,2.531,3.969-.53-.211-.974-.884-1.57-.881.278.285.603.694.779,1.054,2.221,4.537-1.8,10.674-3.603,14.41-1.913-.633-3.872-1.266-5.729-2.107-2.817-1.277-6.399-3.235-6.932-6.834l-.506,1.216c-.561-1.393-1.139-3.169-.828-4.633.214-1.012,1.296-2.422.941-3.559-.118-.378-.727-1.033-.941-1.466-.905-1.828-1.394-4.195-1.282-6.188" fill="#2c3e50"/>
        <path d="M6.34,6.09c1.615.233,3.109,1.358,4.353,2.51,1.286-.958,2.978-1.633,4.577-1.788.223-1.695.509-3.453,1.501-4.796,1.197,1.456,1.894,3.268,2.329,5.099.065.273.03,1.029.094,1.186.288.709,1.723,1.661,2.146,2.353,1.797,2.939-1.961,4.111-1.862,6.227.036.761.477,1.54.296,2.329-.153.669-.937,1.357-1.572,1.394-.327-.184,1.127-1.894.069-2.573-.84-.539-3.668.721-2.011,2.075.38.311,2.092.593.795,1.014-2.323.754-2.29-2.548-4.081-2.752-.092-.011-1.094.06-1.088.119.644.13,1.388.33,1.913.815.776.717,1.06,2.077,2.108,2.335.984.242,3.56-.773,4.074-1.659.537-.925-.18-2.033-.063-3.065.014-.114.082-.602.265-.578-.159.366.402.675.573.997.625,1.17.822,3.379.12,4.469-.604.939-2.29,1.714-2.228,3.01.005.104.015.416.146.453.607-2.221,2.739-2.335,3.777-4.463.82-1.683.704-2.935.313-4.773-.019-.09-.109-.195.06-.159.712,1.257.911,2.737.88,4.137-.066,3.068-1.836,5.293-2.952,7.91-3.53-1.514-7.837-2.382-9.534-6.666l.739,2.598c-.186.002-.509-.296-.656-.423-1.609-1.393-2.712-3.534-2.415-5.712l-.993,1.542c-.225-.913-.272-1.886-.038-2.77.295-1.113.996-1.652.988-2.966-.01-1.613-.718-1.695-1.357-3.001-.662-1.356-1.072-2.948-1.269-4.427" fill="#fff"/>
        <path d="M6.737,6.478c1.364.426,2.455,1.592,3.418,2.706-.537.422-.859.947-.832,1.717-1.89-.759-1.796-2.772-2.586-4.423" fill="#2c3e50"/>
        <path d="M16.809,2.545c-.715,1.237-.727,2.834-.68,4.305.682-.053,1.274.115,1.775.699.875-1.839-.557-3.255-1.095-5.004" fill="#2c3e50"/>
        <path d="M17.934,11.748c.123-.043,1.478-.692,1.575-.445-.575.432-1.266.759-1.755,1.276-.244.259-.604.665-.651,1.123-.091.873.3,1.14.202,1.198-1.173-1.435.299-3.035.629-3.152" fill="#2c3e50"/>
        <path d="M12.341,13.932c-.12.051-1.556.493-1.459.74.716-.072,1.445-.3,2.154-.25.356.025.895.079,1.24.384.658.58.551,1.041.662,1.018-.109-1.85-2.276-2.029-2.598-1.891" fill="#2c3e50"/>
        <path d="M18.437,20.934c.226-.042.391-.148.59-.199.019.398-.006.734.234,1.086-.632,1.031-.645.996-1.794.7-.03-.43-.293-.656-.564-.956.227-.127.431-.146.669-.325.088-.066.276-.332.297-.339.027-.009.391.066.569.032" fill="#e3993d"/>
      </g>
    </g>
  </g>
</svg>