<?xml version="1.0" encoding="UTF-8"?>
<svg id="Layer_1" xmlns="http://www.w3.org/2000/svg" version="1.1" viewBox="18.73 10.1 467.67 467.67">
  <!-- Generator: Adobe Illustrator 30.1.0, SVG Export Plug-In . SVG Version: 2.1.1 Build 136)  -->
  <g id="Witty_Wolf_-_Seperate" transform="rotate(-8 250 250)">
    <path id="Silhouet_head" d="M158.149,25.439c25.965,12.815,43.319,39.209,57.932,65.172,21.753-.495,45.056-2.517,66.342,1.034,16.51-25.312,32.734-53.551,59.801-66.207,12.951,29.479,19.926,66.989,17.286,99.828-1.811,22.538-11.855,30.974,4.672,52.759,6.334,8.349,18.901,16.154,25.229,25.862,13.409,20.572,14.426,50.838,14.95,75.517-6.825-6.373-9.585-19.259-18.688-22.759,2.54,5.994,5.064,14.166,5.606,20.69,6.846,82.339-90.922,151.894-140.626,198.103-25.373-21.027-51.464-42.329-74.751-66.207-35.312-36.208-78.229-87.351-64.94-145.345l-14.95,15.517c-.269-24.557,1.512-55.056,14.95-75.517,9.291-14.147,34.146-29.193,35.507-48.621.452-6.456-4.918-20.07-5.606-27.931-2.91-33.241,3.71-72.212,17.286-101.897Z" fill="#2c3e50"/>
    <path id="Face" d="M158.149,41.99c23.226,13.159,39.282,39.199,51.391,64.138,25.29-6.936,55.081-7.154,80.358,0,13.491-24.491,28.29-49.582,51.391-64.138,9.577,29.309,9.418,61.058,5.139,91.552-.637,4.543-5.641,15.845-5.606,18.621.158,12.519,16.358,35.558,18.688,48.621,9.892,55.456-54.339,50.956-65.407,83.793-3.977,11.798-1.903,26.295-9.344,37.241-6.307,9.278-22.353,15.093-32.236,11.897-3.89-4.746,28.432-22.153,16.352-38.793-9.593-13.214-60.162-10.832-42.982,19.655,3.949,7.007,28.334,21.472,6.074,20.172-39.881-2.328-19.723-52.439-45.785-66.207-1.353-.715-17.032-5.599-17.286-4.655,9.038,5.81,19.178,13.282,24.294,23.793,7.554,15.521,3.787,37.95,18.221,48.103,13.555,9.535,58.841,9.415,71.948-1.034,13.689-10.913,9.351-32.045,17.286-47.069.878-1.662,4.832-8.685,7.475-7.241-4.591,4.635,2.098,12.683,2.803,18.621,2.557,21.531-7.588,56.363-24.761,68.793-14.786,10.702-45.089,12.471-51.859,32.586-.546,1.621-2.256,6.434-.467,7.759,22.462-30.22,55.618-19.261,84.095-45.517,22.509-20.753,28.182-40.527,33.171-70.862.244-1.481-.503-3.623,1.869-2.069,3.359,23.386-2.426,47.126-11.213,68.276-19.25,46.337-59.458,69.717-92.037,102.931-44.778-44.065-105.22-82.912-105.586-158.276l-4.205,43.966c-2.834-1.071-5.996-7.538-7.475-10.345-16.22-30.785-20.288-69.968-2.803-101.379l-24.294,17.586c1.993-15.258,7.066-30.348,15.885-42.414,11.111-15.203,25.015-19.246,32.704-39.31,9.442-24.641-.847-30.089-2.803-53.793-2.029-24.593,1.207-51.29,7.008-75Z" fill="#fff"/>
    <path id="Right_ear" d="M161.886,50.266c18.252,14.607,27.929,38.855,35.974,61.552-10.699,3.242-18.731,9.334-22.893,21.207-24.277-22.808-10.874-52.915-13.081-82.759Z" fill="#2c3e50"/>
    <path id="Left_ear" d="M338.722,50.266c-18.252,14.607-27.929,38.855-35.974,61.552,10.699,3.242,18.731,9.334,22.893,21.207,24.277-22.808,10.874-52.915,13.081-82.759Z" fill="#2c3e50"/>
    <path id="Right_eyebrow" d="M301.11,197.163c2.126.068,26.641-1.749,26.63,2.586-11.331,3.157-23.799,4.027-34.318,9.013-5.26,2.493-13.152,6.531-16.606,13.229-6.572,12.743-2.205,19.137-4.036,19.445-9.339-28.832,22.616-44.455,28.33-44.272Z" fill="#2c3e50"/>
    <path id="Left_eyebrow" d="M202.919,197.163c-2.126.068-26.641-1.749-26.63,2.586,11.331,3.157,23.799,4.027,34.318,9.013,5.26,2.493,13.152,6.531,16.606,13.229,6.572,12.743,2.205,19.137,4.036,19.445,9.339-28.832-22.616-44.455-28.33-44.272Z" fill="#2c3e50"/>
    <path id="Tongue" d="M254.121,340.109c3.695.693,6.823.07,10.177.485-2.083,6.185-4.471,11.152-2.908,17.931-15.75,11.953-15.75,11.339-31.5,0,2.093-6.74-.565-11.737-2.908-17.931,4.207-.566,7.43.344,12.115-.969,1.733-.486,6.174-3.404,6.542-3.392.473.015,5.558,3.329,8.481,3.877Z" fill="#e3993d"/>
  </g>
</svg>