<?xml version="1.0" encoding="UTF-8"?>
<svg id="Layer_1" xmlns="http://www.w3.org/2000/svg" xmlns:xlink="http://www.w3.org/1999/xlink" version="1.1" viewBox="415 45 600 910">
  <!-- Generator: Adobe Illustrator 30.1.0, SVG Export Plug-In . SVG Version: 2.1.1 Build 136)  -->
  <defs>
    <clipPath id="clippath">
      <rect x="431.691" y="90.602" width="577.001" height="842" transform="translate(-115.646 225.615) rotate(-16.5)" fill="none"/>
    </clipPath>
    <clipPath id="clippath-1">
      <rect x="431.691" y="90.602" width="577.001" height="842" transform="translate(-115.646 225.615) rotate(-16.5)" fill="none"/>
    </clipPath>
  </defs>
  
  <g id="Witty_Wolf">
    <g clip-path="url(#clippath)">
      <g clip-path="url(#clippath-1)">
        <path d="M435.521,156.844c53.391,9.193,98.553,47.323,138.567,86.138,38.763-12.452,79.497-28.46,119.572-33.402,16.167-54.183,30.267-113.472,72.101-150.559,38.901,46.006,71.348,109.591,84.063,169.912,8.73,41.395-4.805,61.867,36.421,92.169,15.801,11.609,42.492,18.935,59.002,32.988,34.994,29.784,52.901,83.543,66.956,127.539-15.63-7.809-27.432-29.457-45.621-30.901,7.741,9.403,16.614,22.726,21.051,34.14,56.041,144.084-82.394,320.825-147.011,430.142-56.695-24.239-114.823-48.593-169.293-79.054-82.595-46.193-186.767-115.142-193.744-226.247l-18.577,35.785c-13.534-43.914-26.543-99.577-13.309-143.43,9.148-30.314,45.746-70.516,37.861-106.095-2.619-11.823-19.488-33.392-24.9-47.133-22.886-58.089-31.721-131.52-23.139-191.992" fill="#2c3e50" class="wp" style="--i:0"/>
        <path d="M444.317,186.539c48.663,11.264,91.304,49.451,126.284,87.755,41.684-25.882,95.016-42.104,144.165-42.704,11.192-51.107,24.406-103.987,58.115-142.377,32.76,47.492,49.343,104.534,57.876,161.519,1.269,8.488-1.703,31.423-.165,36.387,6.937,22.375,48.244,55.099,59.364,77.296,47.219,94.235-70.407,120.296-72.811,185.09-.868,23.278,10.558,48.187,3.028,71.778-6.386,19.995-32.084,38.956-51.513,38.472-9.499-6.446,39.236-54.85,8.719-78.283-24.234-18.611-113.69,12.538-66.668,58.103,10.808,10.473,62.245,23.463,21.62,32.964-72.788,17.016-63.253-83.599-117.327-94.447-2.806-.563-33.53-.997-33.485.833,19.301,5.622,41.463,13.638,56.231,29.775,21.799,23.83,26.958,66.07,58.251,76.617,29.385,9.906,110.568-14.378,128.53-40.089,18.757-26.854-.254-62.463,5.997-93.631.692-3.447,4.052-18.151,9.561-16.965-5.774,10.757,10.507,21.64,14.926,31.916,16.029,37.269,16.34,105.152-7.862,136.577-20.843,27.062-74.265,46.336-75.721,86.019-.118,3.2-.63,12.746,3.285,14.168,24.236-66.151,89.544-64.112,126.679-126.349,29.356-49.193,29.027-87.686,21.853-144.76-.348-2.787-2.825-6.232,2.255-4.702,18.451,40.17,20.691,85.832,16.166,128.446-9.908,93.362-69.619,156.675-110.42,233.576-103.751-55.26-232.834-92.83-273.541-227.845l15.824,81.112c-5.652-.415-14.763-10.339-18.912-14.586-45.459-46.611-73.579-114.745-58.901-180.39l-34.24,44.463c-4.535-28.437-3.451-58.205,5.959-84.539,11.852-33.175,34.651-47.818,37.779-87.9,3.846-49.226-17.508-53.535-33.614-95.022-16.711-43.04-25.092-92.659-27.285-138.277" fill="#fff" class="wp" style="--i:1"/>
        <path d="M455.42,199.4c40.508,16.507,70.756,54.867,97.247,91.309-17.471,11.501-28.64,26.703-29.797,50.211-55.676-28.014-47.629-89.153-67.45-141.52" fill="#2c3e50" class="wp" style="--i:2"/>
        <path d="M772.674,105.425c-24.983,35.907-29.458,84.552-31.827,129.543,20.917.13,38.563,6.796,52.337,25.882,31.436-53.818-8.611-100.711-20.51-155.425" fill="#2c3e50" class="wp" style="--i:3"/>
        <path d="M783.261,388.953c3.85-1.01,46.867-17.294,49.149-9.512-18.647,11.685-40.555,19.873-56.776,34.405-8.115,7.267-20.127,18.71-22.766,32.558-5.018,26.355,6.218,35.504,3.095,37.032-32.076-46.764,16.95-91.776,27.298-94.484" fill="#2c3e50" class="wp" style="--i:4"/>
        <path d="M607.101,441.135c-3.779,1.25-48.725,11.022-46.4,18.791,22.003-.356,44.836-5.421,66.355-2.068,10.764,1.675,27.07,4.729,36.825,14.906,18.563,19.37,14.122,33.163,17.574,32.744,1.432-56.689-64.2-67.738-74.354-64.373" fill="#2c3e50" class="wp" style="--i:5"/>
        <path d="M774.925,670.379c6.999-.722,12.281-3.498,18.516-4.539-.452,12.206-2.093,22.386,4.312,33.714-21.905,29.813-22.231,28.713-56.513,16.74.171-13.204-7.249-20.757-14.745-30.624,7.249-3.252,13.512-3.332,21.221-8.177,2.851-1.795,9.267-9.389,9.935-9.563.855-.224,11.742,3.021,17.275,2.448" fill="#e3993d" class="wp" style="--i:6"/>
      </g>
    </g>
  </g>
</svg>