<svg xmlns="http://www.w3.org/2000/svg" viewBox="0 0 663 804" role="img" aria-label="Witty Wolf mark rendered as horizontal scan lines">
<g class="wolf-lines">
<rect x="310.0" y="35.0" width="19.0" height="4" rx="2.0" fill="#C7C1B7" class="wl" style="--i:2"/>
<rect x="305.0" y="50.0" width="11.0" height="4" rx="2.0" fill="#C7C1B7" class="wl" style="--i:3"/>
<rect x="326.0" y="50.0" width="18.0" height="4" rx="2.0" fill="#C7C1B7" class="wl" style="--i:3"/>
<rect x="301.0" y="65.0" width="13.0" height="4" rx="2.0" fill="#C7C1B7" class="wl" style="--i:4"/>
<rect x="337.0" y="65.0" width="20.0" height="4" rx="2.0" fill="#C7C1B7" class="wl" style="--i:4"/>
<rect x="300.0" y="80.0" width="12.0" height="4" rx="2.0" fill="#C7C1B7" class="wl" style="--i:5"/>
<rect x="347.0" y="80.0" width="21.0" height="4" rx="2.0" fill="#C7C1B7" class="wl" style="--i:5"/>
<rect x="298.0" y="95.0" width="14.0" height="4" rx="2.0" fill="#C7C1B7" class="wl" style="--i:6"/>
<rect x="359.0" y="95.0" width="20.0" height="4" rx="2.0" fill="#C7C1B7" class="wl" style="--i:6"/>
<rect x="297.0" y="110.0" width="16.0" height="4" rx="2.0" fill="#C7C1B7" class="wl" style="--i:7"/>
<rect x="370.0" y="110.0" width="18.0" height="4" rx="2.0" fill="#C7C1B7" class="wl" style="--i:7"/>
<rect x="297.0" y="125.0" width="19.0" height="4" rx="2.0" fill="#C7C1B7" class="wl" style="--i:8"/>
<rect x="377.0" y="125.0" width="20.0" height="4" rx="2.0" fill="#C7C1B7" class="wl" style="--i:8"/>
<rect x="297.0" y="140.0" width="21.0" height="4" rx="2.0" fill="#C7C1B7" class="wl" style="--i:9"/>
<rect x="382.0" y="140.0" width="23.0" height="4" rx="2.0" fill="#C7C1B7" class="wl" style="--i:9"/>
<rect x="297.0" y="155.0" width="24.0" height="4" rx="2.0" fill="#C7C1B7" class="wl" style="--i:10"/>
<rect x="385.0" y="155.0" width="28.0" height="4" rx="2.0" fill="#C7C1B7" class="wl" style="--i:10"/>
<rect x="298.0" y="170.0" width="26.0" height="4" rx="2.0" fill="#C7C1B7" class="wl" style="--i:11"/>
<rect x="340.0" y="170.0" width="10.0" height="4" rx="2.0" fill="#C7C1B7" class="wl" style="--i:11"/>
<rect x="385.0" y="170.0" width="33.0" height="4" rx="2.0" fill="#C7C1B7" class="wl" style="--i:11"/>
<rect x="273.0" y="185.0" width="148.0" height="4" rx="2.0" fill="#C7C1B7" class="wl" style="--i:12"/>
<rect x="243.0" y="200.0" width="185.0" height="4" rx="2.0" fill="#C7C1B7" class="wl" style="--i:13"/>
<rect x="29.0" y="215.0" width="54.0" height="4" rx="2.0" fill="#C7C1B7" class="wl" style="--i:14"/>
<rect x="220.0" y="215.0" width="225.0" height="4" rx="2.0" fill="#C7C1B7" class="wl" style="--i:14"/>
<rect x="35.0" y="230.0" width="14.0" height="4" rx="2.0" fill="#C7C1B7" class="wl" style="--i:15"/>
<rect x="88.0" y="230.0" width="34.0" height="4" rx="2.0" fill="#C7C1B7" class="wl" style="--i:15"/>
<rect x="200.0" y="230.0" width="267.0" height="4" rx="2.0" fill="#C7C1B7" class="wl" style="--i:15"/>
<rect x="41.0" y="245.0" width="18.0" height="4" rx="2.0" fill="#C7C1B7" class="wl" style="--i:16"/>
<rect x="114.0" y="245.0" width="38.0" height="4" rx="2.0" fill="#C7C1B7" class="wl" style="--i:16"/>
<rect x="184.0" y="245.0" width="307.0" height="4" rx="2.0" fill="#C7C1B7" class="wl" style="--i:16"/>
<rect x="47.0" y="260.0" width="19.0" height="4" rx="2.0" fill="#C7C1B7" class="wl" style="--i:17"/>
<rect x="137.0" y="260.0" width="371.0" height="4" rx="2.0" fill="#C7C1B7" class="wl" style="--i:17"/>
<rect x="55.0" y="275.0" width="20.0" height="4" rx="2.0" fill="#C7C1B7" class="wl" style="--i:18"/>
<rect x="157.0" y="275.0" width="362.0" height="4" rx="2.0" fill="#C7C1B7" class="wl" style="--i:18"/>
<rect x="62.0" y="290.0" width="21.0" height="4" rx="2.0" fill="#C7C1B7" class="wl" style="--i:19"/>
<rect x="151.0" y="290.0" width="286.0" height="4" rx="2.0" fill="#C7C1B7" class="wl" style="--i:19"/>
<rect x="449.0" y="290.0" width="76.0" height="4" rx="2.0" fill="#C7C1B7" class="wl" style="--i:19"/>
<rect x="72.0" y="305.0" width="23.0" height="4" rx="2.0" fill="#C7C1B7" class="wl" style="--i:20"/>
<rect x="145.0" y="305.0" width="269.0" height="4" rx="2.0" fill="#C7C1B7" class="wl" style="--i:20"/>
<rect x="434.0" y="305.0" width="94.0" height="4" rx="2.0" fill="#C7C1B7" class="wl" style="--i:20"/>
<rect x="81.0" y="320.0" width="29.0" height="4" rx="2.0" fill="#C7C1B7" class="wl" style="--i:21"/>
<rect x="143.0" y="320.0" width="256.0" height="4" rx="2.0" fill="#C7C1B7" class="wl" style="--i:21"/>
<rect x="419.0" y="320.0" width="110.0" height="4" rx="2.0" fill="#C7C1B7" class="wl" style="--i:21"/>
<rect x="93.0" y="335.0" width="298.0" height="4" rx="2.0" fill="#C7C1B7" class="wl" style="--i:22"/>
<rect x="407.0" y="335.0" width="119.0" height="4" rx="2.0" fill="#C7C1B7" class="wl" style="--i:22"/>
<rect x="105.0" y="350.0" width="282.0" height="4" rx="2.0" fill="#C7C1B7" class="wl" style="--i:23"/>
<rect x="399.0" y="350.0" width="122.0" height="4" rx="2.0" fill="#C7C1B7" class="wl" style="--i:23"/>
<rect x="122.0" y="365.0" width="264.0" height="4" rx="2.0" fill="#C7C1B7" class="wl" style="--i:24"/>
<rect x="395.0" y="365.0" width="118.0" height="4" rx="2.0" fill="#C7C1B7" class="wl" style="--i:24"/>
<rect x="136.0" y="380.0" width="253.0" height="4" rx="2.0" fill="#C7C1B7" class="wl" style="--i:25"/>
<rect x="396.0" y="380.0" width="109.0" height="4" rx="2.0" fill="#C7C1B7" class="wl" style="--i:25"/>
<rect x="143.0" y="395.0" width="253.0" height="4" rx="2.0" fill="#C7C1B7" class="wl" style="--i:26"/>
<rect x="401.0" y="395.0" width="96.0" height="4" rx="2.0" fill="#C7C1B7" class="wl" style="--i:26"/>
<rect x="149.0" y="410.0" width="98.0" height="4" rx="2.0" fill="#C7C1B7" class="wl" style="--i:27"/>
<rect x="311.0" y="410.0" width="179.0" height="4" rx="2.0" fill="#C7C1B7" class="wl" style="--i:27"/>
<rect x="582.0" y="410.0" width="7.0" height="4" rx="2.0" fill="#C7C1B7" class="wl" style="--i:27"/>
<rect x="151.0" y="425.0" width="73.0" height="4" rx="2.0" fill="#C7C1B7" class="wl" style="--i:28"/>
<rect x="249.0" y="425.0" width="71.0" height="4" rx="2.0" fill="#C7C1B7" class="wl" style="--i:28"/>
<rect x="331.0" y="425.0" width="154.0" height="4" rx="2.0" fill="#C7C1B7" class="wl" style="--i:28"/>
<rect x="589.0" y="425.0" width="10.0" height="4" rx="2.0" fill="#C7C1B7" class="wl" style="--i:28"/>
<rect x="151.0" y="440.0" width="185.0" height="4" rx="2.0" fill="#C7C1B7" class="wl" style="--i:29"/>
<rect x="339.0" y="440.0" width="144.0" height="4" rx="2.0" fill="#C7C1B7" class="wl" style="--i:29"/>
<rect x="498.0" y="440.0" width="6.0" height="4" rx="2.0" fill="#C7C1B7" class="wl" style="--i:29"/>
<rect x="595.0" y="440.0" width="13.0" height="4" rx="2.0" fill="#C7C1B7" class="wl" style="--i:29"/>
<rect x="149.0" y="455.0" width="336.0" height="4" rx="2.0" fill="#C7C1B7" class="wl" style="--i:30"/>
<rect x="499.0" y="455.0" width="22.0" height="4" rx="2.0" fill="#C7C1B7" class="wl" style="--i:30"/>
<rect x="600.0" y="455.0" width="15.0" height="4" rx="2.0" fill="#C7C1B7" class="wl" style="--i:30"/>
<rect x="145.0" y="470.0" width="345.0" height="4" rx="2.0" fill="#C7C1B7" class="wl" style="--i:31"/>
<rect x="502.0" y="470.0" width="31.0" height="4" rx="2.0" fill="#C7C1B7" class="wl" style="--i:31"/>
<rect x="604.0" y="470.0" width="16.0" height="4" rx="2.0" fill="#C7C1B7" class="wl" style="--i:31"/>
<rect x="141.0" y="485.0" width="357.0" height="4" rx="2.0" fill="#C7C1B7" class="wl" style="--i:32"/>
<rect x="508.0" y="485.0" width="34.0" height="4" rx="2.0" fill="#C7C1B7" class="wl" style="--i:32"/>
<rect x="606.0" y="485.0" width="20.0" height="4" rx="2.0" fill="#C7C1B7" class="wl" style="--i:32"/>
<rect x="138.0" y="500.0" width="285.0" height="4" rx="2.0" fill="#C7C1B7" class="wl" style="--i:33"/>
<rect x="464.0" y="500.0" width="40.0" height="4" rx="2.0" fill="#C7C1B7" class="wl" style="--i:33"/>
<rect x="514.0" y="500.0" width="35.0" height="4" rx="2.0" fill="#C7C1B7" class="wl" style="--i:33"/>
<rect x="607.0" y="500.0" width="22.0" height="4" rx="2.0" fill="#C7C1B7" class="wl" style="--i:33"/>
<rect x="137.0" y="515.0" width="263.0" height="4" rx="2.0" fill="#C7C1B7" class="wl" style="--i:34"/>
<rect x="471.0" y="515.0" width="36.0" height="4" rx="2.0" fill="#C7C1B7" class="wl" style="--i:34"/>
<rect x="519.0" y="515.0" width="34.0" height="4" rx="2.0" fill="#C7C1B7" class="wl" style="--i:34"/>
<rect x="607.0" y="515.0" width="25.0" height="4" rx="2.0" fill="#C7C1B7" class="wl" style="--i:34"/>
<rect x="137.0" y="530.0" width="253.0" height="4" rx="2.0" fill="#C7C1B7" class="wl" style="--i:35"/>
<rect x="472.0" y="530.0" width="35.0" height="4" rx="2.0" fill="#C7C1B7" class="wl" style="--i:35"/>
<rect x="521.0" y="530.0" width="37.0" height="4" rx="2.0" fill="#C7C1B7" class="wl" style="--i:35"/>
<rect x="605.0" y="530.0" width="31.0" height="4" rx="2.0" fill="#C7C1B7" class="wl" style="--i:35"/>
<rect x="140.0" y="545.0" width="34.0" height="4" rx="2.0" fill="#C7C1B7" class="wl" style="--i:36"/>
<rect x="176.0" y="545.0" width="94.0" height="4" rx="2.0" fill="#C7C1B7" class="wl" style="--i:36"/>
<rect x="328.0" y="545.0" width="59.0" height="4" rx="2.0" fill="#C7C1B7" class="wl" style="--i:36"/>
<rect x="470.0" y="545.0" width="30.0" height="4" rx="2.0" fill="#C7C1B7" class="wl" style="--i:36"/>
<rect x="517.0" y="545.0" width="43.0" height="4" rx="2.0" fill="#C7C1B7" class="wl" style="--i:36"/>
<rect x="603.0" y="545.0" width="34.0" height="4" rx="2.0" fill="#C7C1B7" class="wl" style="--i:36"/>
<rect x="143.0" y="560.0" width="25.0" height="4" rx="2.0" fill="#C7C1B7" class="wl" style="--i:37"/>
<rect x="178.0" y="560.0" width="151.0" height="4" rx="2.0" fill="#C7C1B7" class="wl" style="--i:37"/>
<rect x="346.0" y="560.0" width="49.0" height="4" rx="2.0" fill="#C7C1B7" class="wl" style="--i:37"/>
<rect x="467.0" y="560.0" width="22.0" height="4" rx="2.0" fill="#C7C1B7" class="wl" style="--i:37"/>
<rect x="508.0" y="560.0" width="53.0" height="4" rx="2.0" fill="#C7C1B7" class="wl" style="--i:37"/>
<rect x="598.0" y="560.0" width="40.0" height="4" rx="2.0" fill="#C7C1B7" class="wl" style="--i:37"/>
<rect x="147.0" y="575.0" width="15.0" height="4" rx="2.0" fill="#C7C1B7" class="wl" style="--i:38"/>
<rect x="181.0" y="575.0" width="166.0" height="4" rx="2.0" fill="#C7C1B7" class="wl" style="--i:38"/>
<rect x="360.0" y="575.0" width="69.0" height="4" rx="2.0" fill="#C7C1B7" class="wl" style="--i:38"/>
<rect x="488.0" y="575.0" width="72.0" height="4" rx="2.0" fill="#C7C1B7" class="wl" style="--i:38"/>
<rect x="593.0" y="575.0" width="45.0" height="4" rx="2.0" fill="#C7C1B7" class="wl" style="--i:38"/>
<rect x="186.0" y="590.0" width="176.0" height="4" rx="2.0" fill="#C7C1B7" class="wl" style="--i:39"/>
<rect x="376.0" y="590.0" width="70.0" height="4" rx="2.0" fill="#C7C1B7" class="wl" style="--i:39"/>
<rect x="457.0" y="588.0" width="100.0" height="8" rx="2.0" fill="#E3993D" class="wl" style="--i:39"/>
<rect x="584.0" y="590.0" width="53.0" height="4" rx="2.0" fill="#C7C1B7" class="wl" style="--i:39"/>
<rect x="192.0" y="605.0" width="185.0" height="4" rx="2.0" fill="#C7C1B7" class="wl" style="--i:40"/>
<rect x="441.0" y="603.0" width="109.0" height="8" rx="2.0" fill="#E3993D" class="wl" style="--i:40"/>
<rect x="575.0" y="605.0" width="60.0" height="4" rx="2.0" fill="#C7C1B7" class="wl" style="--i:40"/>
<rect x="201.0" y="620.0" width="339.0" height="4" rx="2.0" fill="#C7C1B7" class="wl" style="--i:41"/>
<rect x="563.0" y="620.0" width="69.0" height="4" rx="2.0" fill="#C7C1B7" class="wl" style="--i:41"/>
<rect x="211.0" y="635.0" width="318.0" height="4" rx="2.0" fill="#C7C1B7" class="wl" style="--i:42"/>
<rect x="549.0" y="635.0" width="81.0" height="4" rx="2.0" fill="#C7C1B7" class="wl" style="--i:42"/>
<rect x="223.0" y="650.0" width="52.0" height="4" rx="2.0" fill="#C7C1B7" class="wl" style="--i:43"/>
<rect x="278.0" y="650.0" width="240.0" height="4" rx="2.0" fill="#C7C1B7" class="wl" style="--i:43"/>
<rect x="537.0" y="650.0" width="89.0" height="4" rx="2.0" fill="#C7C1B7" class="wl" style="--i:43"/>
<rect x="237.0" y="665.0" width="46.0" height="4" rx="2.0" fill="#C7C1B7" class="wl" style="--i:44"/>
<rect x="290.0" y="665.0" width="221.0" height="4" rx="2.0" fill="#C7C1B7" class="wl" style="--i:44"/>
<rect x="527.0" y="665.0" width="95.0" height="4" rx="2.0" fill="#C7C1B7" class="wl" style="--i:44"/>
<rect x="254.0" y="680.0" width="37.0" height="4" rx="2.0" fill="#C7C1B7" class="wl" style="--i:45"/>
<rect x="305.0" y="680.0" width="201.0" height="4" rx="2.0" fill="#C7C1B7" class="wl" style="--i:45"/>
<rect x="520.0" y="680.0" width="98.0" height="4" rx="2.0" fill="#C7C1B7" class="wl" style="--i:45"/>
<rect x="277.0" y="695.0" width="21.0" height="4" rx="2.0" fill="#C7C1B7" class="wl" style="--i:46"/>
<rect x="324.0" y="695.0" width="183.0" height="4" rx="2.0" fill="#C7C1B7" class="wl" style="--i:46"/>
<rect x="516.0" y="695.0" width="98.0" height="4" rx="2.0" fill="#C7C1B7" class="wl" style="--i:46"/>
<rect x="346.0" y="710.0" width="264.0" height="4" rx="2.0" fill="#C7C1B7" class="wl" style="--i:47"/>
<rect x="374.0" y="725.0" width="231.0" height="4" rx="2.0" fill="#C7C1B7" class="wl" style="--i:48"/>
<rect x="415.0" y="740.0" width="186.0" height="4" rx="2.0" fill="#C7C1B7" class="wl" style="--i:49"/>
<rect x="474.0" y="755.0" width="123.0" height="4" rx="2.0" fill="#C7C1B7" class="wl" style="--i:50"/>
<rect x="560.0" y="770.0" width="34.0" height="4" rx="2.0" fill="#C7C1B7" class="wl" style="--i:51"/>
</g></svg>