<svg xmlns="http://www.w3.org/2000/svg" viewBox="70.4 67.0 139.8 93.4"><path d="M158.438 101.344C158.26 100.842 158.052 100.355 157.854 99.9045C157.55 99.2113 157.231 98.5168 156.922 97.8453L156.898 97.7921C154.147 91.795 151.195 85.7156 148.123 79.7235L147.992 79.4689C147.679 78.8571 147.355 78.2244 147.022 77.6027C146.628 76.8159 146.15 76.0746 145.596 75.3921C144.972 74.6429 144.192 74.0405 143.312 73.6273C142.431 73.214 141.471 72.9999 140.499 73C139.527 73.0001 138.567 73.2145 137.687 73.628C136.806 74.0415 136.027 74.6441 135.403 75.3934C134.85 76.076 134.372 76.8171 133.977 77.6036C133.642 78.2309 133.315 78.8695 132.999 79.4871L132.878 79.7235C129.805 85.7162 126.853 91.7953 124.102 97.792L124.062 97.8792C123.759 98.5396 123.446 99.2226 123.146 99.9042C122.948 100.355 122.741 100.841 122.563 101.345C122.053 102.717 121.89 104.196 122.09 105.648C122.302 107.116 122.891 108.502 123.8 109.669C124.709 110.838 125.905 111.747 127.271 112.306C128.303 112.727 129.406 112.941 130.519 112.939C130.869 112.939 131.218 112.918 131.565 112.878C132.973 112.697 134.331 112.236 135.56 111.521C137.171 110.61 138.762 109.274 140.5 107.366C142.238 109.274 143.829 110.61 145.441 111.521C146.669 112.236 148.027 112.697 149.435 112.878C149.782 112.918 150.132 112.939 150.481 112.939C151.594 112.941 152.697 112.727 153.729 112.306C155.095 111.747 156.291 110.838 157.201 109.669C158.109 108.502 158.699 107.116 158.911 105.648C159.11 104.196 158.947 102.717 158.438 101.344ZM140.5 103.425C138.348 100.679 136.968 98.1288 136.483 95.9911C136.285 95.1901 136.238 94.3586 136.345 93.5402C136.429 92.94 136.648 92.367 136.985 91.8645C137.4 91.3235 137.932 90.8855 138.542 90.5842C139.151 90.2829 139.821 90.1263 140.5 90.1263C141.18 90.1264 141.85 90.2831 142.459 90.5845C143.068 90.8859 143.601 91.3239 144.015 91.865C144.352 92.3677 144.571 92.9407 144.656 93.5409C144.763 94.3597 144.716 95.1915 144.517 95.9927C144.032 98.1301 142.651 100.679 140.5 103.425ZM156.397 105.287C156.249 106.313 155.837 107.282 155.202 108.098C154.566 108.915 153.729 109.551 152.775 109.942C151.809 110.332 150.761 110.47 149.728 110.344C148.654 110.204 147.62 109.849 146.686 109.298C145.252 108.486 143.8 107.241 142.167 105.415C144.767 102.186 146.391 99.2106 146.992 96.5603C147.263 95.4458 147.321 94.2899 147.165 93.1536C147.023 92.1744 146.662 91.2406 146.109 90.4225C145.461 89.5392 144.616 88.8215 143.642 88.3272C142.668 87.8326 141.592 87.5749 140.5 87.5748C139.409 87.5748 138.333 87.8324 137.358 88.3269C136.384 88.8211 135.539 89.5387 134.891 90.4219C134.338 91.2398 133.977 92.1734 133.835 93.1523C133.679 94.2881 133.737 95.4436 134.007 96.5576C134.608 99.2091 136.232 102.185 138.834 105.415C137.2 107.241 135.748 108.486 134.314 109.298C133.381 109.849 132.346 110.204 131.272 110.344C130.239 110.47 129.191 110.332 128.225 109.942C127.271 109.551 126.434 108.915 125.798 108.098C125.163 107.282 124.751 106.313 124.603 105.287C124.461 104.244 124.582 103.182 124.955 102.199C125.097 101.797 125.263 101.403 125.469 100.935C125.76 100.272 126.069 99.5986 126.368 98.9476L126.408 98.86C129.143 92.897 132.079 86.8516 135.135 80.8916L135.256 80.6544C135.567 80.0467 135.889 79.4184 136.214 78.8115C136.524 78.1857 136.9 77.595 137.335 77.0493C137.72 76.5806 138.203 76.2034 138.75 75.9447C139.575 75.5543 140.506 75.451 141.395 75.6508C142.285 75.8506 143.083 76.3423 143.665 77.0487C144.1 77.594 144.476 78.1846 144.786 78.8103C145.108 79.4119 145.426 80.0344 145.735 80.6365L145.865 80.8919C148.921 86.8512 151.857 92.8964 154.593 98.8606L154.617 98.9143C154.921 99.5764 155.235 100.261 155.531 100.935C155.737 101.404 155.904 101.798 156.045 102.198C156.418 103.182 156.539 104.244 156.397 105.287Z" fill="currentColor"/><path d="M86.08 154.4C84.2667 154.4 82.6267 153.933 81.16 153C79.6933 152.04 78.5333 150.747 77.68 149.12C76.8267 147.467 76.4 145.6 76.4 143.52C76.4 141.413 76.84 139.547 77.72 137.92C78.6 136.293 79.7733 135.013 81.24 134.08C82.7333 133.147 84.4 132.68 86.24 132.68C87.3333 132.68 88.3467 132.84 89.28 133.16C90.2133 133.48 91.04 133.933 91.76 134.52C92.5067 135.08 93.12 135.747 93.6 136.52C94.1067 137.267 94.4533 138.08 94.64 138.96L93.76 138.52L93.88 133.12H96.88V154H93.84V148.88L94.64 148.36C94.4533 149.16 94.0933 149.933 93.56 150.68C93.0267 151.4 92.3733 152.04 91.6 152.6C90.8533 153.16 90 153.6 89.04 153.92C88.1067 154.24 87.12 154.4 86.08 154.4ZM86.76 151.52C88.1467 151.52 89.3867 151.187 90.48 150.52C91.5733 149.827 92.4267 148.88 93.04 147.68C93.68 146.453 94 145.067 94 143.52C94 141.973 93.68 140.6 93.04 139.4C92.4267 138.2 91.5733 137.253 90.48 136.56C89.3867 135.867 88.1467 135.52 86.76 135.52C85.3467 135.52 84.0933 135.867 83 136.56C81.9333 137.253 81.08 138.2 80.44 139.4C79.8267 140.6 79.52 141.973 79.52 143.52C79.52 145.04 79.8267 146.413 80.44 147.64C81.0533 148.84 81.9067 149.787 83 150.48C84.0933 151.173 85.3467 151.52 86.76 151.52ZM105.125 154V133.12H108.125V154H105.125ZM106.605 128.6C105.858 128.6 105.285 128.413 104.885 128.04C104.511 127.64 104.325 127.107 104.325 126.44C104.325 125.773 104.525 125.24 104.925 124.84C105.325 124.44 105.885 124.24 106.605 124.24C107.325 124.24 107.885 124.44 108.285 124.84C108.685 125.213 108.885 125.747 108.885 126.44C108.885 127.08 108.685 127.6 108.285 128C107.885 128.4 107.325 128.6 106.605 128.6ZM116.276 154V133.12H119.276L119.356 138.68L119.036 137.92C119.33 136.987 119.796 136.12 120.436 135.32C121.103 134.52 121.89 133.88 122.796 133.4C123.703 132.92 124.703 132.68 125.796 132.68C126.25 132.68 126.676 132.72 127.076 132.8C127.476 132.853 127.81 132.933 128.076 133.04L127.236 136.4C126.89 136.24 126.53 136.133 126.156 136.08C125.81 136 125.476 135.96 125.156 135.96C124.25 135.96 123.436 136.12 122.716 136.44C121.996 136.76 121.383 137.213 120.876 137.8C120.37 138.36 119.983 139.013 119.716 139.76C119.45 140.507 119.316 141.307 119.316 142.16V154H116.276ZM143.398 154.4C142.411 154.4 141.451 154.253 140.518 153.96C139.585 153.64 138.731 153.213 137.958 152.68C137.211 152.147 136.571 151.533 136.038 150.84C135.531 150.147 135.185 149.427 134.998 148.68L135.878 148.72L135.758 153.96H132.798V124.4H135.798V138.12L135.198 138.28C135.385 137.533 135.718 136.827 136.198 136.16C136.705 135.467 137.331 134.867 138.078 134.36C138.825 133.827 139.638 133.413 140.518 133.12C141.425 132.827 142.358 132.68 143.318 132.68C145.185 132.68 146.851 133.147 148.318 134.08C149.811 135.013 150.998 136.293 151.878 137.92C152.758 139.547 153.198 141.413 153.198 143.52C153.198 145.627 152.771 147.507 151.918 149.16C151.065 150.787 149.891 152.067 148.398 153C146.931 153.933 145.265 154.4 143.398 154.4ZM142.918 151.56C144.331 151.56 145.585 151.213 146.678 150.52C147.771 149.8 148.625 148.84 149.238 147.64C149.878 146.413 150.198 145.04 150.198 143.52C150.198 141.973 149.878 140.6 149.238 139.4C148.625 138.2 147.771 137.253 146.678 136.56C145.585 135.867 144.331 135.52 142.918 135.52C141.505 135.52 140.251 135.867 139.158 136.56C138.065 137.253 137.198 138.2 136.558 139.4C135.945 140.6 135.638 141.973 135.638 143.52C135.638 145.067 135.945 146.453 136.558 147.68C137.198 148.88 138.065 149.827 139.158 150.52C140.251 151.213 141.505 151.56 142.918 151.56ZM159.164 154V133.12H162.124L162.244 137.48L161.764 137.68C162.03 136.773 162.55 135.947 163.324 135.2C164.097 134.453 165.017 133.853 166.084 133.4C167.177 132.92 168.297 132.68 169.444 132.68C170.99 132.68 172.284 132.987 173.324 133.6C174.364 134.213 175.15 135.16 175.684 136.44C176.217 137.72 176.484 139.347 176.484 141.32V154H173.444V141.48C173.444 140.093 173.257 138.96 172.884 138.08C172.537 137.173 171.99 136.507 171.244 136.08C170.497 135.653 169.577 135.453 168.484 135.48C167.577 135.48 166.737 135.64 165.964 135.96C165.19 136.253 164.524 136.667 163.964 137.2C163.404 137.733 162.964 138.347 162.644 139.04C162.324 139.733 162.164 140.48 162.164 141.28V154H160.684C160.497 154 160.284 154 160.044 154C159.804 154 159.51 154 159.164 154ZM194.411 154.4C193.424 154.4 192.464 154.253 191.531 153.96C190.597 153.64 189.744 153.213 188.971 152.68C188.224 152.147 187.584 151.533 187.051 150.84C186.544 150.147 186.197 149.427 186.011 148.68L186.891 148.72L186.771 153.96H183.811V124.4H186.811V138.12L186.211 138.28C186.397 137.533 186.731 136.827 187.211 136.16C187.717 135.467 188.344 134.867 189.091 134.36C189.837 133.827 190.651 133.413 191.531 133.12C192.437 132.827 193.371 132.68 194.331 132.68C196.197 132.68 197.864 133.147 199.331 134.08C200.824 135.013 202.011 136.293 202.891 137.92C203.771 139.547 204.211 141.413 204.211 143.52C204.211 145.627 203.784 147.507 202.931 149.16C202.077 150.787 200.904 152.067 199.411 153C197.944 153.933 196.277 154.4 194.411 154.4ZM193.931 151.56C195.344 151.56 196.597 151.213 197.691 150.52C198.784 149.8 199.637 148.84 200.251 147.64C200.891 146.413 201.211 145.04 201.211 143.52C201.211 141.973 200.891 140.6 200.251 139.4C199.637 138.2 198.784 137.253 197.691 136.56C196.597 135.867 195.344 135.52 193.931 135.52C192.517 135.52 191.264 135.867 190.171 136.56C189.077 137.253 188.211 138.2 187.571 139.4C186.957 140.6 186.651 141.973 186.651 143.52C186.651 145.067 186.957 146.453 187.571 147.68C188.211 148.88 189.077 149.827 190.171 150.52C191.264 151.213 192.517 151.56 193.931 151.56Z" fill="currentColor"/></svg>