<svg xmlns="http://www.w3.org/2000/svg" viewBox="215.0 163.0 184.1 52.0"><path d="M254.718 177.844H239.105C236.238 177.844 229.976 182.479 230.145 185.634H253.435C255.061 187.623 256.544 190.009 257.277 192.454H230.145C230.622 196.315 235.335 199.588 239.233 200.117C247.978 201.308 258.708 199.412 267.668 200.338C269.11 200.749 271.495 206.594 272.628 208.035H237.059C235.017 208.035 229.545 205.002 227.857 203.64C214.912 193.238 221.405 171.788 238.079 170.048C239.623 169.887 249.922 169.877 250.63 170.289C251.174 170.602 254.328 176.668 254.718 177.844Z" fill="currentColor"/><path d="M294.642 170.053H304.366L282.101 208.025L259.836 170.053H269.305L282.101 191.469L294.642 170.053Z" fill="currentColor"/><path d="M317.932 170.053L331.237 191.484L343.27 170.053H352.994L331.237 208.04L308.464 170.053H317.932Z" fill="currentColor"/><path d="M368.794 169.204C386.078 166.945 398.665 183.878 390.51 198.631C382.76 212.643 360.87 212.374 353.284 198.317C351.843 195.647 350.35 191.737 351.566 188.846C352.586 186.416 359.921 173.79 361.516 172.016C362.762 170.63 366.865 169.454 368.794 169.199V169.204ZM362.957 197.636C373.815 207.964 391.418 193.844 382.227 181.982C378.97 177.783 370.353 174.642 365.875 178.596C365.311 179.096 359.387 189.238 359.295 189.875C359.013 191.825 361.485 196.23 362.957 197.631V197.636Z" fill="currentColor"/></svg>