<svg xmlns="http://www.w3.org/2000/svg" viewBox="283.2 155.4 104.5 41.5"><path d="M289.225 178.12C289.225 177.507 289.425 177.2 289.825 177.2C289.985 177.2 290.118 177.253 290.225 177.36C291.105 178.133 292.078 178.787 293.145 179.32C294.238 179.827 295.598 180.08 297.225 180.08C298.558 180.08 299.558 179.88 300.225 179.48C300.892 179.053 301.225 178.467 301.225 177.72C301.225 177.107 300.945 176.627 300.385 176.28C299.852 175.933 299.158 175.627 298.305 175.36C297.452 175.093 296.545 174.8 295.585 174.48C294.625 174.16 293.718 173.747 292.865 173.24C292.012 172.707 291.305 172.013 290.745 171.16C290.212 170.307 289.945 169.213 289.945 167.88C289.945 166.413 290.305 165.2 291.025 164.24C291.772 163.28 292.758 162.56 293.985 162.08C295.212 161.6 296.545 161.36 297.985 161.36C300.012 161.36 301.785 161.613 303.305 162.12C304.238 162.44 304.812 162.88 305.025 163.44C305.265 164 305.278 164.707 305.065 165.56L304.825 166.52C304.745 166.867 304.585 167.04 304.345 167.04C304.158 167.04 303.932 166.973 303.665 166.84C302.838 166.44 301.972 166.133 301.065 165.92C300.158 165.68 299.172 165.56 298.105 165.56C297.198 165.56 296.412 165.72 295.745 166.04C295.105 166.36 294.785 166.893 294.785 167.64C294.785 168.28 295.052 168.787 295.585 169.16C296.145 169.533 296.852 169.853 297.705 170.12C298.558 170.36 299.465 170.64 300.425 170.96C301.412 171.253 302.332 171.653 303.185 172.16C304.038 172.64 304.732 173.293 305.265 174.12C305.825 174.947 306.105 176.027 306.105 177.36C306.105 179.467 305.372 181.173 303.905 182.48C302.465 183.76 300.412 184.4 297.745 184.4C295.798 184.4 294.198 184.093 292.945 183.48C291.692 182.84 290.758 182.04 290.145 181.08C289.532 180.12 289.225 179.133 289.225 178.12ZM313.945 170.08C314.879 168.853 316.212 168.24 317.945 168.24C319.732 168.24 321.199 168.813 322.345 169.96C323.519 171.08 324.105 172.827 324.105 175.2V183.48C324.105 183.827 323.932 184 323.585 184H320.025C319.679 184 319.505 183.827 319.505 183.48V175.6C319.505 174.427 319.212 173.613 318.625 173.16C318.065 172.707 317.425 172.48 316.705 172.48C315.985 172.48 315.345 172.707 314.785 173.16C314.225 173.613 313.945 174.44 313.945 175.64V183.48C313.945 183.827 313.772 184 313.425 184H309.905C309.559 184 309.385 183.827 309.385 183.48V162.28C309.385 161.933 309.559 161.76 309.905 161.76H310.105C311.359 161.76 312.305 162.053 312.945 162.64C313.612 163.227 313.945 164.24 313.945 165.68V170.08ZM332.316 177.96C332.636 179.693 333.956 180.56 336.276 180.56C337.183 180.56 337.969 180.493 338.636 180.36C339.303 180.2 340.023 179.947 340.796 179.6C341.116 179.467 341.343 179.4 341.476 179.4C341.796 179.4 341.956 179.6 341.956 180C341.956 180.533 341.756 181.147 341.356 181.84C340.983 182.533 340.343 183.133 339.436 183.64C338.529 184.147 337.263 184.4 335.636 184.4C333.209 184.4 331.263 183.68 329.796 182.24C328.329 180.773 327.596 178.787 327.596 176.28C327.596 174.733 327.903 173.36 328.516 172.16C329.129 170.96 330.009 170.013 331.156 169.32C332.303 168.627 333.676 168.28 335.276 168.28C336.903 168.28 338.223 168.613 339.236 169.28C340.276 169.947 341.036 170.813 341.516 171.88C342.023 172.92 342.276 174.027 342.276 175.2C342.276 175.707 342.263 176.133 342.236 176.48C342.236 176.827 342.223 177.12 342.196 177.36C342.169 177.76 341.916 177.96 341.436 177.96H332.316ZM332.356 174.76H337.716C337.769 174.44 337.729 174.08 337.596 173.68C337.463 173.28 337.209 172.933 336.836 172.64C336.489 172.347 335.969 172.2 335.276 172.2C334.369 172.2 333.663 172.44 333.156 172.92C332.676 173.373 332.409 173.987 332.356 174.76ZM350.231 184.32C348.844 184.32 347.751 183.867 346.951 182.96C346.151 182.027 345.751 180.627 345.751 178.76V162.28C345.751 161.933 345.924 161.76 346.271 161.76H346.471C347.724 161.76 348.671 162.053 349.311 162.64C349.978 163.227 350.311 164.24 350.311 165.68V178.24C350.311 179.68 350.818 180.4 351.831 180.4C352.204 180.4 352.498 180.347 352.711 180.24C352.951 180.133 353.204 179.987 353.471 179.8C353.524 179.747 353.591 179.707 353.671 179.68C353.751 179.627 353.844 179.6 353.951 179.6C354.111 179.6 354.218 179.667 354.271 179.8C354.351 179.933 354.391 180.067 354.391 180.2C354.391 180.813 354.258 181.44 353.991 182.08C353.751 182.72 353.324 183.253 352.711 183.68C352.124 184.107 351.298 184.32 350.231 184.32ZM361.109 184.32C359.722 184.32 358.629 183.867 357.829 182.96C357.029 182.027 356.629 180.627 356.629 178.76V162.28C356.629 161.933 356.802 161.76 357.149 161.76H357.349C358.602 161.76 359.549 162.053 360.189 162.64C360.856 163.227 361.189 164.24 361.189 165.68V178.24C361.189 179.68 361.696 180.4 362.709 180.4C363.082 180.4 363.376 180.347 363.589 180.24C363.829 180.133 364.082 179.987 364.349 179.8C364.402 179.747 364.469 179.707 364.549 179.68C364.629 179.627 364.722 179.6 364.829 179.6C364.989 179.6 365.096 179.667 365.149 179.8C365.229 179.933 365.269 180.067 365.269 180.2C365.269 180.813 365.136 181.44 364.869 182.08C364.629 182.72 364.202 183.253 363.589 183.68C363.002 184.107 362.176 184.32 361.109 184.32ZM371.436 184.4L365.876 169.24C365.822 169.107 365.822 168.987 365.876 168.88C365.956 168.773 366.049 168.72 366.156 168.72H367.116C368.049 168.72 368.782 168.84 369.316 169.08C369.876 169.293 370.342 169.68 370.716 170.24C371.089 170.8 371.449 171.6 371.796 172.64L373.956 178.88L377.196 169.24C377.302 168.893 377.516 168.72 377.836 168.72H381.436C381.569 168.72 381.649 168.773 381.676 168.88C381.729 168.987 381.729 169.107 381.676 169.24L376.556 183.72C376.102 185.027 375.582 186.213 374.996 187.28C374.436 188.373 373.742 189.24 372.916 189.88C372.089 190.52 371.036 190.84 369.756 190.84C368.769 190.84 367.956 190.627 367.316 190.2C366.676 189.8 366.196 189.293 365.876 188.68C365.582 188.067 365.436 187.48 365.436 186.92C365.436 186.707 365.476 186.507 365.556 186.32C365.636 186.16 365.769 186.08 365.956 186.08C366.089 186.08 366.209 186.12 366.316 186.2C367.089 186.707 367.836 186.96 368.556 186.96C369.302 186.96 369.889 186.733 370.316 186.28C370.742 185.853 371.116 185.227 371.436 184.4Z" fill="currentColor"/></svg>