<svg xmlns="http://www.w3.org/2000/svg" viewBox="139.2 34.0 143.4 103.2"><path d="M146 97H156.503V88.7711H165.024V76.5282H180.68V97H189.003V68.7007L197.128 58.2641L206.046 68.7007V97H218.729V51.2394H225.07M225.07 51.2394V40M225.07 51.2394H232.601V97H243.896V66.2923H257.372V97H276" fill="none" stroke="currentColor" stroke-width="4"/><path d="M155.032 131.16C153.219 131.16 151.683 130.851 150.424 130.232C149.187 129.613 148.184 128.771 147.416 127.704C146.669 126.637 146.115 125.421 145.752 124.056C145.411 122.691 145.24 121.272 145.24 119.8V108.28H148.824V119.8C148.824 120.845 148.931 121.859 149.144 122.84C149.357 123.8 149.699 124.664 150.168 125.432C150.637 126.2 151.267 126.808 152.056 127.256C152.867 127.704 153.859 127.928 155.032 127.928C156.227 127.928 157.219 127.704 158.008 127.256C158.819 126.787 159.448 126.168 159.896 125.4C160.365 124.611 160.707 123.736 160.92 122.776C161.133 121.816 161.24 120.824 161.24 119.8V108.28H164.856V119.8C164.856 121.357 164.664 122.829 164.28 124.216C163.917 125.581 163.341 126.787 162.552 127.832C161.784 128.856 160.781 129.667 159.544 130.264C158.307 130.861 156.803 131.16 155.032 131.16ZM171.862 131V108.28H181.751C182.775 108.28 183.713 108.493 184.567 108.92C185.42 109.347 186.156 109.912 186.774 110.616C187.415 111.32 187.905 112.109 188.247 112.984C188.609 113.859 188.791 114.755 188.791 115.672C188.791 116.675 188.609 117.635 188.247 118.552C187.884 119.469 187.361 120.259 186.679 120.92C186.017 121.581 185.239 122.061 184.343 122.36L189.687 131H185.655L180.727 123.096H175.446V131H171.862ZM175.446 119.928H181.719C182.38 119.928 182.967 119.736 183.479 119.352C183.991 118.968 184.396 118.456 184.695 117.816C184.993 117.155 185.143 116.44 185.143 115.672C185.143 114.883 184.972 114.179 184.631 113.56C184.289 112.92 183.841 112.408 183.286 112.024C182.753 111.64 182.167 111.448 181.527 111.448H175.446V119.928ZM213.115 125.144C213.115 126.36 212.795 127.405 212.155 128.28C211.536 129.155 210.693 129.827 209.627 130.296C208.56 130.765 207.387 131 206.107 131H195.259V108.28H206.971C208.037 108.28 208.955 108.568 209.723 109.144C210.512 109.699 211.109 110.424 211.515 111.32C211.941 112.195 212.155 113.112 212.155 114.072C212.155 115.181 211.867 116.227 211.291 117.208C210.736 118.168 209.936 118.883 208.891 119.352C210.192 119.736 211.216 120.44 211.963 121.464C212.731 122.467 213.115 123.693 213.115 125.144ZM209.435 124.472C209.435 123.832 209.296 123.256 209.019 122.744C208.763 122.211 208.4 121.784 207.931 121.464C207.483 121.123 206.949 120.952 206.331 120.952H198.843V127.896H206.107C206.747 127.896 207.312 127.747 207.803 127.448C208.315 127.128 208.709 126.712 208.987 126.2C209.285 125.667 209.435 125.091 209.435 124.472ZM198.843 111.384V118.072H205.435C206.032 118.072 206.565 117.933 207.035 117.656C207.504 117.357 207.877 116.963 208.155 116.472C208.432 115.96 208.571 115.384 208.571 114.744C208.571 114.083 208.443 113.507 208.187 113.016C207.931 112.504 207.579 112.109 207.131 111.832C206.704 111.533 206.203 111.384 205.627 111.384H198.843ZM219.093 131V108.28H222.677V131H219.093ZM239.491 131.16C237.849 131.16 236.366 130.84 235.043 130.2C233.721 129.539 232.579 128.664 231.619 127.576C230.659 126.488 229.913 125.261 229.379 123.896C228.867 122.509 228.611 121.091 228.611 119.64C228.611 118.125 228.889 116.685 229.443 115.32C229.998 113.933 230.766 112.707 231.747 111.64C232.729 110.552 233.881 109.699 235.203 109.08C236.547 108.44 237.998 108.12 239.555 108.12C241.177 108.12 242.649 108.451 243.971 109.112C245.315 109.773 246.457 110.659 247.395 111.768C248.355 112.877 249.091 114.115 249.603 115.48C250.137 116.845 250.403 118.243 250.403 119.672C250.403 121.187 250.126 122.637 249.571 124.024C249.038 125.389 248.281 126.616 247.299 127.704C246.318 128.771 245.155 129.613 243.811 130.232C242.489 130.851 241.049 131.16 239.491 131.16ZM239.523 127.928C240.675 127.928 241.699 127.693 242.595 127.224C243.491 126.755 244.238 126.125 244.835 125.336C245.454 124.525 245.923 123.629 246.243 122.648C246.563 121.645 246.723 120.643 246.723 119.64C246.723 118.573 246.553 117.539 246.211 116.536C245.891 115.533 245.411 114.648 244.771 113.88C244.131 113.112 243.363 112.504 242.467 112.056C241.593 111.587 240.611 111.352 239.523 111.352C238.371 111.352 237.347 111.587 236.451 112.056C235.555 112.525 234.798 113.165 234.179 113.976C233.561 114.765 233.081 115.651 232.739 116.632C232.419 117.613 232.259 118.616 232.259 119.64C232.259 120.707 232.43 121.741 232.771 122.744C233.113 123.747 233.593 124.632 234.211 125.4C234.851 126.168 235.619 126.787 236.515 127.256C237.411 127.704 238.414 127.928 239.523 127.928ZM239.971 123.096H243.427L250.339 131H246.883L239.971 123.096ZM265.731 131.16C264.089 131.16 262.606 130.84 261.283 130.2C259.961 129.56 258.819 128.696 257.859 127.608C256.899 126.499 256.153 125.261 255.619 123.896C255.107 122.509 254.851 121.091 254.851 119.64C254.851 118.125 255.129 116.685 255.683 115.32C256.238 113.933 257.006 112.707 257.987 111.64C258.969 110.552 260.121 109.699 261.443 109.08C262.787 108.44 264.238 108.12 265.795 108.12C267.417 108.12 268.889 108.451 270.211 109.112C271.555 109.773 272.697 110.659 273.635 111.768C274.595 112.877 275.331 114.115 275.843 115.48C276.377 116.845 276.643 118.243 276.643 119.672C276.643 121.187 276.366 122.637 275.811 124.024C275.278 125.389 274.521 126.616 273.539 127.704C272.558 128.771 271.395 129.613 270.051 130.232C268.729 130.851 267.289 131.16 265.731 131.16ZM258.499 119.64C258.499 120.707 258.67 121.741 259.011 122.744C259.353 123.747 259.833 124.643 260.451 125.432C261.091 126.2 261.859 126.808 262.755 127.256C263.651 127.704 264.654 127.928 265.763 127.928C266.915 127.928 267.939 127.693 268.835 127.224C269.731 126.755 270.478 126.125 271.075 125.336C271.694 124.525 272.163 123.629 272.483 122.648C272.803 121.645 272.963 120.643 272.963 119.64C272.963 118.573 272.793 117.549 272.451 116.568C272.131 115.565 271.651 114.68 271.011 113.912C270.371 113.123 269.603 112.504 268.707 112.056C267.833 111.608 266.851 111.384 265.763 111.384C264.611 111.384 263.587 111.619 262.691 112.088C261.795 112.557 261.038 113.187 260.419 113.976C259.801 114.765 259.321 115.651 258.979 116.632C258.659 117.613 258.499 118.616 258.499 119.64Z" fill="currentColor"/></svg>