<svg xmlns="http://www.w3.org/2000/svg" viewBox="0 0 208 64" style="color: var(--wolf-ink, #2C3E50)">
  <title>Draft 4, modular: the wolf rebuilt from circle, triangles and a gap grid</title>
  <defs>
    <mask id="d4-cuts">
      <rect width="208" height="64" fill="#fff"/>
      <g transform="translate(4 8) scale(0.75)" fill="none" stroke="#000" stroke-width="2.6" stroke-linecap="round">
        <path d="M 21.5 29 Q 25.5 25.5, 29.5 28.5"/>
        <path d="M 34.5 28.5 Q 38.5 25.5, 42.5 29"/>
      </g>
      <path transform="translate(4 8) scale(0.75)" d="M 28.9 33.8 L 35.1 33.8 L 32 38.2 Z" fill="#000"/>
    </mask>
  </defs>
  <g id="mark" transform="translate(4 8) scale(0.75)" mask="url(#d4-cuts)">
    <circle id="head" cx="32" cy="30" r="15" fill="currentColor"/>
    <path id="ear-left" d="M 28 15.5 L 15.5 4.5 L 17.5 17.5 Z" fill="currentColor"/>
    <path id="ear-right" d="M 35 16 L 41 3.5 L 46.5 14 Z" fill="currentColor"/>
    <path id="chest" d="M 22.5 47.5 L 41.5 47.5 L 32 60.5 Z" fill="currentColor"/>
  </g>
  <path id="tongue" transform="translate(4 8) scale(0.75)" d="M 29.3 40.6 L 34.7 40.6 L 32 44.9 Z" fill="var(--wolf-accent, #E3993D)"/>
  <text id="wordmark" x="62" y="36.5" font-family="'Geist Mono Variable','Geist Mono',ui-monospace,'SF Mono',Menlo,monospace" font-size="13" font-weight="500" letter-spacing="0.1" fill="currentColor">Witty Wolf Design</text>
</svg>
