<svg xmlns="http://www.w3.org/2000/svg" viewBox="0 0 64 64" style="color: var(--wolf-ink, #2C3E50)">
  <title>Witty Wolf concept 06, one line</title>
  <path id="one-line" fill="none" stroke="currentColor" stroke-width="2" stroke-linecap="round" stroke-linejoin="round" d="M 11.5 6.5
    C 11.1 10, 11.9 15, 13.9 18.5
    C 15.2 21.5, 15 24.5, 15 28.5
    C 17 30, 19 31, 20.2 31.8
    C 18.2 33, 16.6 34.6, 16 36.4
    C 18 38, 19.8 39, 21.2 39.6
    C 17.5 46, 23.5 55.5, 32 61
    C 40.5 55.5, 46.5 46, 42.8 39.6
    C 44.2 39, 46 38, 48 36.4
    C 47.4 34.6, 45.8 33, 43.8 31.8
    C 45 31, 47 30, 49 28.5
    C 49 24.5, 47.6 20, 45.2 16
    C 44.6 11, 42.8 6.4, 39.5 3
    C 36.3 5.6, 34.2 9.8, 33.3 13.8
    C 28.5 13, 23.5 13.8, 19.8 15.8
    C 16.3 13.2, 13.5 9.8, 11.5 6.5
    C 14.5 14, 17 22, 19.5 28.5
    Q 23.5 25, 27.5 28
    C 28.2 31, 28.4 33.5, 28.6 36.2
    L 32 40.5
    L 35.4 36.2
    C 35.6 33.5, 35.9 31, 36.5 28
    Q 40.5 25, 44.5 28.5"/>
  <circle id="tongue-drop" cx="32" cy="44.6" r="2.2" fill="var(--wolf-accent, #E3993D)"/>
</svg>
