<svg xmlns="http://www.w3.org/2000/svg" viewBox="0 0 64 64" style="color: var(--wolf-ink, #2C3E50)">
  <title>Witty Wolf concept 05, the heavyweight</title>
  <g id="wolf-bold" fill="none" stroke="currentColor" stroke-width="5" stroke-linecap="round" stroke-linejoin="round">
    <path id="crown" d="M 10.5 19 L 13.5 5.5 L 21 14.5 Q 27 10.8, 33.5 12.5 L 39.5 2.5 L 45.5 14"/>
    <path id="ruff" d="M 15.5 28 C 16.5 41, 23 51, 32 57 C 41 51, 47.5 41, 48.5 28"/>
    <path id="eye-left" d="M 21 27 Q 25 23.5, 29 26.5" stroke-width="4.5"/>
    <path id="eye-right" d="M 35.5 26.5 Q 39.5 23.5, 43.5 27" stroke-width="4.5"/>
  </g>
  <path id="nose" d="M 27.5 35.5 Q 32 34.3, 36.5 35.5 Q 37.4 36.4, 36.5 38.3 Q 34.3 41.8, 32 42.4 Q 29.7 41.8, 27.5 38.3 Q 26.6 36.4, 27.5 35.5 Z" fill="currentColor"/>
  <path id="tongue" d="M 29 44.6 C 30.7 45.7, 33.3 45.7, 35 44.5 C 36.1 46.4, 35.9 49, 34.4 50.5 C 33.3 51.5, 30.9 51.5, 29.8 50.5 C 28.3 49.1, 28.2 46.8, 29 44.6 Z" fill="var(--wolf-accent, #E3993D)"/>
</svg>
