<svg xmlns="http://www.w3.org/2000/svg" viewBox="0 0 64 64" style="color: var(--wolf-ink, #2C3E50)">
  <title>Witty Wolf concept 01, the successor</title>
  <defs>
    <mask id="w01-cuts">
      <rect width="64" height="64" fill="#fff"/>
      <g fill="none" stroke="#000" stroke-linecap="round" stroke-linejoin="round">
        <path id="eye-left" d="M 19.5 28.5 Q 23.5 25, 27.5 28" stroke-width="3.2"/>
        <path id="eye-right" d="M 36.5 28 Q 40.5 25, 44.5 28.5" stroke-width="3.2"/>
        <path id="muzzle-left" d="M 32 41.2 C 31.4 43.9, 29.2 44.9, 25.6 43.6" stroke-width="2.6"/>
        <path id="muzzle-right" d="M 32 41.2 C 32.6 43.9, 34.8 44.9, 38.4 43.6" stroke-width="2.6"/>
        <path id="chest-sweep" d="M 40.5 34 C 44 41, 40.5 49.5, 33 55" stroke-width="2.4"/>
      </g>
      <path id="ear-inner-left" d="M 12.9 9.2 L 18.3 15.2 L 13.4 16.6 Z" fill="#000"/>
      <path id="ear-inner-right" d="M 39.4 5.2 L 43.2 14.9 L 36.9 13.1 Z" fill="#000"/>
      <path id="nose" d="M 28.6 35.8 Q 32 34.9, 35.4 35.8 Q 36.1 36.5, 35.4 38 Q 33.7 40.7, 32 41.2 Q 30.3 40.7, 28.6 38 Q 27.9 36.5, 28.6 35.8 Z" fill="#000"/>
    </mask>
  </defs>
  <path id="head" mask="url(#w01-cuts)" fill="currentColor" d="M 11.5 6.5
    C 13.5 9.8, 16.3 13.2, 19.8 15.8
    C 23.5 13.8, 28.5 13, 33.3 13.8
    C 34.2 9.8, 36.3 5.6, 39.5 3
    C 42.8 6.4, 44.6 11, 45.2 16
    C 47.6 20, 49 24.5, 49 28.5
    C 47 30, 45 31, 43.8 31.8
    C 45.8 33, 47.4 34.6, 48 36.4
    C 46 38, 44.2 39, 42.8 39.6
    C 46.5 46, 40.5 55.5, 32 61
    C 23.5 55.5, 17.5 46, 21.2 39.6
    C 19.8 39, 18 38, 16 36.4
    C 16.6 34.6, 18.2 33, 20.2 31.8
    C 19 31, 17 30, 15 28.5
    C 15 24.5, 15.2 21.5, 13.9 18.5
    C 11.9 15, 11.1 10, 11.5 6.5 Z"/>
  <path id="tongue" d="M 30.9 44.1 C 32.1 44.9, 34 44.9, 35.2 44 C 36 45.4, 35.8 47.3, 34.7 48.4 C 33.9 49.2, 32.4 49.2, 31.6 48.4 C 30.6 47.4, 30.4 45.7, 30.9 44.1 Z" fill="var(--wolf-accent, #E3993D)"/>
</svg>
